{
.appVersion = "3205";
.formatVersion = 3;
DisplayStrings = (
"TATAFAFAt
OVWOMANM
AVARIABLE",
"ELAtZY
g",
"wv/ampersand.ss01",
"/Mdotbelow.ss02",
RAN,
"RU
YMY",
"GR/A.ss02"
);
axes = (
{
name = Weight;
tag = wght;
}
);
classes = (
{
automatic = 1;

glyphs = (
{
glyphname = A;
kernLeft = A;
kernRight = A;
lastChange = "2023-07-07 17:57:17 +0000";
layers = (
{
anchors = (
{
name = bottom;
pos = (465,0);
},
{
name = ogonek;
pos = (749,0);
},
{
name = top;
pos = (801,1323);
}
);
layerId = "82219AB4-7C60-4B3A-9196-329BE868CB10";
shapes = (
{
closed = 1;
nodes = (
(87,91,o),
(190,318,o),
(289,525,c),
(329,533,o),
(679,562,o),
(786,562,c),
(766,467,o),
(687,80,o),
(669,-15,c),
(698,-15,o),
(727,-12,o),
(756,-5,c),
(882,621,o),
(962,1089,o),
(973,1323,c),
(943,1327,o),
(901,1329,o),
(866,1329,cs),
(750,1329,o),
(618,1311,o),
(588,1304,c),
(426,996,o),
(29,165,o),
(-47,-7,c),
(-31,-12,o),
(6,-15,o),
(43,-15,c)
);
},
{
closed = 1;
nodes = (
(489,944,o),
(607,1173,o),
(639,1231,c),
(682,1237,o),
(838,1250,o),
(897,1250,c),
(885,1096,o),
(822,744,o),
(801,637,c),
(651,631,o),
(429,615,o),
(324,594,c)
);
}
);
width = 991;
},
{
anchors = (
{
name = bottom;
pos = (495,0);
},
{
name = ogonek;
pos = (867,5);
},
{
name = top;
pos = (903,1337);
}
);
layerId = "63DB0068-8B02-4205-807F-6F2453D24B26";
shapes = (
{
closed = 1;
nodes = (
(337,57,o),
(390,178,o),
(447,291,c),
(487,299,o),
(593,306,o),
(699,308,c),
(667,191,o),
(638,80,o),
(620,-15,c),
(747,-15,o),
(968,-4,o),
(1051,7,c),
(1198,783,o),
(1222,1089,o),
(1232,1323,c),
(1153,1333,o),
(1075,1338,o),
(993,1338,cs),
(865,1338,o),
(726,1327,o),
(550,1306,c),
(347,940,o),
(8,271,o),
(-112,-2,c),
(-7,-7,o),
(235,-15,o),
(310,-15,c)
);
},
{
closed = 1;
nodes = (
(610,691,o),
(707,911,o),
(746,995,c),
(764,997,o),
(842,1002,o),
(867,1002,c),
(860,976,o),
(792,692,o),
(783,651,c),
(744,651,o),
(618,643,o),
(590,639,c)
);
}
);
width = 1212;
}
);
unicode = 65;
},
{
glyphname = A.ss02;
kernLeft = A;
kernRight = A;
lastChange = "2023-07-10 13:11:01 +0000";
layers = (
{
anchors = (
{
name = bottom;
pos = (513,0);
},
{
name = ogonek;
pos = (1210,7);
},
{
name = top;
pos = (912,1327);
}
);
layerId = "63DB0068-8B02-4205-807F-6F2453D24B26";
shapes = (
{
closed = 1;
nodes = (
(329,44,o),
(394,180,o),
(429,246,c),
(503,251,o),
(618,256,o),
(711,257,c),
(711,181,o),
(696,50,o),
(686,-5,c),
(764,-1,o),
(1058,56,o),
(1103,77,c),
(1149,455,o),
(1047,1163,o),
(901,1338,c),
(675,1193,o),
(189,591,o),
(-76,118,c),
(-21,90,o),
(234,5,o),
(304,-15,c)
);
},
{
closed = 1;
nodes = (
(600,580,o),
(691,690,o),
(730,747,c),
(739,717,o),
(736,562,o),
(733,499,c),
(677,498,o),
(605,496,o),
(551,493,c)
);
}
);
width = 1250;
},
{
anchors = (
{
name = bottom;
pos = (387,0);
},
{
name = ogonek;
pos = (918,-5);
},
{
name = top;
pos = (748,1323);
}
);
layerId = "82219AB4-7C60-4B3A-9196-329BE868CB10";
shapes = (
{
closed = 1;
nodes = (
(1,64,o),
(142,331,o),
(272,542,c),
(366,558,o),
(662,582,o),
(757,582,c),
(762,459,o),
(753,60,o),
(745,5,c),
(764,9,o),
(809,25,o),
(835,33,c),
(864,280,o),
(844,1025,o),
(758,1349,c),
(479,1018,o),
(170,559,o),
(-113,33,c),
(-101,23,o),
(-46,6,o),
(-31,5,c)
);
},
{
closed = 1;
nodes = (
(433,788,o),
(639,1087,o),
(711,1184,c),
(735,1057,o),
(759,781,o),
(760,653,c),
(641,650,o),
(411,631,o),
(318,613,c)
);
}
);
width = 998;
}
);
},
{
glyphname = Aogonek;
lastChange = "2020-07-21 16:03:54 +0000";
layers = (
{
layerId = "82219AB4-7C60-4B3A-9196-329BE868CB10";
shapes = (
{
closed = 1;
nodes = (
(797,-403,o),
(748,-423,o),
(654,-423,cs),
(564,-423,o),
(507,-392,o),
(507,-290,cs),
(507,-177,o),
(637,-43,o),
(749,0,c),
(684,45,l),
(545,-14,o),
(421,-154,o),
(421,-297,cs),
(421,-426,o),
(501,-503,o),
(638,-503,cs),
(742,-503,o),
(814,-481,o),
(870,-457,c),
(870,-370,l)
);
},
{
ref = A;
}
);
width = 991;
},
{
layerId = "63DB0068-8B02-4205-807F-6F2453D24B26";
shapes = (
{
closed = 1;
nodes = (
(936,-275,o),
(891,-284,o),
(848,-284,cs),
(795,-284,o),
(741,-260,o),
(741,-188,cs),
(741,-108,o),
(816,-24,o),
(861,7,c),
(725,65,l),
(660,50,o),
(478,-103,o),
(478,-277,cs),
(478,-444,o),
(622,-529,o),
(780,-529,cs),
(884,-529,o),
(946,-516,o),
(975,-504,c),
(975,-247,l)
);
},
{
ref = A;
}
);
width = 1212;
}
);
unicode = 260;
},
{
glyphname = AE;
kernLeft = A;
kernRight = E;
lastChange = "2020-07-16 19:49:31 +0000";
layers = (
{
anchors = (
{
name = bottom;
pos = (630,0);
},
{
name = top;
pos = (1024,1291);
}
);
layerId = "82219AB4-7C60-4B3A-9196-329BE868CB10";
shapes = (
{
closed = 1;
nodes = (
(1348,-5,o),
(1362,25,o),
(1372,53,c),
(1297,59,o),
(1113,66,o),
(954,66,cs),
(901,66,o),
(814,65,o),
(773,63,c),
(826,257,o),
(884,472,o),
(938,676,c),
(1024,679,o),
(1444,680,o),
(1494,680,c),
(1506,758,l),
(1414,758,o),
(1031,746,o),
(957,743,c),
(980,828,o),
(1055,1095,o),
(1083,1183,c),
(1687,1230,l),
(1697,1257,o),
(1704,1280,o),
(1711,1304,c),
(1685,1304,o),
(705,1218,o),
(685,1214,c),
(493,927,o),
(15,152,o),
(-78,-9,c),
(-63,-13,o),
(-22,-16,o),
(14,-16,c),
(69,83,o),
(193,295,o),
(312,488,c),
(352,495,o),
(704,522,o),
(810,522,c),
(765,352,o),
(719,167,o),
(677,-12,c),
(880,-12,o),
(1203,-18,o),
(1338,-23,c)
);
},
{
closed = 1;
nodes = (
(548,875,o),
(692,1092,o),
(729,1146,c),
(773,1151,o),
(926,1164,o),
(984,1164,c),
(905,867,o),
(870,738,o),
(825,593,c),
(678,587,o),
(455,569,o),
(349,549,c)
);
}
);
width = 1606;
},
{
anchors = (
{
name = bottom;
pos = (745,0);
},
{
name = top;
pos = (1155,1291);
}
);
layerId = "63DB0068-8B02-4205-807F-6F2453D24B26";
shapes = (
{
closed = 1;
nodes = (
(1512,-10,o),
(1604,235,o),
(1640,368,c),
(1592,372,o),
(1514,378,o),
(1432,378,cs),
(1352,378,o),
(1273,378,o),
(1193,378,c),
(1199,400,o),
(1222,478,o),
(1232,505,c),
(1267,505,o),
(1554,491,o),
(1597,488,c),
(1695,828,l),
(1608,826,o),
(1405,823,o),
(1326,823,c),
(1331,842,o),
(1354,929,o),
(1362,946,c),
(1793,977,l),
(1834,1091,o),
(1869,1194,o),
(1897,1298,c),
(1826,1298,o),
(867,1232,o),
(716,1216,c),
(437,874,o),
(6,251,o),
(-152,-4,c),
(-51,-9,o),
(224,-16,o),
(297,-16,c),
(340,51,o),
(417,164,o),
(489,269,c),
(531,277,o),
(715,283,o),
(820,285,c),
(790,175,o),
(760,73,o),
(730,-16,c),
(916,-16,o),
(1284,-33,o),
(1490,-47,c)
);
},
{
closed = 1;
nodes = (
(717,642,o),
(851,847,o),
(909,926,c),
(926,928,o),
(984,932,o),
(1009,932,c),
(997,908,o),
(913,654,o),
(900,605,c),
(861,605,o),
(716,598,o),
(687,594,c)
);
}
);
width = 1771;
}
);
metricLeft = "=A-30";
metricRight = E;
unicode = 198;
},
{
glyphname = B;
kernLeft = H;
kernRight = B;
lastChange = "2020-06-10 19:16:00 +0000";
layers = (
{
anchors = (
{
name = bottom;
pos = (444.585,0);
},
{
name = top;
pos = (790.507,1291);
}
);
layerId = "82219AB4-7C60-4B3A-9196-329BE868CB10";
shapes = (
{
closed = 1;
nodes = (
(110,6,o),
(172,4,o),
(226,4,cs),
(605,4,o),
(1008,72,o),
(1008,424,cs),
(1008,555,o),
(888,665,o),
(745,665,cs),
(737,665,o),
(736,665,o),
(732,665,c),
(881,701,o),
(1050,863,o),
(1050,1059,cs),
(1050,1243,o),
(932,1306,o),
(764,1306,cs),
(604,1306,o),
(492,1294,o),
(416,1285,c),
(404,1243,o),
(114,193,o),
(66,12,c)
);
},
{
closed = 1;
nodes = (
(322,610,l),
(367,615,o),
(531,617,o),
(565,617,cs),
(799,617,o),
(929,569,o),
(929,411,cs),
(929,105,o),
(547,80,o),
(217,80,cs),
(196,80,o),
(180,80,o),
(173,80,c)
);
},
{
closed = 1;
nodes = (
(483,1221,l),
(530,1228,o),
(632,1241,o),
(729,1241,cs),
(876,1241,o),
(966,1203,o),
(966,1048,cs),
(966,894,o),
(869,797,o),
(753,737,cs),
(667,692,o),
(562,682,o),
(339,680,c)
);
}
);
width = 1174;
},
{
anchors = (
{
name = bottom;
pos = (444.585,0);
},
{
name = top;
pos = (790.507,1291);
}
);
layerId = "63DB0068-8B02-4205-807F-6F2453D24B26";
shapes = (
{
closed = 1;
nodes = (
(13,10,o),
(122,2,o),
(237,2,cs),
(694,2,o),
(1102,136,o),
(1102,490,cs),
(1102,637,o),
(1018,724,o),
(874,736,cs),
(862,737,o),
(855,737,o),
(848,737,c),
(1015,763,o),
(1166,895,o),
(1166,1063,cs),
(1166,1229,o),
(1027,1306,o),
(817,1306,cs),
(655,1306,o),
(428,1293,o),
(315,1285,c),
(307,1256,o),
(-4,209,o),
(-53,27,c)
);
},
{
closed = 1;
nodes = (
(485,543,l),
(532,548,o),
(564,550,o),
(598,550,cs),
(707,550,o),
(731,524,o),
(731,493,cs),
(731,403,o),
(596,372,o),
(501,372,cs),
(480,372,o),
(461,372,o),
(449,373,c)
);
},
{
closed = 1;
nodes = (
(599,1012,l),
(641,1017,o),
(696,1023,o),
(729,1023,cs),
(776,1023,o),
(809,998,o),
(809,962,cs),
(809,886,o),
(702,857,o),
(619,857,cs),
(602,857,o),
(584,857,o),
(564,857,c)
);
}
);
width = 1174;
}
);
unicode = 66;
},
{
glyphname = C;
kernLeft = O;
kernRight = C;
lastChange = "2020-07-03 19:50:48 +0000";
layers = (
{
anchors = (
{
name = bottom;
pos = (397,0);
},
{
name = top;
pos = (743,1291);
}
);
layerId = "82219AB4-7C60-4B3A-9196-329BE868CB10";
shapes = (
{
closed = 1;
nodes = (
(1009,299,o),
(969,332,o),
(958,338,c),
(875,241,o),
(709,72,o),
(483,72,cs),
(299,72,o),
(207,227,o),
(207,485,cs),
(207,825,o),
(451,1241,o),
(793,1241,cs),
(1070,1241,o),
(1099,1087,o),
(1107,1038,c),
(1127,1049,o),
(1175,1079,o),
(1189,1093,c),
(1155,1230,o),
(997,1326,o),
(813,1326,cs),
(419,1326,o),
(112,902,o),
(112,463,cs),
(112,221,o),
(220,-7,o),
(475,-7,cs),
(702,-7,o),
(880,127,o),
(1015,289,c)
);
}
);
width = 1137;
},
{
anchors = (
{
name = bottom;
pos = (426.585,0);
},
{
name = top;
pos = (772.507,1291);
}
);
layerId = "63DB0068-8B02-4205-807F-6F2453D24B26";
shapes = (
{
closed = 1;
nodes = (
(1009,278,o),
(910,434,o),
(836,499,c),
(745,426,o),
(657,390,o),
(588,390,cs),
(504,390,o),
(475,464,o),
(475,563,cs),
(475,757,o),
(581,982,o),
(744,982,cs),
(849,982,o),
(889,855,o),
(890,834,c),
(985,885,o),
(1152,995,o),
(1241,1070,c),
(1184,1246,o),
(993,1326,o),
(791,1326,cs),
(353,1326,o),
(33,930,o),
(33,473,cs),
(33,198,o),
(201,-14,o),
(516,-14,cs),
(730,-14,o),
(908,73,o),
(1039,185,c)
);
}
);
width = 1137;
}
);
unicode = 67;
},
{
glyphname = Ccedilla;
lastChange = "2020-07-08 20:03:08 +0000";
layers = (
{
layerId = "82219AB4-7C60-4B3A-9196-329BE868CB10";
shapes = (
{
closed = 1;
nodes = (
(605,-462,o),
(758,-400,o),
(758,-227,cs),
(758,-134,o),
(693,-87,o),
(597,-87,cs),
(549,-87,o),
(484,-106,o),
(465,-119,c),
(506,39,l),
(434,43,l),
(367,-212,l),
(410,-194,o),
(512,-159,o),
(570,-159,cs),
(642,-159,o),
(668,-189,o),
(668,-242,cs),
(668,-362,o),
(558,-392,o),
(412,-392,cs),
(361,-392,o),
(287,-374,o),
(249,-364,c),
(222,-437,l),
(241,-444,o),
(304,-462,o),
(408,-462,cs)
);
},
{
ref = C;
}
);
width = 1137;
},
{
layerId = "63DB0068-8B02-4205-807F-6F2453D24B26";
shapes = (
{
closed = 1;
nodes = (
(611,-537,o),
(864,-453,o),
(864,-231,cs),
(864,-124,o),
(800,-77,o),
(704,-77,cs),
(634,-77,o),
(575,-105,o),
(547,-139,c),
(592,39,l),
(372,27,l),
(281,-257,l),
(318,-244,o),
(402,-229,o),
(479,-229,cs),
(544,-229,o),
(595,-239,o),
(595,-272,cs),
(595,-315,o),
(526,-337,o),
(404,-337,cs),
(371,-337,o),
(289,-325,o),
(261,-312,c),
(172,-515,l),
(192,-520,o),
(272,-537,o),
(377,-537,cs)
);
},
{
ref = C;
}
);
width = 1137;
}
);
unicode = 199;
},
{
glyphname = D;
kernLeft = H;
kernRight = O;
lastChange = "2020-07-16 20:03:24 +0000";
layers = (
{
anchors = (
{
name = bottom;
pos = (456.585,0);
},
{
name = center;
pos = (415,646);
},
{
name = top;
pos = (716,1291);
}
);
layerId = "82219AB4-7C60-4B3A-9196-329BE868CB10";
shapes = (
{
closed = 1;
nodes = (
(824,-4,o),
(1069,339,o),
(1069,791,cs),
(1069,1085,o),
(954,1325,o),
(644,1325,cs),
(570,1325,o),
(420,1308,o),
(381,1299,c),
(374,1268,o),
(186,219,o),
(147,-27,c)
);
},
{
closed = 1;
nodes = (
(299,427,o),
(382,865,o),
(459,1249,c),
(504,1252,o),
(586,1256,o),
(625,1256,cs),
(906,1256,o),
(989,1063,o),
(989,783,cs),
(989,429,o),
(804,93,o),
(239,53,c)
);
}
);
width = 1198;
},
{
anchors = (
{
name = bottom;
pos = (456.585,0);
},
{
name = center;
pos = (354,646);
},
{
name = top;
pos = (716,1291);
}
);
layerId = "63DB0068-8B02-4205-807F-6F2453D24B26";
shapes = (
{
closed = 1;
nodes = (
(809,-34,o),
(1208,157,o),
(1208,836,cs),
(1208,1126,o),
(1065,1325,o),
(642,1325,cs),
(495,1325,o),
(349,1310,o),
(256,1299,c),
(227,1152,o),
(35,178,o),
(4,-34,c)
);
},
{
closed = 1;
nodes = (
(536,565,o),
(575,773,o),
(612,978,c),
(625,979,o),
(651,979,o),
(671,979,cs),
(768,979,o),
(798,903,o),
(798,808,cs),
(798,568,o),
(703,381,o),
(490,381,c)
);
}
);
width = 1198;
}
);
unicode = 68;
},
{
glyphname = Eth;
kernLeft = H;
kernRight = O;
lastChange = "2020-06-18 20:02:25 +0000";
layers = (
{
layerId = "82219AB4-7C60-4B3A-9196-329BE868CB10";
shapes = (
{
closed = 1;
nodes = (
(650,663,o),
(657,698,o),
(658,707,c),
(539,707,o),
(194,670,o),
(134,655,c),
(128,644,o),
(116,610,o),
(112,592,c),
(260,611,o),
(499,632,o),
(641,632,c)
);
},
{
ref = D;
}
);
width = 1198;
},
{
layerId = "63DB0068-8B02-4205-807F-6F2453D24B26";
shapes = (
{
closed = 1;
nodes = (
(649,644,o),
(668,736,o),
(672,768,c),
(552,768,o),
(204,740,o),
(60,710,c),
(43,648,o),
(33,589,o),
(23,525,c),
(210,543,o),
(521,553,o),
(625,553,c)
);
},
{
ref = D;
}
);
width = 1198;
}
);
unicode = 208;
},
{
glyphname = E;
kernLeft = H;
kernRight = E;
lastChange = "2023-07-07 16:45:24 +0000";
layers = (
{
anchors = (
{
name = bottom;
pos = (336.585,0);
},
{
name = ogonek;
pos = (581,0);
},
{
name = top;
pos = (683,1311);
},
{
name = topleft;
pos = (223.507,1291);
}
);
layerId = "82219AB4-7C60-4B3A-9196-329BE868CB10";
shapes = (
{
closed = 1;
nodes = (
(703,9,o),
(717,39,o),
(727,67,c),
(652,73,o),
(468,80,o),
(309,80,cs),
(256,80,o),
(169,79,o),
(128,77,c),
(167,223,o),
(278,636,o),
(293,690,c),
(379,693,o),
(719,694,o),
(769,694,c),
(781,772,l),
(689,772,o),
(386,760,o),
(312,757,c),
(335,842,o),
(410,1109,o),
(438,1197,c),
(1042,1244,l),
(1052,1271,o),
(1057,1284,o),
(1066,1318,c),
(1011,1318,o),
(719,1299,o),
(367,1251,c),
(342,1179,o),
(275,946,o),
(177,580,cs),
(128,398,o),
(77,197,o),
(32,2,c),
(96,4,o),
(178,5,o),
(241,5,cs),
(401,5,o),
(539,0,o),
(693,-9,c)
);
}
);
width = 957;
},
{
anchors = (
{
name = bottom;
pos = (337,0);
},
{
name = ogonek;
pos = (599,0);
},
{
name = top;
pos = (683,1321);
},
{
name = topleft;
pos = (224,1291);
}
);
layerId = "63DB0068-8B02-4205-807F-6F2453D24B26";
shapes = (
{
closed = 1;
nodes = (
(707,22,o),
(799,267,o),
(835,400,c),
(787,404,o),
(709,410,o),
(627,410,cs),
(539,410,o),
(448,410,o),
(438,410,c),
(444,432,o),
(473,530,o),
(482,557,c),
(517,557,o),
(684,543,o),
(728,540,c),
(820,860,l),
(733,858,o),
(650,855,o),
(571,855,c),
(576,874,o),
(599,961,o),
(607,978,c),
(988,1009,l),
(1029,1123,o),
(1064,1226,o),
(1092,1330,c),
(1037,1330,o),
(701,1328,o),
(291,1251,c),
(260,1153,o),
(196,945,o),
(122,670,cs),
(72,483,o),
(18,266,o),
(-36,31,c),
(84,23,o),
(205,15,o),
(325,8,cs),
(445,1,o),
(565,-7,o),
(685,-15,c)
);
}
);
width = 957;
}
);
unicode = 69;
},
{
glyphname = Ecedillabreve;
lastChange = "2020-07-08 20:03:04 +0000";
layers = (
{
layerId = "82219AB4-7C60-4B3A-9196-329BE868CB10";
shapes = (
{
closed = 1;
nodes = (
(485,-462,o),
(638,-400,o),
(638,-227,cs),
(638,-134,o),
(573,-87,o),
(477,-87,cs),
(429,-87,o),
(364,-106,o),
(345,-119,c),
(386,39,l),
(314,43,l),
(247,-212,l),
(290,-194,o),
(392,-159,o),
(450,-159,cs),
(522,-159,o),
(548,-189,o),
(548,-242,cs),
(548,-362,o),
(438,-392,o),
(292,-392,cs),
(241,-392,o),
(167,-374,o),
(129,-364,c),
(102,-437,l),
(121,-444,o),
(184,-462,o),
(288,-462,cs)
);
},
{
ref = E;
},
{
pos = (37,20);
ref = brevecomb.case;
}
);
width = 957;
},
{
layerId = "63DB0068-8B02-4205-807F-6F2453D24B26";
shapes = (
{
closed = 1;
nodes = (
(471,-537,o),
(724,-453,o),
(724,-231,cs),
(724,-124,o),
(660,-77,o),
(564,-77,cs),
(494,-77,o),
(435,-105,o),
(407,-139,c),
(452,39,l),
(232,27,l),
(141,-257,l),
(178,-244,o),
(262,-229,o),
(339,-229,cs),
(404,-229,o),
(455,-239,o),
(455,-272,cs),
(455,-315,o),
(386,-337,o),
(264,-337,cs),
(231,-337,o),
(149,-325,o),
(121,-312,c),
(32,-515,l),
(52,-520,o),
(132,-537,o),
(237,-537,cs)
);
},
{
ref = E;
},
{
pos = (46,30);
ref = brevecomb.case;
}
);
width = 957;
}
);
unicode = 7708;
},
{
glyphname = Eogonek;
lastChange = "2020-07-21 16:08:09 +0000";
layers = (
{
layerId = "82219AB4-7C60-4B3A-9196-329BE868CB10";
shapes = (
{
closed = 1;
nodes = (
(741,-412,o),
(692,-432,o),
(598,-432,cs),
(508,-432,o),
(451,-401,o),
(451,-299,cs),
(451,-186,o),
(581,-52,o),
(693,-9,c),
(628,36,l),
(489,-23,o),
(365,-163,o),
(365,-306,cs),
(365,-435,o),
(445,-512,o),
(582,-512,cs),
(686,-512,o),
(758,-490,o),
(814,-466,c),
(814,-379,l)
);
},
{
ref = E;
}
);
width = 957;
},
{
layerId = "63DB0068-8B02-4205-807F-6F2453D24B26";
shapes = (
{
closed = 1;
nodes = (
(630,-277,o),
(585,-286,o),
(542,-286,cs),
(489,-286,o),
(435,-262,o),
(435,-190,cs),
(435,-110,o),
(510,-26,o),
(555,5,c),
(419,63,l),
(354,44,o),
(172,-107,o),
(172,-279,cs),
(172,-446,o),
(316,-531,o),
(474,-531,cs),
(578,-531,o),
(640,-518,o),
(669,-506,c),
(669,-249,l)
);
},
{
ref = E;
}
);
width = 957;
}
);
unicode = 280;
},
{
glyphname = Schwa;
kernLeft = O;
kernRight = O;
lastChange = "2020-06-17 20:23:41 +0000";
layers = (
{
layerId = "82219AB4-7C60-4B3A-9196-329BE868CB10";
shapes = (
{
closed = 1;
nodes = (
(269,987,o),
(319,950,o),
(328,944,c),
(343,962,o),
(576,1241,o),
(899,1241,cs),
(1125,1241,o),
(1250,1091,o),
(1250,881,cs),
(1250,830,o),
(1244,774,o),
(1229,712,c),
(1039,705,o),
(829,696,o),
(629,687,cs),
(444,679,o),
(242,673,o),
(218,673,c),
(194,582,o),
(177,485,o),
(177,395,cs),
(177,143,o),
(310,-23,o),
(571,-23,cs),
(1019,-23,o),
(1337,424,o),
(1337,890,cs),
(1337,1151,o),
(1200,1316,o),
(906,1316,cs),
(563,1316,o),
(330,1076,o),
(262,999,c)
);
},
{
closed = 1;
nodes = (
(1110,281,o),
(856,57,o),
(574,57,cs),
(343,57,o),
(271,218,o),
(271,396,cs),
(271,448,o),
(282,541,o),
(295,586,c),
(328,589,o),
(427,596,o),
(571,603,cs),
(804,614,o),
(1053,623,o),
(1211,628,c)
);
}
);
width = 1447;
},
{
layerId = "63DB0068-8B02-4205-807F-6F2453D24B26";
shapes = (
{
closed = 1;
nodes = (
(235,1043,o),
(369,915,o),
(386,899,c),
(523,991,o),
(668,1009,o),
(731,1009,cs),
(879,1009,o),
(961,927,o),
(961,783,cs),
(961,762,o),
(958,741,o),
(952,720,c),
(889,714,o),
(667,700,o),
(536,692,cs),
(420,685,o),
(132,665,o),
(89,662,c),
(49,575,o),
(22,465,o),
(22,373,cs),
(22,108,o),
(229,-26,o),
(477,-26,cs),
(960,-26,o),
(1308,360,o),
(1308,846,cs),
(1308,1169,o),
(1077,1329,o),
(819,1329,cs),
(595,1329,o),
(349,1248,o),
(195,1120,c)
);
},
{
closed = 1;
nodes = (
(832,355,o),
(670,278,o),
(546,278,cs),
(456,278,o),
(404,330,o),
(404,396,cs),
(404,405,o),
(405,415,o),
(407,424,c),
(426,424,o),
(537,431,o),
(595,435,cs),
(700,442,o),
(815,456,o),
(863,462,c)
);
}
);
width = 1280;
}
);
metricLeft = O;
metricRight = O;
unicode = 399;
},
{
glyphname = F;
kernLeft = H;
kernRight = F;
lastChange = "2020-06-10 19:18:57 +0000";
layers = (
{
anchors = (
{
name = bottom;
pos = (332.585,0);
},
{
name = top;
pos = (678.507,1291);
}
);
layerId = "82219AB4-7C60-4B3A-9196-329BE868CB10";
shapes = (
{
closed = 1;
nodes = (
(236,200,o),
(300,482,o),
(336,658,c),
(468,658,o),
(686,648,o),
(814,634,c),
(818,645,o),
(830,679,o),
(836,701,c),
(820,703,o),
(634,725,o),
(353,725,c),
(388,880,o),
(441,1116,o),
(460,1221,c),
(771,1221,o),
(938,1205,o),
(1011,1195,c),
(1016,1215,o),
(1026,1257,o),
(1028,1280,c),
(922,1292,o),
(843,1299,o),
(728,1303,cs),
(643,1306,o),
(536,1307,o),
(387,1307,c),
(312,922,o),
(199,411,o),
(87,-12,c),
(175,-26,l)
);
}
);
width = 949;
},
{
anchors = (
{
name = bottom;
pos = (313,0);
},
{
name = top;
pos = (659,1291);
}
);
layerId = "63DB0068-8B02-4205-807F-6F2453D24B26";
shapes = (
{
closed = 1;
nodes = (
(449,151,o),
(485,355,o),
(513,517,c),
(615,517,o),
(723,506,o),
(792,498,c),
(834,609,o),
(866,722,o),
(887,819,c),
(826,831,o),
(663,848,o),
(572,848,c),
(579,885,o),
(587,932,o),
(591,962,c),
(749,962,o),
(944,948,o),
(1019,942,c),
(1043,1030,o),
(1072,1162,o),
(1095,1280,c),
(1018,1299,o),
(885,1314,o),
(723,1314,cs),
(589,1314,o),
(437,1312,o),
(290,1301,c),
(193,875,o),
(93,448,o),
(-13,17,c),
(409,0,l)
);
}
);
width = 949;
}
);
unicode = 70;
},
{
glyphname = G;
kernLeft = O;
kernRight = G;
lastChange = "2020-06-10 19:34:16 +0000";
layers = (
{
anchors = (
{
name = bottom;
pos = (495.585,0);
},
{
name = top;
pos = (841.507,1291);
}
);
layerId = "82219AB4-7C60-4B3A-9196-329BE868CB10";
shapes = (
{
closed = 1;
nodes = (
(936,-48,o),
(1101,158,o),
(1187,483,cs),
(1202,540,o),
(1214,599,o),
(1224,662,c),
(1050,698,o),
(773,723,o),
(618,733,c),
(611,710,o),
(604,672,o),
(602,654,c),
(736,646,o),
(1045,601,o),
(1115,588,c),
(1109,559,o),
(1100,520,o),
(1092,491,cs),
(1027,255,o),
(911,36,o),
(603,36,cs),
(319,36,o),
(203,170,o),
(203,420,cs),
(203,819,o),
(440,1258,o),
(845,1258,cs),
(1008,1258,o),
(1106,1230,o),
(1174,1050,c),
(1194,1062,o),
(1230,1094,o),
(1244,1110,c),
(1223,1194,o),
(1114,1338,o),
(856,1338,cs),
(388,1338,o),
(108,890,o),
(108,406,cs),
(108,120,o),
(279,-48,o),
(594,-48,cs)
);
}
);
width = 1275;
},
{
anchors = (
{
name = bottom;
pos = (495.585,0);
},
{
name = top;
pos = (841.507,1291);
}
);
layerId = "63DB0068-8B02-4205-807F-6F2453D24B26";
shapes = (
{
closed = 1;
nodes = (
(942,-48,o),
(1145,209,o),
(1220,488,cs),
(1233,537,o),
(1244,608,o),
(1244,652,c),
(1118,691,o),
(866,726,o),
(731,726,c),
(705,662,o),
(659,514,o),
(641,447,c),
(685,447,o),
(794,434,o),
(828,423,c),
(827,415,o),
(826,407,o),
(823,393,cs),
(810,340,o),
(725,299,o),
(659,299,cs),
(545,299,o),
(509,379,o),
(509,491,cs),
(509,706,o),
(624,954,o),
(800,954,cs),
(909,954,o),
(946,884,o),
(960,855,c),
(1098,927,o),
(1277,1063,o),
(1336,1115,c),
(1266,1270,o),
(1047,1338,o),
(865,1338,cs),
(408,1338,o),
(112,922,o),
(112,447,cs),
(112,135,o),
(284,-48,o),
(601,-48,cs)
);
}
);
width = 1275;
}
);
unicode = 71;
},
{
glyphname = H;
kernLeft = H;
kernRight = H;
lastChange = "2020-07-21 16:15:08 +0000";
layers = (
{
anchors = (
{
name = bottom;
pos = (465,0);
},
{
name = center;
pos = (721,1063);
},
{
name = top;
pos = (721,1291);
},
{
name = topleft;
pos = (223.507,1291);
}
);
layerId = "82219AB4-7C60-4B3A-9196-329BE868CB10";
shapes = (
{
closed = 1;
nodes = (
(122,-2,o),
(171,2,o),
(184,4,c),
(187,25,o),
(264,395,o),
(318,641,c),
(391,641,o),
(770,651,o),
(840,653,c),
(794,496,o),
(721,227,o),
(668,-2,c),
(688,-2,o),
(732,-1,o),
(756,2,c),
(766,53,o),
(784,144,o),
(811,242,cs),
(904,581,o),
(1064,1116,o),
(1139,1299,c),
(1125,1303,o),
(1089,1305,o),
(1065,1305,cs),
(1056,1305,o),
(1049,1305,o),
(1045,1304,c),
(989,1152,o),
(909,888,o),
(867,745,c),
(781,742,o),
(411,726,o),
(335,718,c),
(341,744,o),
(371,870,o),
(410,1013,cs),
(436,1109,o),
(465,1211,o),
(492,1289,c),
(467,1289,o),
(420,1285,o),
(395,1282,c),
(379,1239,o),
(360,1171,o),
(338,1088,cs),
(248,747,o),
(111,149,o),
(85,-2,c)
);
}
);
width = 1094;
},
{
anchors = (
{
name = bottom;
pos = (404.585,0);
},
{
name = center;
pos = (711,1063);
},
{
name = top;
pos = (750.507,1291);
},
{
name = topleft;
pos = (223.507,1291);
}
);
layerId = "63DB0068-8B02-4205-807F-6F2453D24B26";
shapes = (
{
closed = 1;
nodes = (
(55,5,o),
(291,12,o),
(373,22,c),
(381,53,o),
(442,311,o),
(478,468,c),
(536,468,o),
(569,468,o),
(638,470,c),
(594,321,o),
(560,195,o),
(512,2,c),
(655,2,o),
(820,7,o),
(874,12,c),
(909,139,o),
(982,386,o),
(1060,640,cs),
(1152,939,o),
(1248,1234,o),
(1276,1299,c),
(1230,1304,o),
(1124,1309,o),
(1021,1309,cs),
(968,1309,o),
(906,1306,o),
(875,1304,c),
(830,1142,o),
(775,956,o),
(731,812,c),
(679,812,o),
(628,810,o),
(553,802,c),
(565,850,o),
(594,973,o),
(614,1060,cs),
(631,1133,o),
(655,1239,o),
(663,1297,c),
(565,1297,o),
(311,1285,o),
(284,1282,c),
(266,1228,o),
(242,1148,o),
(217,1052,cs),
(125,699,o),
(-3,147,o),
(-23,5,c)
);
}
);
width = 1094;
}
);
unicode = 72;
},
{
glyphname = Hbar;
kernLeft = H;
kernRight = H;
lastChange = "2020-07-16 19:48:58 +0000";
layers = (
{
layerId = "82219AB4-7C60-4B3A-9196-329BE868CB10";
shapes = (
{
closed = 1;
nodes = (
(1181,1013,o),
(1190,1051,o),
(1190,1058,c),
(996,1058,o),
(290,1045,o),
(196,1037,c),
(185,1028,o),
(173,1001,o),
(169,987,c),
(403,992,o),
(944,999,o),
(1174,999,c)
);
},
{
ref = H;
}
);
width = 1094;
},
{
layerId = "63DB0068-8B02-4205-807F-6F2453D24B26";
shapes = (
{
closed = 1;
nodes = (
(1252,1023,o),
(1285,1154,o),
(1293,1188,c),
(1101,1188,o),
(376,1179,o),
(193,1136,c),
(169,1072,o),
(149,994,o),
(132,919,c),
(439,933,o),
(1051,939,o),
(1217,939,c)
);
},
{
ref = H;
}
);
width = 1094;
}
);
unicode = 294;
},
{
glyphname = I;
lastChange = "2020-06-18 18:46:33 +0000";
layers = (
{
anchors = (
{
name = bottom;
pos = (102,0);
},
{
name = ogonek;
pos = (138,0);
},
{
name = top;
pos = (448,1291);
},
{
name = topleft;
pos = (224,1291);
}
);
layerId = "82219AB4-7C60-4B3A-9196-329BE868CB10";
shapes = (
{
closed = 1;
nodes = (
(150,46,o),
(264,472,o),
(294,583,cs),
(340,755,o),
(412,1043,o),
(480,1320,c),
(457,1320,o),
(419,1319,o),
(405,1317,c),
(331,1049,o),
(268,815,o),
(224,649,cs),
(175,463,o),
(97,165,o),
(59,4,c),
(71,2,o),
(126,0,o),
(138,0,c)
);
}
);
width = 487;
},
{
anchors = (
{
name = bottom;
pos = (147,0);
},
{
name = ogonek;
pos = (322,-24);
},
{
name = top;
pos = (493,1291);
},
{
name = topleft;
pos = (238,1291);
}
);
layerId = "63DB0068-8B02-4205-807F-6F2453D24B26";
shapes = (
{
closed = 1;
nodes = (
(374,94,o),
(439,312,o),
(502,548,cs),
(575,823,o),
(648,1128,o),
(689,1323,c),
(591,1323,o),
(365,1317,o),
(310,1315,c),
(234,1057,o),
(163,808,o),
(102,580,cs),
(44,363,o),
(-18,111,o),
(-46,-8,c),
(61,-23,o),
(221,-24,o),
(322,-24,c)
);
}
);
width = 588;
}
);
unicode = 73;
},
{
glyphname = I.ss01;
kernLeft = H;
kernRight = H;
lastChange = "2020-07-16 19:55:12 +0000";
layers = (
{
anchors = (
{
name = bottom;
pos = (277.585,0);
},
{
name = ogonek;
pos = (588,0);
},
{
name = top;
pos = (634,1301);
},
{
name = topleft;
pos = (223.507,1291);
}
);
layerId = "82219AB4-7C60-4B3A-9196-329BE868CB10";
shapes = (
{
closed = 1;
nodes = (
(438,-10,o),
(531,-9,o),
(581,-7,c),
(583,-3,o),
(591,13,o),
(598,29,cs),
(605,45,o),
(611,61,o),
(613,67,c),
(512,67,o),
(432,67,o),
(348,67,c),
(364,116,o),
(386,197,o),
(412,296,cs),
(468,505,o),
(612,1050,o),
(654,1226,c),
(715,1226,o),
(887,1217,o),
(941,1209,c),
(946,1227,o),
(951,1265,o),
(951,1279,c),
(887,1289,o),
(692,1301,o),
(511,1301,cs),
(439,1301,o),
(373,1301,o),
(295,1299,c),
(292,1295,o),
(286,1284,o),
(283,1269,cs),
(280,1256,o),
(277,1239,o),
(276,1221,c),
(304,1224,o),
(466,1224,o),
(566,1224,c),
(506,993,o),
(324,282,o),
(271,67,c),
(206,67,o),
(44,71,o),
(-1,74,c),
(-2,68,o),
(-6,55,o),
(-10,42,cs),
(-15,27,o),
(-19,10,o),
(-20,5,c),
(154,-9,o),
(240,-10,o),
(335,-10,cs)
);
}
);
width = 839;
},
{
anchors = (
{
name = bottom;
pos = (277.585,0);
},
{
name = ogonek;
pos = (555,-15);
},
{
name = top;
pos = (644,1321);
},
{
name = topleft;
pos = (223.507,1291);
}
);
layerId = "63DB0068-8B02-4205-807F-6F2453D24B26";
shapes = (
{
closed = 1;
nodes = (
(428,-17,o),
(555,-15,o),
(605,-14,c),
(637,57,o),
(663,143,o),
(681,207,cs),
(695,256,o),
(702,293,o),
(703,303,c),
(661,303,o),
(618,303,o),
(551,301,c),
(573,359,o),
(638,557,o),
(678,706,cs),
(702,796,o),
(755,993,o),
(761,1014,c),
(791,1012,o),
(849,1010,o),
(888,1010,c),
(930,1093,o),
(963,1214,o),
(980,1277,c),
(865,1291,o),
(703,1308,o),
(565,1308,cs),
(493,1308,o),
(359,1306,o),
(281,1304,c),
(280,1296,o),
(275,1276,o),
(267,1247,cs),
(251,1190,o),
(227,1101,o),
(204,1015,c),
(284,1015,o),
(312,1015,o),
(353,1017,c),
(294,798,o),
(214,490,o),
(164,297,c),
(82,299,o),
(82,299,o),
(37,304,c),
(15,243,o),
(-1,191,o),
(-19,123,cs),
(-31,78,o),
(-42,36,o),
(-50,2,c),
(133,-14,o),
(229,-17,o),
(325,-17,cs)
);
}
);
width = 839;
}
);
},
{
glyphname = Iogonek;
lastChange = "2020-07-21 16:04:24 +0000";
layers = (
{
layerId = "82219AB4-7C60-4B3A-9196-329BE868CB10";
shapes = (
{
closed = 1;
nodes = (
(186,-403,o),
(137,-423,o),
(43,-423,cs),
(-47,-423,o),
(-104,-392,o),
(-104,-290,cs),
(-104,-177,o),
(26,-43,o),
(138,0,c),
(73,45,l),
(-66,-14,o),
(-190,-154,o),
(-190,-297,cs),
(-190,-426,o),
(-110,-503,o),
(27,-503,cs),
(131,-503,o),
(203,-481,o),
(259,-457,c),
(259,-370,l)
);
},
{
ref = I;
}
);
width = 487;
},
{
layerId = "63DB0068-8B02-4205-807F-6F2453D24B26";
shapes = (
{
closed = 1;
nodes = (
(257,-286,o),
(212,-295,o),
(169,-295,cs),
(116,-295,o),
(62,-271,o),
(62,-199,cs),
(62,-119,o),
(135,-35,o),
(182,-4,c),
(46,54,l),
(-19,35,o),
(-201,-116,o),
(-201,-288,cs),
(-201,-455,o),
(-57,-540,o),
(101,-540,cs),
(205,-540,o),
(267,-527,o),
(296,-515,c),
(296,-258,l)
);
},
{
ref = I;
}
);
width = 588;
}
);
unicode = 302;
},
{
glyphname = Iogonek.ss01;
lastChange = "2020-07-21 15:59:31 +0000";
layers = (
{
layerId = "82219AB4-7C60-4B3A-9196-329BE868CB10";
shapes = (
{
closed = 1;
nodes = (
(425,-393,o),
(376,-413,o),
(282,-413,cs),
(192,-413,o),
(135,-382,o),
(135,-280,cs),
(135,-167,o),
(265,-33,o),
(377,10,c),
(312,55,l),
(173,-4,o),
(49,-144,o),
(49,-287,cs),
(49,-416,o),
(129,-493,o),
(266,-493,cs),
(370,-493,o),
(442,-471,o),
(498,-447,c),
(498,-360,l)
);
},
{
ref = I.ss01;
}
);
width = 839;
},
{
layerId = "63DB0068-8B02-4205-807F-6F2453D24B26";
shapes = (
{
closed = 1;
nodes = (
(502,-272,o),
(457,-281,o),
(414,-281,cs),
(361,-281,o),
(307,-257,o),
(307,-185,cs),
(307,-105,o),
(382,-21,o),
(427,10,c),
(291,68,l),
(226,49,o),
(44,-102,o),
(44,-274,cs),
(44,-441,o),
(188,-526,o),
(346,-526,cs),
(450,-526,o),
(512,-513,o),
(541,-501,c),
(541,-244,l)
);
},
{
ref = I.ss01;
}
);
width = 839;
}
);
},
{
glyphname = J;
kernLeft = J;
kernRight = J;
lastChange = "2020-07-24 10:06:37 +0000";
layers = (
{
anchors = (
{
name = bottom;
pos = (446.585,0);
},
{
name = top;
pos = (1095,1291);
}
);
layerId = "82219AB4-7C60-4B3A-9196-329BE868CB10";
shapes = (
{
closed = 1;
nodes = (
(194,-19,o),
(452,-19,cs),
(749,-19,o),
(923,247,o),
(1014,585,cs),
(1069,790,o),
(1133,1149,o),
(1161,1315,c),
(1153,1316,o),
(1133,1318,o),
(1115,1318,cs),
(1096,1318,o),
(1077,1316,o),
(1065,1313,c),
(1063,1291,o),
(969,762,o),
(914,556,cs),
(839,277,o),
(691,63,o),
(460,63,cs),
(228,63,o),
(170,253,o),
(170,448,c),
(138,436,o),
(98,419,o),
(71,405,c),
(82,176,o)
);
}
);
width = 1178;
},
{
anchors = (
{
name = bottom;
pos = (446.585,0);
},
{
name = top;
pos = (1052,1291);
}
);
layerId = "63DB0068-8B02-4205-807F-6F2453D24B26";
shapes = (
{
closed = 1;
nodes = (
(187,-19,o),
(470,-19,cs),
(788,-19,o),
(1007,114,o),
(1131,614,cs),
(1172,780,o),
(1246,1100,o),
(1278,1277,c),
(1219,1285,o),
(1165,1287,o),
(1091,1287,cs),
(1022,1287,o),
(932,1278,o),
(863,1265,c),
(860,1243,o),
(788,860,o),
(733,653,cs),
(677,443,o),
(634,364,o),
(555,364,cs),
(488,364,o),
(425,450,o),
(425,581,c),
(327,548,o),
(75,443,o),
(7,400,c),
(7,128,o)
);
}
);
width = 1178;
}
);
unicode = 74;
},
{
glyphname = K;
kernLeft = H;
kernRight = K;
lastChange = "2020-06-18 14:23:57 +0000";
layers = (
{
anchors = (
{
name = bottom;
pos = (415.585,0);
},
{
name = top;
pos = (761.507,1291);
}
);
layerId = "82219AB4-7C60-4B3A-9196-329BE868CB10";
shapes = (
{
closed = 1;
nodes = (
(130,-32,o),
(172,-27,o),
(192,-24,c),
(197,-3,o),
(286,381,o),
(337,621,c),
(358,631,o),
(417,663,o),
(443,680,c),
(627,426,o),
(745,19,o),
(749,2,c),
(770,10,o),
(814,30,o),
(837,46,c),
(818,119,o),
(664,537,o),
(516,723,c),
(865,937,o),
(1103,1150,o),
(1179,1224,c),
(1166,1231,o),
(1130,1257,o),
(1118,1272,c),
(912,1047,o),
(555,833,o),
(354,718,c),
(405,962,o),
(461,1239,o),
(470,1297,c),
(463,1299,o),
(449,1300,o),
(435,1300,cs),
(418,1300,o),
(400,1299,o),
(391,1296,c),
(350,1092,o),
(172,276,o),
(101,-32,c)
);
}
);
width = 1061;
},
{
anchors = (
{
name = bottom;
pos = (415.585,0);
},
{
name = top;
pos = (761.507,1291);
}
);
layerId = "63DB0068-8B02-4205-807F-6F2453D24B26";
shapes = (
{
closed = 1;
nodes = (
(118,-12,o),
(324,8,o),
(368,10,c),
(381,56,o),
(422,272,o),
(447,409,c),
(469,417,o),
(493,426,o),
(519,443,c),
(551,355,o),
(608,102,o),
(623,-5,c),
(746,31,o),
(946,121,o),
(1019,162,c),
(1010,236,o),
(919,467,o),
(815,654,c),
(962,767,o),
(1189,1043,o),
(1234,1118,c),
(1188,1146,o),
(1056,1235,o),
(950,1326,c),
(780,1097,o),
(624,892,o),
(529,809,c),
(562,962,o),
(628,1226,o),
(646,1297,c),
(609,1304,o),
(537,1311,o),
(457,1311,cs),
(393,1311,o),
(309,1306,o),
(248,1296,c),
(172,937,o),
(15,240,o),
(-58,-32,c)
);
}
);
width = 1115;
}
);
unicode = 75;
},
{
glyphname = L;
kernLeft = H;
kernRight = L;
lastChange = "2020-07-21 16:20:05 +0000";
layers = (
{
anchors = (
{
name = bottom;
pos = (338.585,0);
},
{
name = center;
pos = (511.68,646);
},
{
name = top;
pos = (458,1296);
},
{
name = topright;
pos = (585,907);
}
);
layerId = "82219AB4-7C60-4B3A-9196-329BE868CB10";
shapes = (
{
closed = 1;
nodes = (
(175,2,o),
(271,4,o),
(378,9,cs),
(477,14,o),
(585,20,o),
(727,31,c),
(737,51,o),
(749,80,o),
(757,106,c),
(569,106,o),
(305,92,o),
(183,85,c),
(197,130,o),
(223,225,o),
(256,347,cs),
(332,628,o),
(442,1049,o),
(491,1292,c),
(485,1293,o),
(458,1296,o),
(438,1296,cs),
(430,1296,o),
(418,1295,o),
(411,1294,c),
(378,1152,o),
(308,884,o),
(238,624,cs),
(168,364,o),
(97,112,o),
(63,2,c)
);
}
);
width = 961;
},
{
anchors = (
{
name = bottom;
pos = (338.585,0);
},
{
name = center;
pos = (511.68,646);
},
{
name = top;
pos = (518,1300);
},
{
name = topright;
pos = (701,911);
}
);
layerId = "63DB0068-8B02-4205-807F-6F2453D24B26";
shapes = (
{
closed = 1;
nodes = (
(24,20,o),
(154,13,o),
(281,13,cs),
(444,13,o),
(635,24,o),
(808,48,c),
(840,166,o),
(888,379,o),
(892,439,c),
(745,439,o),
(632,436,o),
(460,426,c),
(483,488,o),
(506,553,o),
(527,617,cs),
(627,921,o),
(709,1189,o),
(736,1292,c),
(712,1297,o),
(628,1300,o),
(577,1300,cs),
(461,1300,o),
(338,1289,o),
(288,1282,c),
(257,1150,o),
(188,882,o),
(122,633,cs),
(56,383,o),
(-19,141,o),
(-56,31,c)
);
}
);
width = 961;
}
);
unicode = 76;
},
{
glyphname = Lslash;
kernLeft = H;
kernRight = L;
lastChange = "2020-07-16 19:53:11 +0000";
layers = (
{
layerId = "82219AB4-7C60-4B3A-9196-329BE868CB10";
shapes = (
{
closed = 1;
nodes = (
(366,513,o),
(554,644,o),
(796,821,c),
(796,838,o),
(771,876,o),
(759,892,c),
(576,742,o),
(391,611,o),
(113,465,c),
(115,454,o),
(141,414,o),
(149,402,c)
);
},
{
alignment = -1;
pos = (161,0);
ref = L;
}
);
width = 1121;
},
{
layerId = "63DB0068-8B02-4205-807F-6F2453D24B26";
shapes = (
{
closed = 1;
nodes = (
(295,460,o),
(597,568,o),
(1061,828,c),
(1061,875,o),
(1055,1044,o),
(1044,1116,c),
(840,1023,o),
(311,782,o),
(73,688,c),
(73,628,o),
(60,456,o),
(56,409,c)
);
},
{
alignment = -1;
pos = (161,0);
ref = L;
}
);
width = 1121;
}
);
unicode = 321;
},
{
glyphname = M;
kernLeft = M;
kernRight = M;
lastChange = "2023-07-10 13:06:42 +0000";
layers = (
{
anchors = (
{
name = bottom;
pos = (531,0);
},
{
name = top;
pos = (877,1291);
}
);
layerId = "82219AB4-7C60-4B3A-9196-329BE868CB10";
shapes = (
{
closed = 1;
nodes = (
(51,-22,o),
(94,-19,o),
(116,-17,c),
(144,87,o),
(339,807,o),
(435,1156,c),
(449,954,o),
(485,42,o),
(485,25,c),
(501,21,o),
(552,17,o),
(578,17,c),
(648,98,o),
(1159,916,o),
(1278,1145,c),
(1255,1049,o),
(1190,786,o),
(1138,593,cs),
(1082,384,o),
(1021,174,o),
(956,-5,c),
(981,-8,o),
(1019,-10,o),
(1046,-10,c),
(1087,109,o),
(1165,393,o),
(1231,640,cs),
(1297,887,o),
(1355,1129,o),
(1364,1260,c),
(1347,1262,o),
(1283,1267,o),
(1255,1267,c),
(1156,1067,o),
(675,293,o),
(548,86,c),
(566,290,o),
(507,1245,o),
(505,1262,c),
(491,1262,o),
(426,1261,o),
(388,1256,c),
(347,1121,o),
(125,368,o),
(20,-22,c)
);
}
);
width = 1379;
},
{
anchors = (
{
name = bottom;
pos = (594,0);
},
{
name = top;
pos = (940,1291);
}
);
layerId = "63DB0068-8B02-4205-807F-6F2453D24B26";
shapes = (
{
closed = 1;
nodes = (
(69,7,o),
(239,9,o),
(329,12,c),
(335,32,o),
(430,399,o),
(509,707,c),
(506,552,o),
(488,171,o),
(482,94,c),
(519,83,o),
(636,72,o),
(721,76,c),
(776,156,o),
(994,475,o),
(1066,606,c),
(1049,555,o),
(1013,443,o),
(977,329,cs),
(938,206,o),
(898,80,o),
(879,24,c),
(950,19,o),
(1118,9,o),
(1240,9,c),
(1300,178,o),
(1393,466,o),
(1462,725,cs),
(1516,926,o),
(1556,1114,o),
(1561,1231,c),
(1453,1250,o),
(1227,1255,o),
(1124,1255,c),
(1075,1153,o),
(877,781,o),
(775,601,c),
(779,788,o),
(784,1208,o),
(784,1262,c),
(771,1262,o),
(461,1260,o),
(297,1244,c),
(158,811,o),
(-3,222,o),
(-60,7,c)
);
}
);
width = 1492;
}
);
unicode = 77;
},
{
glyphname = M.ss02;
kernLeft = M;
kernRight = M;
lastChange = "2023-07-07 17:04:22 +0000";
layers = (
{
anchors = (
{
name = bottom;
pos = (672,0);
},
{
name = top;
pos = (1012,1291);
}
);
layerId = "63DB0068-8B02-4205-807F-6F2453D24B26";
shapes = (
{
closed = 1;
nodes = (
(-4,21,o),
(298,-11,o),
(348,-8,c),
(353,12,o),
(453,319,o),
(562,627,c),
(590,591,o),
(681,336,o),
(700,274,c),
(758,344,o),
(917,522,o),
(993,591,c),
(982,498,o),
(918,78,o),
(895,-6,c),
(966,-11,o),
(1191,10,o),
(1291,34,c),
(1420,666,o),
(1382,1238,o),
(1345,1334,c),
(1243,1266,o),
(981,993,o),
(875,870,c),
(839,1000,o),
(679,1283,o),
(588,1351,c),
(490,1240,o),
(190,687,o),
(-58,37,c)
);
}
);
width = 1492;
},
{
anchors = (
{
name = bottom;
pos = (549,0);
},
{
name = top;
pos = (850,1291);
}
);
layerId = "82219AB4-7C60-4B3A-9196-329BE868CB10";
shapes = (
{
closed = 1;
nodes = (
(-1,-19,o),
(44,-19,o),
(65,-17,c),
(201,452,o),
(393,915,o),
(445,1060,c),
(489,898,o),
(561,338,o),
(586,241,c),
(646,319,o),
(1129,974,o),
(1212,1083,c),
(1175,828,o),
(1110,471,o),
(1005,-5,c),
(1032,-3,o),
(1071,3,o),
(1100,10,c),
(1236,575,o),
(1341,1191,o),
(1325,1342,c),
(1172,1180,o),
(749,606,o),
(638,420,c),
(626,575,o),
(537,1252,o),
(488,1342,c),
(435,1267,o),
(77,378,o),
(-28,-12,c)
);
}
);
width = 1379;
}
);
},
{
glyphname = N;
kernLeft = H;
kernRight = H;
lastChange = "2020-06-10 19:41:00 +0000";
layers = (
{
anchors = (
{
name = bottom;
pos = (498.585,0);
},
{
name = top;
pos = (844.507,1291);
}
);
layerId = "82219AB4-7C60-4B3A-9196-329BE868CB10";
shapes = (
{
closed = 1;
nodes = (
(254,132,o),
(480,1029,o),
(509,1159,c),
(563,1000,o),
(827,132,o),
(866,-2,c),
(877,-3,o),
(887,-3,o),
(899,-3,cs),
(911,-3,o),
(925,-3,o),
(945,-2,c),
(954,20,o),
(973,86,o),
(997,178,cs),
(1072,466,o),
(1208,1010,o),
(1263,1246,c),
(1241,1256,o),
(1210,1265,o),
(1167,1265,c),
(910,145,l),
(835,412,o),
(691,916,o),
(555,1265,c),
(541,1269,o),
(488,1274,o),
(459,1274,c),
(450,1246,o),
(432,1179,o),
(409,1091,cs),
(319,747,o),
(143,74,o),
(124,-9,c),
(149,-9,o),
(200,-7,o),
(217,-5,c)
);
}
);
width = 1282;
},
{
anchors = (
{
name = bottom;
pos = (498.585,0);
},
{
name = top;
pos = (844.507,1291);
}
);
layerId = "63DB0068-8B02-4205-807F-6F2453D24B26";
shapes = (
{
closed = 1;
nodes = (
(420,121,o),
(514,533,o),
(528,637,c),
(615,360,o),
(666,103,o),
(683,14,c),
(731,5,o),
(811,2,o),
(891,2,cs),
(944,2,o),
(996,3,o),
(1040,5,c),
(1075,63,o),
(1190,418,o),
(1277,746,cs),
(1325,926,o),
(1366,1097,o),
(1381,1207,c),
(1322,1226,o),
(1094,1243,o),
(1003,1243,c),
(851,532,l),
(818,752,o),
(765,1016,o),
(677,1236,c),
(570,1253,o),
(355,1264,o),
(293,1264,c),
(263,1111,o),
(190,825,o),
(120,566,cs),
(45,287,o),
(-24,39,o),
(-31,21,c),
(42,11,o),
(230,-7,o),
(386,-7,c)
);
}
);
width = 1282;
}
);
unicode = 78;
},
{
glyphname = N.ss02;
kernLeft = H;
kernRight = H;
lastChange = "2023-07-07 17:04:24 +0000";
layers = (
{
anchors = (
{
name = bottom;
pos = (560,0);
},
{
name = top;
pos = (842,1291);
}
);
layerId = "63DB0068-8B02-4205-807F-6F2453D24B26";
shapes = (
{
closed = 1;
nodes = (
(381,121,o),
(481,474,o),
(510,578,c),
(570,488,o),
(934,62,o),
(1037,-25,c),
(1102,99,o),
(1258,631,o),
(1434,1287,c),
(1345,1287,o),
(1117,1251,o),
(1021,1233,c),
(907,690,l),
(768,896,o),
(488,1231,o),
(371,1324,c),
(268,1050,o),
(-29,172,o),
(-69,21,c),
(3,11,o),
(191,-7,o),
(347,-7,c)
);
}
);
width = 1282;
},
{
anchors = (
{
name = bottom;
pos = (469,0);
},
{
name = top;
pos = (792,1291);
}
);
layerId = "82219AB4-7C60-4B3A-9196-329BE868CB10";
shapes = (
{
closed = 1;
nodes = (
(143,132,o),
(378,912,o),
(422,1079,c),
(489,914,o),
(763,105,o),
(831,-2,c),
(875,107,o),
(1229,1173,o),
(1260,1286,c),
(1235,1286,o),
(1185,1280,o),
(1161,1275,c),
(829,217,l),
(758,418,o),
(535,1086,o),
(411,1314,c),
(377,1207,o),
(38,98,o),
(10,-9,c),
(35,-9,o),
(88,-7,o),
(106,-5,c)
);
}
);
width = 1282;
}
);
},
{
glyphname = Eng;
kernLeft = Eng;
kernRight = Eng;
lastChange = "2020-06-18 19:01:55 +0000";
layers = (
{
layerId = "82219AB4-7C60-4B3A-9196-329BE868CB10";
shapes = (
{
closed = 1;
nodes = (
(718,-349,o),
(889,-214,o),
(951,15,c),
(846,75,l),
(850,64,o),
(852,40,o),
(852,26,cs),
(852,-114,o),
(728,-279,o),
(575,-279,cs),
(459,-279,o),
(408,-212,o),
(390,-152,c),
(367,-162,o),
(340,-179,o),
(324,-190,c),
(354,-320,o),
(472,-349,o),
(576,-349,cs)
);
},
{
alignment = -1;
ref = N;
}
);
width = 1282;
},
{
layerId = "63DB0068-8B02-4205-807F-6F2453D24B26";
shapes = (
{
closed = 1;
nodes = (
(829,-419,o),
(977,-210,o),
(1074,91,c),
(672,79,l),
(678,52,o),
(683,16,o),
(683,-15,cs),
(683,-58,o),
(646,-83,o),
(598,-83,cs),
(561,-83,o),
(523,-51,o),
(505,0,c),
(352,-74,o),
(146,-178,o),
(129,-188,c),
(171,-338,o),
(286,-419,o),
(511,-419,cs)
);
},
{
alignment = -1;
ref = N;
}
);
width = 1282;
}
);
unicode = 330;
},
{
glyphname = O;
kernLeft = O;
kernRight = O;
lastChange = "2020-06-18 18:46:52 +0000";
layers = (
{
anchors = (
{
name = bottom;
pos = (534.585,0);
},
{
name = center;
pos = (652,646);
},
{
name = ogonek;
pos = (764,0);
},
{
name = top;
pos = (880.507,1291);
},
{
name = topleft;
pos = (223.507,1291);
},
{
name = topright;
pos = (1165,1173);
}
);
layerId = "82219AB4-7C60-4B3A-9196-329BE868CB10";
shapes = (
{
closed = 1;
nodes = (
(961,-51,o),
(1227,377,o),
(1227,852,cs),
(1227,1095,o),
(1141,1320,o),
(864,1320,cs),
(409,1320,o),
(144,876,o),
(144,388,cs),
(144,132,o),
(253,-51,o),
(529,-51,cs)
);
},
{
closed = 1;
nodes = (
(315,27,o),
(231,183,o),
(231,394,cs),
(231,834,o),
(452,1239,o),
(856,1239,cs),
(1078,1239,o),
(1146,1048,o),
(1146,847,cs),
(1146,416,o),
(916,27,o),
(525,27,cs)
);
}
);
width = 1354;
},
{
anchors = (
{
name = bottom;
pos = (534.585,0);
},
{
name = center;
pos = (661,646);
},
{
name = ogonek;
pos = (895,0);
},
{
name = top;
pos = (880.507,1291);
},
{
name = topleft;
pos = (223.507,1291);
},
{
name = topright;
pos = (1198,1190);
}
);
layerId = "63DB0068-8B02-4205-807F-6F2453D24B26";
shapes = (
{
closed = 1;
nodes = (
(1122,-51,o),
(1352,266,o),
(1352,797,cs),
(1352,1107,o),
(1212,1320,o),
(822,1320,cs),
(341,1320,o),
(64,991,o),
(64,459,cs),
(64,165,o),
(234,-51,o),
(594,-51,cs)
);
},
{
closed = 1;
nodes = (
(518,350,o),
(469,469,o),
(469,578,cs),
(469,817,o),
(578,995,o),
(799,995,cs),
(946,995,o),
(983,874,o),
(983,758,cs),
(983,513,o),
(886,350,o),
(659,350,cs)
);
}
);
width = 1354;
}
);
unicode = 79;
},
{
glyphname = Ohorn;
kernLeft = O;
kernRight = O;
lastChange = "2020-07-16 19:47:21 +0000";
layers = (
{
anchors = (
{
name = bottom;
pos = (535,0);
},
{
name = top;
pos = (881,1291);
}
);
layerId = "82219AB4-7C60-4B3A-9196-329BE868CB10";
shapes = (
{
closed = 1;
nodes = (
(961,-51,o),
(1227,377,o),
(1227,852,cs),
(1227,1095,o),
(1141,1320,o),
(864,1320,cs),
(409,1320,o),
(144,876,o),
(144,388,cs),
(144,132,o),
(253,-51,o),
(529,-51,cs)
);
},
{
closed = 1;
nodes = (
(315,27,o),
(231,183,o),
(231,394,cs),
(231,834,o),
(452,1239,o),
(856,1239,cs),
(1078,1239,o),
(1146,1048,o),
(1146,847,cs),
(1146,416,o),
(916,27,o),
(525,27,cs)
);
},
{
closed = 1;
nodes = (
(1306,1111,o),
(1456,1210,o),
(1456,1408,c),
(1439,1417,o),
(1393,1424,o),
(1362,1424,c),
(1362,1291,o),
(1276,1173,o),
(1115,1173,c),
(1154,1111,l)
);
}
);
width = 1354;
},
{
anchors = (
{
name = bottom;
pos = (535,0);
},
{
name = top;
pos = (881,1291);
}
);
layerId = "63DB0068-8B02-4205-807F-6F2453D24B26";
shapes = (
{
closed = 1;
nodes = (
(1102,-51,o),
(1352,266,o),
(1352,797,cs),
(1352,1107,o),
(1242,1320,o),
(852,1320,cs),
(371,1320,o),
(64,991,o),
(64,459,cs),
(64,165,o),
(214,-51,o),
(574,-51,cs)
);
},
{
closed = 1;
nodes = (
(518,350,o),
(469,469,o),
(469,578,cs),
(469,817,o),
(578,995,o),
(799,995,cs),
(946,995,o),
(983,874,o),
(983,758,cs),
(983,513,o),
(886,350,o),
(659,350,cs)
);
},
{
closed = 1;
nodes = (
(1427,1043,o),
(1600,1163,o),
(1600,1412,c),
(1575,1440,o),
(1422,1470,o),
(1303,1470,c),
(1303,1312,o),
(1192,1220,o),
(1051,1220,c),
(1245,1043,l)
);
}
);
width = 1354;
}
);
unicode = 416;
},
{
glyphname = Oogonek;
lastChange = "2020-07-21 16:07:51 +0000";
layers = (
{
layerId = "82219AB4-7C60-4B3A-9196-329BE868CB10";
shapes = (
{
closed = 1;
nodes = (
(853,-385,o),
(804,-405,o),
(710,-405,cs),
(620,-405,o),
(563,-374,o),
(563,-272,cs),
(563,-159,o),
(703,-35,o),
(805,18,c),
(740,63,l),
(611,-6,o),
(477,-136,o),
(477,-279,cs),
(477,-408,o),
(557,-485,o),
(694,-485,cs),
(798,-485,o),
(870,-463,o),
(926,-439,c),
(926,-352,l)
);
},
{
ref = O;
}
);
width = 1354;
},
{
layerId = "63DB0068-8B02-4205-807F-6F2453D24B26";
shapes = (
{
closed = 1;
nodes = (
(962,-279,o),
(917,-288,o),
(874,-288,cs),
(821,-288,o),
(767,-264,o),
(767,-192,cs),
(767,-112,o),
(842,-28,o),
(887,3,c),
(751,61,l),
(686,42,o),
(504,-109,o),
(504,-281,cs),
(504,-448,o),
(648,-533,o),
(806,-533,cs),
(910,-533,o),
(972,-520,o),
(1001,-508,c),
(1001,-251,l)
);
},
{
ref = O;
}
);
width = 1354;
}
);
unicode = 490;
},
{
glyphname = Oslash;
kernLeft = O;
kernRight = O;
lastChange = "2020-07-03 19:52:39 +0000";
layers = (
{
anchors = (
{
name = bottom;
pos = (534.585,0);
},
{
name = top;
pos = (876,1320);
}
);
layerId = "82219AB4-7C60-4B3A-9196-329BE868CB10";
shapes = (
{
closed = 1;
nodes = (
(1193,1337,c),
(839,798,o),
(315,278,o),
(-28,-41,c),
(-18,-50,o),
(21,-75,o),
(39,-81,c),
(303,148,o),
(834,672,o),
(1268,1291,c),
(1255,1306,o),
(1222,1330,o)
);
},
{
ref = O;
}
);
width = 1354;
},
{
anchors = (
{
name = bottom;
pos = (534.585,0);
},
{
name = top;
pos = (803,1370);
}
);
layerId = "63DB0068-8B02-4205-807F-6F2453D24B26";
shapes = (
{
closed = 1;
nodes = (
(1094,1419,c),
(814,869,o),
(306,350,o),
(-58,30,c),
(-11,-34,o),
(52,-97,o),
(157,-122,c),
(461,143,o),
(975,631,o),
(1346,1301,c),
(1315,1354,o),
(1217,1408,o)
);
},
{
ref = O;
}
);
width = 1354;
}
);
unicode = 216;
},
{
glyphname = OE;
kernLeft = O;
kernRight = E;
lastChange = "2020-07-03 19:51:27 +0000";
layers = (
{
anchors = (
{
name = bottom;
pos = (865,0);
},
{
name = top;
pos = (1211,1291);
}
);
layerId = "82219AB4-7C60-4B3A-9196-329BE868CB10";
shapes = (
{
closed = 1;
nodes = (
(742,-51,o),
(971,70,o),
(1046,251,c),
(1028,253,l),
(1004,166,o),
(984,79,o),
(964,-8,c),
(1027,-6,o),
(1110,-5,o),
(1173,-5,cs),
(1333,-5,o),
(1470,-10,o),
(1625,-19,c),
(1635,-1,o),
(1649,29,o),
(1658,57,c),
(1584,63,o),
(1400,70,o),
(1241,70,cs),
(1188,70,o),
(1100,69,o),
(1060,67,c),
(1115,271,o),
(1170,476,o),
(1224,680,c),
(1311,683,o),
(1730,684,o),
(1780,684,c),
(1793,762,l),
(1701,762,o),
(1318,750,o),
(1244,747,c),
(1267,832,o),
(1341,1099,o),
(1370,1187,c),
(1974,1234,l),
(1984,1261,o),
(1988,1274,o),
(1997,1308,c),
(1942,1308,o),
(1650,1289,o),
(1299,1241,c),
(1285,1202,o),
(1250,1102,o),
(1222,980,c),
(1232,999,l),
(1232,1180,o),
(1099,1320,o),
(859,1320,cs),
(416,1320,o),
(140,857,o),
(140,376,cs),
(140,130,o),
(238,-51,o),
(511,-51,cs)
);
},
{
closed = 1;
nodes = (
(303,27,o),
(229,185,o),
(229,392,cs),
(229,824,o),
(460,1239,o),
(854,1239,cs),
(1079,1239,o),
(1155,1088,o),
(1155,892,cs),
(1155,454,o),
(909,27,o),
(513,27,cs)
);
}
);
width = 1891;
},
{
anchors = (
{
name = bottom;
pos = (813,0);
},
{
name = top;
pos = (1167,1291);
}
);
layerId = "63DB0068-8B02-4205-807F-6F2453D24B26";
shapes = (
{
closed = 1;
nodes = (
(648,-51,o),
(830,13,o),
(886,71,c),
(859,80,l),
(854,59,o),
(847,28,o),
(844,7,c),
(901,7,o),
(1068,4,o),
(1167,-2,cs),
(1288,-9,o),
(1491,-21,o),
(1527,-25,c),
(1549,12,o),
(1642,257,o),
(1677,390,c),
(1630,394,o),
(1551,400,o),
(1469,400,cs),
(1406,400,o),
(1343,400,o),
(1280,400,c),
(1286,422,o),
(1310,500,o),
(1319,527,c),
(1354,527,o),
(1591,513,o),
(1635,510,c),
(1733,850,l),
(1645,848,o),
(1492,845,o),
(1413,845,c),
(1418,864,o),
(1442,951,o),
(1449,968,c),
(1831,999,l),
(1871,1113,o),
(1907,1216,o),
(1935,1320,c),
(1882,1320,o),
(1567,1318,o),
(1179,1249,c),
(1170,1230,o),
(1156,1192,o),
(1148,1163,c),
(1162,1163,l),
(1162,1250,o),
(1016,1320,o),
(874,1320,cs),
(390,1320,o),
(44,922,o),
(44,419,cs),
(44,141,o),
(170,-51,o),
(526,-51,cs)
);
},
{
closed = 1;
nodes = (
(491,350,o),
(451,411,o),
(451,517,cs),
(451,738,o),
(606,995,o),
(811,995,cs),
(942,995,o),
(991,921,o),
(991,817,cs),
(991,606,o),
(823,350,o),
(621,350,cs)
);
}
);
width = 1803;
}
);
metricLeft = O;
metricRight = E;
unicode = 338;
},
{
glyphname = P;
kernLeft = H;
kernRight = P;
lastChange = "2020-06-17 14:59:22 +0000";
layers = (
{
anchors = (
{
name = bottom;
pos = (362.585,0);
},
{
name = top;
pos = (708.507,1291);
}
);
layerId = "82219AB4-7C60-4B3A-9196-329BE868CB10";
shapes = (
{
closed = 1;
nodes = (
(46,-27,o),
(87,-28,o),
(115,-28,c),
(198,246,o),
(299,591,o),
(321,670,c),
(387,662,o),
(461,657,o),
(522,657,cs),
(828,657,o),
(1050,762,o),
(1050,1049,cs),
(1050,1203,o),
(941,1284,o),
(745,1284,cs),
(598,1284,o),
(496,1265,o),
(409,1248,c),
(220,644,o),
(139,370,o),
(27,-26,c)
);
},
{
closed = 1;
nodes = (
(357,788,o),
(472,1169,o),
(476,1193,c),
(585,1207,o),
(679,1213,o),
(745,1213,cs),
(885,1213,o),
(967,1164,o),
(967,1033,cs),
(967,823,o),
(771,730,o),
(540,730,cs),
(463,730,o),
(402,739,o),
(345,750,c)
);
}
);
width = 1010;
},
{
anchors = (
{
name = bottom;
pos = (343,0);
},
{
name = top;
pos = (689,1291);
}
);
layerId = "63DB0068-8B02-4205-807F-6F2453D24B26";
shapes = (
{
closed = 1;
nodes = (
(5,-10,o),
(242,-14,o),
(318,-14,c),
(349,85,o),
(447,421,o),
(465,491,c),
(478,482,o),
(544,474,o),
(574,474,cs),
(874,474,o),
(1109,711,o),
(1109,989,cs),
(1109,1193,o),
(956,1292,o),
(726,1292,cs),
(583,1292,o),
(439,1283,o),
(299,1256,c),
(230,1087,o),
(-74,25,o),
(-81,-4,c)
);
},
{
closed = 1;
nodes = (
(552,849,o),
(586,987,o),
(589,1003,c),
(615,1006,o),
(644,1009,o),
(671,1009,cs),
(730,1009,o),
(768,986,o),
(768,919,cs),
(768,860,o),
(715,804,o),
(625,804,cs),
(595,804,o),
(558,807,o),
(542,811,c)
);
}
);
width = 1010;
}
);
unicode = 80;
},
{
glyphname = Thorn;
kernLeft = H;
kernRight = Thorn;
lastChange = "2020-06-17 20:11:47 +0000";
layers = (
{
layerId = "82219AB4-7C60-4B3A-9196-329BE868CB10";
shapes = (
{
closed = 1;
nodes = (
(430,1282,o),
(399,1280,o),
(377,1277,c),
(321,990,o),
(115,154,o),
(60,-22,c),
(105,-22,o),
(150,-22,o),
(167,-21,c),
(234,232,o),
(399,990,o),
(453,1282,c)
);
},
{
closed = 1;
nodes = (
(461,931,o),
(582,945,o),
(699,945,cs),
(953,945,o),
(1071,857,o),
(1071,714,cs),
(1071,439,o),
(830,361,o),
(520,361,cs),
(420,361,o),
(314,370,o),
(205,385,c),
(168,299,l),
(270,286,o),
(400,278,o),
(509,278,cs),
(880,278,o),
(1163,374,o),
(1163,729,cs),
(1163,937,o),
(992,1029,o),
(755,1029,cs),
(626,1029,o),
(509,1015,o),
(382,995,c),
(358,906,l)
);
}
);
width = 1316;
},
{
layerId = "63DB0068-8B02-4205-807F-6F2453D24B26";
shapes = (
{
closed = 1;
nodes = (
(442,1282,o),
(288,1265,o),
(267,1262,c),
(220,1017,o),
(11,191,o),
(-46,-22,c),
(81,-22,o),
(283,-12,o),
(389,7,c),
(450,234,o),
(605,1046,o),
(634,1282,c)
);
},
{
closed = 1;
nodes = (
(539,755,o),
(649,791,o),
(777,791,cs),
(878,791,o),
(942,762,o),
(942,697,cs),
(942,573,o),
(798,547,o),
(659,547,cs),
(577,547,o),
(498,555,o),
(451,561,c),
(342,209,l),
(414,199,o),
(519,194,o),
(596,194,cs),
(1004,194,o),
(1318,365,o),
(1318,755,cs),
(1318,1014,o),
(1104,1129,o),
(826,1129,cs),
(709,1129,o),
(593,1103,o),
(522,1083,c),
(469,727,l)
);
}
);
width = 1316;
}
);
unicode = 222;
},
{
glyphname = Q;
kernLeft = O;
kernRight = O;
lastChange = "2020-06-10 19:29:54 +0000";
layers = (
{
anchors = (
{
name = bottom;
pos = (503.585,0);
},
{
name = top;
pos = (849.507,1291);
}
);
layerId = "82219AB4-7C60-4B3A-9196-329BE868CB10";
shapes = (
{
closed = 1;
nodes = (
(1044,-5,o),
(1067,37,o),
(1081,63,c),
(1005,83,o),
(935,113,o),
(892,160,c),
(1096,315,o),
(1177,611,o),
(1177,888,cs),
(1177,1139,o),
(1083,1299,o),
(823,1299,cs),
(439,1299,o),
(187,833,o),
(187,397,cs),
(187,176,o),
(270,8,o),
(508,8,cs),
(693,8,o),
(785,84,o),
(817,113,c),
(847,82,o),
(972,-11,o),
(1024,-31,c)
);
},
{
closed = 1;
nodes = (
(743,144,o),
(664,80,o),
(536,80,cs),
(336,80,o),
(276,202,o),
(276,381,cs),
(276,778,o),
(474,1226,o),
(816,1226,cs),
(1025,1226,o),
(1098,1086,o),
(1098,883,cs),
(1098,632,o),
(1022,364,o),
(839,208,c),
(768,292,o),
(726,430,o),
(706,518,c),
(691,509,o),
(646,477,o),
(632,465,c),
(657,363,o),
(712,236,o),
(772,169,c)
);
}
);
width = 1291;
},
{
anchors = (
{
name = bottom;
pos = (503.585,0);
},
{
name = top;
pos = (849.507,1291);
}
);
layerId = "63DB0068-8B02-4205-807F-6F2453D24B26";
shapes = (
{
closed = 1;
nodes = (
(989,-137,o),
(1098,-58,o),
(1167,14,c),
(1106,50,o),
(1034,107,o),
(1001,174,c),
(1208,303,o),
(1324,585,o),
(1324,848,cs),
(1324,1108,o),
(1183,1299,o),
(839,1299,cs),
(390,1299,o),
(50,910,o),
(50,456,cs),
(50,182,o),
(203,-21,o),
(497,-21,cs),
(587,-21,o),
(690,8,o),
(729,29,c),
(745,-18,o),
(847,-158,o),
(904,-187,c)
);
},
{
closed = 1;
nodes = (
(616,326,o),
(605,323,o),
(577,323,cs),
(473,323,o),
(439,419,o),
(439,530,cs),
(439,785,o),
(574,986,o),
(811,986,cs),
(932,986,o),
(976,922,o),
(976,805,cs),
(976,710,o),
(939,500,o),
(879,433,c),
(861,475,o),
(852,548,o),
(848,598,c),
(768,558,o),
(640,489,o),
(587,454,c),
(587,419,o),
(612,342,o),
(621,328,c)
);
}
);
width = 1291;
}
);
unicode = 81;
},
{
glyphname = Q.ss01;
kernLeft = Q.ss01;
kernRight = Q.ss01;
lastChange = "2020-07-08 20:46:28 +0000";
layers = (
{
anchors = (
{
name = bottom;
pos = (503.585,0);
},
{
name = top;
pos = (849.507,1291);
}
);
layerId = "82219AB4-7C60-4B3A-9196-329BE868CB10";
shapes = (
{
closed = 1;
nodes = (
(980,-159,o),
(1034,-103,o),
(1046,-89,c),
(970,-44,o),
(889,76,o),
(860,144,c),
(1049,295,o),
(1178,615,o),
(1178,870,cs),
(1178,1110,o),
(1064,1299,o),
(820,1299,cs),
(457,1299,o),
(163,812,o),
(163,401,cs),
(163,176,o),
(261,-10,o),
(484,-10,cs),
(586,-10,o),
(696,16,o),
(788,90,c),
(822,-20,o),
(897,-118,o),
(957,-169,c)
);
},
{
closed = 1;
nodes = (
(331,74,o),
(251,229,o),
(251,417,cs),
(251,769,o),
(498,1210,o),
(809,1210,cs),
(1033,1210,o),
(1093,1024,o),
(1093,856,cs),
(1093,500,o),
(825,74,o),
(517,74,cs)
);
}
);
width = 1291;
},
{
anchors = (
{
name = bottom;
pos = (503.585,0);
},
{
name = top;
pos = (849.507,1291);
}
);
layerId = "63DB0068-8B02-4205-807F-6F2453D24B26";
shapes = (
{
closed = 1;
nodes = (
(1083,-202,o),
(1178,-16,o),
(1188,11,c),
(1162,13,o),
(1063,74,o),
(1029,173,c),
(1239,298,o),
(1305,573,o),
(1305,829,cs),
(1305,1096,o),
(1150,1282,o),
(807,1282,cs),
(334,1282,o),
(45,920,o),
(45,468,cs),
(45,154,o),
(191,-26,o),
(549,-26,cs),
(599,-26,o),
(660,-8,o),
(694,3,c),
(694,-91,o),
(768,-279,o),
(934,-335,c)
);
},
{
closed = 1;
nodes = (
(490,338,o),
(403,413,o),
(403,548,cs),
(403,757,o),
(548,969,o),
(782,969,cs),
(910,969,o),
(958,862,o),
(958,731,cs),
(958,515,o),
(839,338,o),
(610,338,cs)
);
}
);
width = 1291;
}
);
},
{
glyphname = R;
kernLeft = H;
kernRight = R;
lastChange = "2020-06-17 15:01:48 +0000";
layers = (
{
anchors = (
{
name = bottom;
pos = (404.585,0);
},
{
name = top;
pos = (686,1321);
}
);
layerId = "82219AB4-7C60-4B3A-9196-329BE868CB10";
shapes = (
{
closed = 1;
nodes = (
(115,-29,o),
(166,-27,o),
(186,-24,c),
(218,149,o),
(308,586,o),
(316,622,c),
(362,622,o),
(530,636,o),
(645,666,c),
(695,522,o),
(712,240,o),
(712,-15,c),
(732,-14,o),
(776,7,o),
(799,22,c),
(799,185,o),
(784,543,o),
(721,693,c),
(906,751,o),
(1015,864,o),
(1015,1064,cs),
(1015,1240,o),
(918,1321,o),
(736,1321,cs),
(621,1321,o),
(441,1310,o),
(364,1303,c),
(272,842,o),
(168,321,o),
(83,-29,c)
);
},
{
closed = 1;
nodes = (
(345,748,o),
(425,1177,o),
(435,1236,c),
(464,1239,o),
(654,1253,o),
(697,1253,cs),
(830,1253,o),
(932,1213,o),
(932,1061,cs),
(932,843,o),
(814,784,o),
(575,730,cs),
(482,709,o),
(411,700,o),
(336,700,c)
);
}
);
width = 1094;
},
{
anchors = (
{
name = bottom;
pos = (404.585,0);
},
{
name = top;
pos = (702,1331);
}
);
layerId = "63DB0068-8B02-4205-807F-6F2453D24B26";
shapes = (
{
closed = 1;
nodes = (
(82,-24,o),
(260,-20,o),
(365,2,c),
(400,130,o),
(466,469,o),
(477,561,c),
(504,562,o),
(516,564,o),
(544,569,c),
(553,495,o),
(555,129,o),
(555,-21,c),
(586,-19,o),
(821,26,o),
(963,89,c),
(956,154,o),
(899,551,o),
(880,653,c),
(1048,733,o),
(1162,845,o),
(1162,1026,cs),
(1162,1263,o),
(972,1331,o),
(716,1331,cs),
(566,1331,o),
(367,1321,o),
(238,1303,c),
(143,852,o),
(25,297,o),
(-51,-24,c)
);
},
{
closed = 1;
nodes = (
(528,903,o),
(539,981,o),
(547,1038,c),
(570,1041,o),
(621,1047,o),
(664,1047,cs),
(768,1047,o),
(807,1028,o),
(807,964,cs),
(807,896,o),
(715,869,o),
(634,862,cs),
(581,857,o),
(550,855,o),
(520,855,c)
);
}
);
width = 1094;
}
);
unicode = 82;
},
{
glyphname = S;
kernLeft = S;
kernRight = S;
lastChange = "2020-06-17 15:02:38 +0000";
layers = (
{
anchors = (
{
name = bottom;
pos = (480,0);
},
{
name = top;
pos = (738,1317);
}
);
layerId = "82219AB4-7C60-4B3A-9196-329BE868CB10";
shapes = (
{
closed = 1;
nodes = (
(755,-9,o),
(1024,149,o),
(1024,451,cs),
(1024,673,o),
(818,732,o),
(615,788,cs),
(506,818,o),
(379,862,o),
(379,1006,cs),
(379,1184,o),
(540,1275,o),
(726,1275,cs),
(979,1275,o),
(1080,1145,o),
(1099,1103,c),
(1113,1113,o),
(1147,1154,o),
(1157,1171,c),
(1146,1215,o),
(982,1349,o),
(750,1349,cs),
(504,1349,o),
(294,1234,o),
(294,991,cs),
(294,830,o),
(422,754,o),
(597,711,cs),
(780,666,o),
(937,608,o),
(937,440,cs),
(937,191,o),
(711,72,o),
(481,72,cs),
(221,72,o),
(112,321,o),
(98,376,c),
(75,363,o),
(43,335,o),
(24,318,c),
(39,227,o),
(182,-9,o),
(480,-9,cs)
);
}
);
width = 1152;
},
{
anchors = (
{
name = bottom;
pos = (463,0);
},
{
name = top;
pos = (730,1339);
}
);
layerId = "63DB0068-8B02-4205-807F-6F2453D24B26";
shapes = (
{
closed = 1;
nodes = (
(784,-18,o),
(1073,155,o),
(1073,472,cs),
(1073,690,o),
(920,795,o),
(682,891,cs),
(617,917,o),
(594,945,o),
(594,974,cs),
(594,1033,o),
(661,1056,o),
(724,1056,cs),
(786,1056,o),
(879,1017,o),
(951,928,c),
(1032,976,o),
(1144,1085,o),
(1220,1181,c),
(1102,1333,o),
(902,1349,o),
(733,1349,cs),
(447,1349,o),
(200,1197,o),
(200,916,cs),
(200,727,o),
(343,641,o),
(539,547,cs),
(665,486,o),
(677,429,o),
(677,385,cs),
(677,332,o),
(618,287,o),
(542,287,cs),
(434,287,o),
(363,347,o),
(287,460,c),
(208,426,o),
(-10,231,o),
(-36,200,c),
(75,13,o),
(296,-18,o),
(463,-18,cs)
);
}
);
width = 1152;
}
);
unicode = 83;
},
{
glyphname = Scedilla;
lastChange = "2020-07-08 20:02:59 +0000";
layers = (
{
layerId = "82219AB4-7C60-4B3A-9196-329BE868CB10";
shapes = (
{
closed = 1;
nodes = (
(628,-462,o),
(781,-400,o),
(781,-227,cs),
(781,-134,o),
(716,-87,o),
(620,-87,cs),
(572,-87,o),
(507,-106,o),
(488,-119,c),
(529,39,l),
(457,43,l),
(390,-212,l),
(433,-194,o),
(535,-159,o),
(593,-159,cs),
(665,-159,o),
(691,-189,o),
(691,-242,cs),
(691,-362,o),
(581,-392,o),
(435,-392,cs),
(384,-392,o),
(310,-374,o),
(272,-364,c),
(245,-437,l),
(264,-444,o),
(327,-462,o),
(431,-462,cs)
);
},
{
ref = S;
}
);
width = 1152;
},
{
layerId = "63DB0068-8B02-4205-807F-6F2453D24B26";
shapes = (
{
closed = 1;
nodes = (
(581,-537,o),
(834,-453,o),
(834,-231,cs),
(834,-124,o),
(770,-77,o),
(674,-77,cs),
(604,-77,o),
(545,-105,o),
(517,-139,c),
(562,39,l),
(342,27,l),
(251,-257,l),
(288,-244,o),
(372,-229,o),
(449,-229,cs),
(514,-229,o),
(565,-239,o),
(565,-272,cs),
(565,-315,o),
(496,-337,o),
(374,-337,cs),
(341,-337,o),
(259,-325,o),
(231,-312,c),
(142,-515,l),
(162,-520,o),
(242,-537,o),
(347,-537,cs)
);
},
{
ref = S;
}
);
width = 1152;
}
);
unicode = 350;
},
{
glyphname = Germandbls;
kernLeft = H;
kernRight = B;
lastChange = "2020-06-17 20:15:13 +0000";
layers = (
{
layerId = "82219AB4-7C60-4B3A-9196-329BE868CB10";
shapes = (
{
closed = 1;
nodes = (
(34,2,o),
(82,7,o),
(93,9,c),
(111,103,o),
(254,672,o),
(324,933,cs),
(379,1138,o),
(414,1260,o),
(610,1260,cs),
(773,1260,o),
(1042,1239,o),
(1100,1229,c),
(991,1166,o),
(648,937,o),
(507,817,c),
(507,778,o),
(510,740,o),
(521,701,c),
(587,714,o),
(645,721,o),
(694,721,cs),
(845,721,o),
(947,655,o),
(947,508,cs),
(947,284,o),
(746,50,o),
(526,50,cs),
(430,50,o),
(356,85,o),
(316,145,c),
(289,126,o),
(254,101,o),
(235,80,c),
(267,27,o),
(397,-17,o),
(498,-17,cs),
(788,-17,o),
(1039,222,o),
(1039,506,cs),
(1039,675,o),
(925,797,o),
(738,797,cs),
(680,797,o),
(621,790,o),
(588,785,c),
(664,851,o),
(1144,1185,o),
(1192,1215,c),
(1197,1237,o),
(1200,1268,o),
(1200,1289,c),
(1102,1313,o),
(766,1332,o),
(644,1332,cs),
(504,1332,o),
(348,1308,o),
(278,1046,cs),
(210,792,o),
(55,208,o),
(14,2,c)
);
}
);
width = 1197;
},
{
layerId = "63DB0068-8B02-4205-807F-6F2453D24B26";
shapes = (
{
closed = 1;
nodes = (
(-14,-9,o),
(173,1,o),
(252,9,c),
(278,137,o),
(411,637,o),
(468,850,cs),
(514,1022,o),
(583,1075,o),
(692,1075,cs),
(754,1075,o),
(792,1070,o),
(833,1060,c),
(736,1006,o),
(597,916,o),
(504,838,c),
(504,700,o),
(521,563,o),
(530,524,c),
(591,548,o),
(692,571,o),
(759,571,cs),
(814,571,o),
(845,533,o),
(845,473,cs),
(845,352,o),
(763,260,o),
(639,260,cs),
(543,260,o),
(518,292,o),
(492,335,c),
(464,316,o),
(302,133,o),
(283,109,c),
(332,19,o),
(454,-17,o),
(555,-17,cs),
(924,-17,o),
(1176,173,o),
(1176,550,cs),
(1176,722,o),
(1096,800,o),
(969,800,cs),
(911,800,o),
(858,789,o),
(810,762,c),
(876,791,o),
(1280,1038,o),
(1297,1055,c),
(1302,1077,o),
(1342,1253,o),
(1342,1289,c),
(1292,1299,o),
(823,1332,o),
(701,1332,cs),
(257,1332,o),
(165,1061,o),
(44,610,cs),
(-26,349,o),
(-73,136,o),
(-89,-9,c)
);
}
);
width = 1197;
}
);
unicode = 7838;
},
{
glyphname = T;
kernLeft = T;
kernRight = T;
lastChange = "2020-06-17 15:04:16 +0000";
layers = (
{
anchors = (
{
name = bottom;
pos = (407,0);
},
{
name = center;
pos = (550.68,646);
},
{
name = top;
pos = (723.507,1291);
}
);
layerId = "82219AB4-7C60-4B3A-9196-329BE868CB10";
shapes = (
{
closed = 1;
nodes = (
(324,1248,o),
(560,1256,o),
(678,1258,c),
(669,1223,o),
(656,1175,o),
(641,1118,cs),
(555,798,o),
(402,189,o),
(357,-14,c),
(375,-14,o),
(432,-12,o),
(450,-9,c),
(471,83,o),
(718,1084,o),
(762,1256,c),
(896,1256,o),
(1133,1252,o),
(1194,1249,c),
(1201,1273,o),
(1209,1306,o),
(1210,1325,c),
(1102,1338,o),
(965,1342,o),
(822,1342,cs),
(618,1342,o),
(402,1333,o),
(246,1326,c),
(239,1299,o),
(234,1267,o),
(231,1243,c)
);
}
);
width = 1039;
},
{
anchors = (
{
name = bottom;
pos = (393,0);
},
{
name = center;
pos = (551,646);
},
{
name = top;
pos = (723.507,1291);
}
);
layerId = "63DB0068-8B02-4205-807F-6F2453D24B26";
shapes = (
{
closed = 1;
nodes = (
(277,968,o),
(369,971,o),
(455,978,c),
(442,933,o),
(426,877,o),
(409,814,cs),
(339,554,o),
(248,179,o),
(206,-14,c),
(305,-14,o),
(524,-2,o),
(630,14,c),
(637,52,o),
(800,814,o),
(838,986,c),
(904,983,o),
(1036,983,o),
(1083,983,c),
(1113,1039,o),
(1159,1167,o),
(1197,1308,c),
(1084,1325,o),
(938,1331,o),
(789,1331,cs),
(596,1331,o),
(397,1321,o),
(245,1309,c),
(235,1272,o),
(182,1038,o),
(178,968,c)
);
}
);
width = 1039;
}
);
unicode = 84;
},
{
glyphname = Tbar;
kernLeft = T;
kernRight = T;
lastChange = "2020-07-16 19:59:59 +0000";
layers = (
{
layerId = "82219AB4-7C60-4B3A-9196-329BE868CB10";
shapes = (
{
closed = 1;
nodes = (
(931,656,o),
(939,692,o),
(939,701,c),
(778,701,o),
(315,684,o),
(237,674,c),
(228,662,o),
(216,628,o),
(212,610,c),
(406,616,o),
(732,625,o),
(923,625,c)
);
},
{
ref = T;
}
);
width = 1039;
},
{
layerId = "63DB0068-8B02-4205-807F-6F2453D24B26";
shapes = (
{
closed = 1;
nodes = (
(932,622,o),
(958,762,o),
(965,801,c),
(832,801,o),
(333,791,o),
(205,741,c),
(186,667,o),
(170,577,o),
(157,490,c),
(368,507,o),
(790,514,o),
(905,514,c)
);
},
{
ref = T;
}
);
width = 1039;
}
);
unicode = 358;
},
{
glyphname = Tcedilla;
kernLeft = T;
kernRight = T;
lastChange = "2020-07-08 20:02:50 +0000";
layers = (
{
layerId = "82219AB4-7C60-4B3A-9196-329BE868CB10";
shapes = (
{
closed = 1;
nodes = (
(548,-462,o),
(701,-400,o),
(701,-227,cs),
(701,-134,o),
(636,-87,o),
(540,-87,cs),
(492,-87,o),
(427,-106,o),
(408,-119,c),
(450,-9,l),
(357,-14,l),
(310,-212,l),
(353,-194,o),
(455,-159,o),
(513,-159,cs),
(585,-159,o),
(611,-189,o),
(611,-242,cs),
(611,-362,o),
(501,-392,o),
(355,-392,cs),
(304,-392,o),
(230,-374,o),
(192,-364,c),
(165,-437,l),
(184,-444,o),
(247,-462,o),
(351,-462,cs)
);
},
{
ref = T;
}
);
width = 1039;
},
{
layerId = "63DB0068-8B02-4205-807F-6F2453D24B26";
shapes = (
{
closed = 1;
nodes = (
(541,-537,o),
(794,-453,o),
(794,-231,cs),
(794,-124,o),
(730,-77,o),
(634,-77,cs),
(564,-77,o),
(505,-105,o),
(477,-139,c),
(522,39,l),
(302,27,l),
(211,-257,l),
(248,-244,o),
(332,-229,o),
(409,-229,cs),
(474,-229,o),
(525,-239,o),
(525,-272,cs),
(525,-315,o),
(456,-337,o),
(334,-337,cs),
(301,-337,o),
(219,-325,o),
(191,-312,c),
(102,-515,l),
(122,-520,o),
(202,-537,o),
(307,-537,cs)
);
},
{
ref = T;
}
);
width = 1039;
}
);
unicode = 354;
},
{
glyphname = U;
kernLeft = U;
kernRight = U;
lastChange = "2023-07-10 13:06:31 +0000";
layers = (
{
anchors = (
{
name = bottom;
pos = (463.585,0);
},
{
name = ogonek;
pos = (682,0);
},
{
name = top;
pos = (842,1325);
},
{
name = topright;
pos = (1206,1174);
}
);
layerId = "82219AB4-7C60-4B3A-9196-329BE868CB10";
shapes = (
{
closed = 1;
nodes = (
(858,-43,o),
(1015,304,o),
(1154,818,cs),
(1200,988,o),
(1242,1192,o),
(1256,1316,c),
(1230,1325,o),
(1196,1330,o),
(1165,1330,c),
(1141,1144,o),
(1082,892,o),
(1039,728,cs),
(920,274,o),
(741,32,o),
(522,32,cs),
(366,32,o),
(286,131,o),
(286,320,cs),
(286,430,o),
(320,602,o),
(368,787,cs),
(419,985,o),
(488,1197,o),
(548,1362,c),
(538,1365,o),
(519,1368,o),
(494,1368,cs),
(479,1368,o),
(464,1366,o),
(453,1364,c),
(389,1175,o),
(327,979,o),
(281,800,cs),
(233,614,o),
(202,445,o),
(202,319,cs),
(202,95,o),
(280,-43,o),
(498,-43,cs)
);
}
);
width = 1212;
},
{
anchors = (
{
name = bottom;
pos = (463.585,0);
},
{
name = ogonek;
pos = (652,0);
},
{
name = top;
pos = (835,1318);
},
{
name = topright;
pos = (1261,1174);
}
);
layerId = "63DB0068-8B02-4205-807F-6F2453D24B26";
shapes = (
{
closed = 1;
nodes = (
(951,-27,o),
(1116,419,o),
(1263,957,cs),
(1296,1078,o),
(1318,1195,o),
(1330,1296,c),
(1304,1304,o),
(1055,1328,o),
(924,1328,c),
(913,1245,o),
(812,833,o),
(779,710,cs),
(741,570,o),
(695,458,o),
(591,458,cs),
(542,458,o),
(520,488,o),
(520,554,cs),
(520,636,o),
(568,824,o),
(622,1009,cs),
(657,1129,o),
(697,1248,o),
(727,1335,c),
(662,1342,o),
(577,1347,o),
(496,1347,cs),
(433,1347,o),
(356,1342,o),
(285,1335,c),
(251,1217,o),
(220,1108,o),
(194,1005,cs),
(130,752,o),
(88,544,o),
(88,371,cs),
(88,112,o),
(194,-27,o),
(481,-27,cs)
);
}
);
width = 1212;
}
);
unicode = 85;
},
{
glyphname = Uhorn;
kernLeft = U;
kernRight = U;
lastChange = "2020-07-08 19:59:26 +0000";
layers = (
{
anchors = (
{
name = bottom;
pos = (510,0);
},
{
name = top;
pos = (852,1331);
}
);
layerId = "82219AB4-7C60-4B3A-9196-329BE868CB10";
shapes = (
{
closed = 1;
nodes = (
(875,-43,o),
(1014,304,o),
(1151,818,cs),
(1192,971,o),
(1231,1152,o),
(1248,1277,c),
(1391,1308,o),
(1479,1412,o),
(1526,1564,c),
(1512,1573,o),
(1467,1580,o),
(1436,1580,c),
(1394,1421,o),
(1313,1340,o),
(1161,1330,c),
(1138,1144,o),
(1080,892,o),
(1036,728,cs),
(915,275,o),
(749,32,o),
(530,32,cs),
(359,32,o),
(306,129,o),
(306,360,cs),
(306,464,o),
(320,602,o),
(360,757,cs),
(405,932,o),
(485,1185,o),
(549,1362,c),
(539,1365,o),
(517,1368,o),
(492,1368,cs),
(477,1368,o),
(461,1366,o),
(451,1364,c),
(412,1243,o),
(325,963,o),
(276,780,cs),
(232,617,o),
(214,469,o),
(214,346,cs),
(214,106,o),
(288,-43,o),
(515,-43,cs)
);
}
);
width = 1304;
},
{
anchors = (
{
name = bottom;
pos = (516,0);
},
{
name = top;
pos = (834,1345);
}
);
layerId = "63DB0068-8B02-4205-807F-6F2453D24B26";
shapes = (
{
closed = 1;
nodes = (
(957,-27,o),
(1116,418,o),
(1261,957,cs),
(1282,1036,o),
(1299,1113,o),
(1312,1185,c),
(1464,1234,o),
(1624,1345,o),
(1686,1522,c),
(1668,1550,o),
(1484,1571,o),
(1365,1571,c),
(1315,1384,o),
(1190,1328,o),
(922,1328,c),
(911,1245,o),
(810,833,o),
(777,710,cs),
(740,570,o),
(693,458,o),
(589,458,cs),
(540,458,o),
(519,488,o),
(519,554,cs),
(519,617,o),
(539,712,o),
(574,844,cs),
(619,1014,o),
(675,1193,o),
(725,1335,c),
(660,1342,o),
(575,1347,o),
(494,1347,cs),
(431,1347,o),
(358,1342,o),
(287,1335,c),
(263,1256,o),
(241,1183,o),
(223,1115,cs),
(146,830,o),
(98,592,o),
(98,410,cs),
(98,116,o),
(210,-27,o),
(487,-27,cs)
);
}
);
width = 1404;
}
);
metricLeft = U;
metricRight = "=U-80";
unicode = 431;
},
{
glyphname = Uogonek;
lastChange = "2020-07-21 16:07:58 +0000";
layers = (
{
layerId = "82219AB4-7C60-4B3A-9196-329BE868CB10";
shapes = (
{
closed = 1;
nodes = (
(768,-388,o),
(719,-408,o),
(625,-408,cs),
(535,-408,o),
(478,-377,o),
(478,-275,cs),
(478,-162,o),
(618,-38,o),
(720,15,c),
(655,60,l),
(526,-9,o),
(392,-139,o),
(392,-282,cs),
(392,-411,o),
(472,-488,o),
(609,-488,cs),
(713,-488,o),
(785,-466,o),
(841,-442,c),
(841,-355,l)
);
},
{
ref = U;
}
);
width = 1212;
},
{
layerId = "63DB0068-8B02-4205-807F-6F2453D24B26";
shapes = (
{
closed = 1;
nodes = (
(821,-247,o),
(776,-256,o),
(733,-256,cs),
(680,-256,o),
(626,-232,o),
(626,-160,cs),
(626,-80,o),
(701,4,o),
(746,35,c),
(610,93,l),
(545,74,o),
(363,-77,o),
(363,-249,cs),
(363,-416,o),
(507,-501,o),
(665,-501,cs),
(769,-501,o),
(831,-488,o),
(860,-476,c),
(860,-219,l)
);
},
{
ref = U;
}
);
width = 1212;
}
);
unicode = 370;
},
{
glyphname = V;
kernLeft = V;
kernRight = V;
lastChange = "2023-07-07 16:36:32 +0000";
layers = (
{
anchors = (
{
name = bottom;
pos = (440.585,0);
},
{
name = top;
pos = (786.507,1291);
}
);
layerId = "82219AB4-7C60-4B3A-9196-329BE868CB10";
shapes = (
{
closed = 1;
nodes = (
(471,-19,o),
(487,-18,o),
(503,-16,c),
(518,4,o),
(802,410,o),
(1263,1326,c),
(1247,1344,o),
(1215,1354,o),
(1184,1359,c),
(1175,1338,o),
(818,639,o),
(460,63,c),
(436,346,o),
(423,1169,o),
(423,1361,c),
(401,1361,o),
(350,1352,o),
(335,1347,c),
(335,1191,o),
(341,278,o),
(377,-10,c),
(391,-16,o),
(421,-19,o),
(445,-19,cs)
);
}
);
width = 1166;
},
{
anchors = (
{
name = bottom;
pos = (450,0);
},
{
name = top;
pos = (796,1291);
}
);
layerId = "63DB0068-8B02-4205-807F-6F2453D24B26";
shapes = (
{
closed = 1;
nodes = (
(586,-22,o),
(670,-21,o),
(718,-16,c),
(769,69,o),
(1186,836,o),
(1389,1301,c),
(1268,1342,o),
(1083,1366,o),
(951,1366,c),
(924,1287,o),
(716,720,o),
(603,428,c),
(650,857,o),
(657,1244,o),
(657,1359,c),
(551,1359,o),
(341,1340,o),
(206,1301,c),
(206,945,o),
(228,221,o),
(265,-10,c),
(313,-16,o),
(407,-22,o),
(501,-22,cs)
);
}
);
width = 1183;
}
);
unicode = 86;
},
{
glyphname = V.ss02;
kernLeft = V;
kernRight = V;
lastChange = "2023-07-07 17:04:33 +0000";
layers = (
{
anchors = (
{
name = bottom;
pos = (501,0);
},
{
name = top;
pos = (821,1291);
}
);
layerId = "63DB0068-8B02-4205-807F-6F2453D24B26";
shapes = (
{
closed = 1;
nodes = (
(623,144,o),
(1096,888,o),
(1367,1221,c),
(1330,1262,o),
(1074,1311,o),
(998,1316,c),
(901,1218,o),
(699,867,o),
(638,731,c),
(593,841,o),
(599,1202,o),
(623,1379,c),
(509,1349,o),
(286,1282,o),
(190,1241,c),
(168,747,o),
(337,195,o),
(521,-22,c)
);
}
);
width = 1183;
},
{
anchors = (
{
name = bottom;
pos = (434,0);
},
{
name = top;
pos = (804,1291);
}
);
layerId = "82219AB4-7C60-4B3A-9196-329BE868CB10";
shapes = (
{
closed = 1;
nodes = (
(561,223,o),
(1129,1082,o),
(1265,1286,c),
(1254,1295,o),
(1202,1314,o),
(1187,1319,c),
(1106,1216,o),
(553,366,o),
(452,181,c),
(420,414,o),
(404,1250,o),
(404,1361,c),
(375,1354,o),
(326,1334,o),
(309,1327,c),
(309,1173,o),
(340,93,o),
(402,-49,c)
);
}
);
width = 1166;
}
);
},
{
glyphname = W;
kernLeft = W;
kernRight = W;
lastChange = "2023-07-07 16:26:00 +0000";
layers = (
{
anchors = (
{
name = bottom;
pos = (529.585,0);
},
{
name = top;
pos = (875.507,1291);
}
);
layerId = "82219AB4-7C60-4B3A-9196-329BE868CB10";
shapes = (
{
closed = 1;
nodes = (
(876,-11,l),
(912,42,o),
(1200,713,o),
(1371,1352,c),
(1276,1344,l),
(1183,998,o),
(985,421,o),
(842,103,c),
(842,267,o),
(836,833,o),
(834,840,c),
(741,844,l),
(720,820,o),
(322,310,o),
(217,127,c),
(298,553,o),
(386,908,o),
(502,1340,c),
(417,1344,l),
(304,923,o),
(227,598,o),
(118,-8,c),
(191,-8,l),
(221,32,o),
(700,669,o),
(754,742,c),
(755,648,o),
(772,179,o),
(780,-17,c)
);
}
);
width = 1344;
},
{
anchors = (
{
name = bottom;
pos = (529.585,0);
},
{
name = top;
pos = (875.507,1291);
}
);
layerId = "63DB0068-8B02-4205-807F-6F2453D24B26";
shapes = (
{
closed = 1;
nodes = (
(1008,24,l),
(1065,139,o),
(1419,832,o),
(1568,1391,c),
(1169,1350,l),
(1118,1159,o),
(999,773,o),
(892,498,c),
(902,652,o),
(924,873,o),
(933,973,c),
(673,945,l),
(618,859,o),
(520,705,o),
(452,586,c),
(517,790,o),
(632,1159,o),
(681,1340,c),
(250,1356,l),
(103,807,o),
(21,173,o),
(2,21,c),
(405,3,l),
(473,106,o),
(575,291,o),
(642,416,c),
(632,280,o),
(626,97,o),
(630,-15,c)
);
}
);
width = 1344;
}
);
unicode = 87;
},
{
glyphname = W.ss02;
kernLeft = W;
kernRight = W;
lastChange = "2023-07-07 17:05:02 +0000";
layers = (
{
anchors = (
{
name = bottom;
pos = (540,0);
},
{
name = top;
pos = (841,1291);
}
);
layerId = "63DB0068-8B02-4205-807F-6F2453D24B26";
shapes = (
{
closed = 1;
nodes = (
(349,34,o),
(545,266,o),
(633,384,c),
(668,217,o),
(733,16,o),
(772,-40,c),
(898,75,o),
(1312,726,o),
(1518,1185,c),
(1215,1320,l),
(1151,1178,o),
(1026,922,o),
(922,728,c),
(883,834,o),
(838,953,o),
(810,1007,c),
(739,942,o),
(632,818,o),
(535,702,c),
(541,893,o),
(561,1175,o),
(577,1303,c),
(188,1214,l),
(120,643,o),
(212,43,o),
(263,-50,c)
);
}
);
width = 1344;
},
{
anchors = (
{
name = bottom;
pos = (500,0);
},
{
name = top;
pos = (967,1291);
}
);
layerId = "82219AB4-7C60-4B3A-9196-329BE868CB10";
shapes = (
{
closed = 1;
nodes = (
(246,67,o),
(626,620,o),
(703,706,c),
(723,576,o),
(749,123,o),
(761,-17,c),
(901,176,o),
(1368,1053,o),
(1480,1303,c),
(1405,1335,l),
(1326,1153,o),
(999,513,o),
(821,221,c),
(824,393,o),
(785,756,o),
(754,883,c),
(664,781,o),
(382,407,o),
(259,209,c),
(291,625,o),
(338,1077,o),
(371,1340,c),
(281,1314,l),
(252,1053,o),
(181,316,o),
(180,-8,c)
);
}
);
width = 1344;
}
);
},
{
glyphname = X;
kernLeft = X;
kernRight = X;
lastChange = "2020-07-24 10:06:15 +0000";
layers = (
{
anchors = (
{
name = bottom;
pos = (422,0);
},
{
name = top;
pos = (768,1291);
}
);
layerId = "82219AB4-7C60-4B3A-9196-329BE868CB10";
shapes = (
{
closed = 1;
nodes = (
(532,610,o),
(234,293,o),
(-32,39,c),
(-12,19,o),
(22,5,o),
(55,1,c),
(71,17,o),
(587,557,o),
(606,583,c),
(681,376,o),
(749,121,o),
(779,-15,c),
(807,-14,o),
(839,-9,o),
(873,10,c),
(825,181,o),
(702,550,o),
(666,639,c),
(721,685,o),
(1031,1016,o),
(1206,1272,c),
(1188,1285,o),
(1152,1299,o),
(1124,1308,c),
(1087,1251,o),
(862,933,o),
(642,714,c),
(543,1046,o),
(455,1253,o),
(419,1328,c),
(390,1323,o),
(360,1312,o),
(322,1297,c),
(358,1231,o),
(500,909,o),
(580,666,c)
);
}
);
width = 1113;
},
{
anchors = (
{
name = bottom;
pos = (484.585,0);
},
{
name = top;
pos = (830.507,1291);
}
);
layerId = "63DB0068-8B02-4205-807F-6F2453D24B26";
shapes = (
{
closed = 1;
nodes = (
(292,461,o),
(61,193,o),
(-72,56,c),
(87,10,o),
(225,-18,o),
(352,-31,c),
(392,10,o),
(496,121,o),
(643,323,c),
(691,177,o),
(710,38,o),
(717,-54,c),
(827,-34,o),
(1000,18,o),
(1116,81,c),
(1105,168,o),
(996,498,o),
(906,673,c),
(1062,827,o),
(1315,1077,o),
(1397,1193,c),
(1351,1241,o),
(1145,1314,o),
(991,1328,c),
(933,1209,o),
(854,1071,o),
(775,961,c),
(771,998,o),
(722,1258,o),
(680,1347,c),
(568,1332,o),
(316,1255,o),
(209,1207,c),
(241,1161,o),
(407,914,o),
(473,679,c)
);
}
);
width = 1253;
}
);
unicode = 88;
},
{
glyphname = Y;
kernLeft = Y;
kernRight = Y;
lastChange = "2020-06-17 15:12:55 +0000";
layers = (
{
anchors = (
{
name = bottom;
pos = (411,0);
},
{
name = top;
pos = (757,1291);
},
{
name = topleft;
pos = (244,1291);
}
);
layerId = "82219AB4-7C60-4B3A-9196-329BE868CB10";
shapes = (
{
closed = 1;
nodes = (
(423,319,o),
(370,134,o),
(337,-10,c),
(359,-13,o),
(376,-14,o),
(392,-14,cs),
(405,-14,o),
(420,-13,o),
(435,-12,c),
(441,20,o),
(476,165,o),
(499,254,cs),
(517,323,o),
(556,457,o),
(567,491,c),
(867,882,o),
(1059,1121,o),
(1173,1241,c),
(1157,1259,o),
(1129,1284,o),
(1098,1303,c),
(999,1192,o),
(617,692,o),
(541,591,c),
(499,761,o),
(430,1269,o),
(427,1318,c),
(390,1313,o),
(357,1303,o),
(325,1292,c),
(331,1248,o),
(455,550,o),
(476,489,c)
);
}
);
width = 1065;
},
{
anchors = (
{
name = bottom;
pos = (411,0);
},
{
name = top;
pos = (757,1291);
},
{
name = topleft;
pos = (244,1291);
}
);
layerId = "63DB0068-8B02-4205-807F-6F2453D24B26";
shapes = (
{
closed = 1;
nodes = (
(376,522,o),
(304,271,o),
(234,24,c),
(281,14,o),
(367,7,o),
(448,7,cs),
(525,7,o),
(598,14,o),
(617,22,c),
(624,40,o),
(655,147,o),
(678,236,cs),
(698,312,o),
(737,477,o),
(768,612,c),
(941,836,o),
(1151,1074,o),
(1273,1192,c),
(1201,1242,o),
(1038,1304,o),
(905,1309,c),
(834,1241,o),
(695,1037,o),
(653,972,c),
(631,1063,o),
(602,1262,o),
(594,1325,c),
(509,1325,o),
(371,1308,o),
(201,1250,c),
(249,950,o),
(323,768,o),
(409,583,c)
);
}
);
width = 1065;
}
);
unicode = 89;
},
{
glyphname = Z;
kernLeft = Z;
kernRight = Z;
lastChange = "2020-06-17 15:13:54 +0000";
layers = (
{
anchors = (
{
name = bottom;
pos = (379.585,0);
},
{
name = center;
pos = (552.68,646);
},
{
name = top;
pos = (725.507,1291);
}
);
layerId = "82219AB4-7C60-4B3A-9196-329BE868CB10";
shapes = (
{
closed = 1;
nodes = (
(804,-3,o),
(813,18,o),
(820,37,cs),
(826,54,o),
(832,71,o),
(835,85,c),
(784,83,o),
(717,82,o),
(644,82,cs),
(446,82,o),
(214,89,o),
(103,98,c),
(228,206,o),
(862,869,o),
(1158,1261,c),
(1162,1272,o),
(1166,1286,o),
(1171,1304,cs),
(1173,1310,o),
(1176,1325,o),
(1177,1330,c),
(1138,1330,o),
(1000,1327,o),
(979,1326,cs),
(802,1320,o),
(583,1307,o),
(379,1294,c),
(376,1286,o),
(371,1269,o),
(367,1251,cs),
(363,1234,o),
(359,1217,o),
(357,1209,c),
(600,1229,o),
(983,1255,o),
(1058,1256,c),
(899,1058,o),
(252,325,o),
(-7,96,c),
(-11,79,o),
(-20,39,o),
(-23,22,c),
(289,-5,o),
(563,-14,o),
(799,-14,c)
);
}
);
width = 1044;
},
{
anchors = (
{
name = bottom;
pos = (379.585,0);
},
{
name = center;
pos = (552.68,646);
},
{
name = top;
pos = (725.507,1291);
}
);
layerId = "63DB0068-8B02-4205-807F-6F2453D24B26";
shapes = (
{
closed = 1;
nodes = (
(855,18,o),
(890,113,o),
(914,202,cs),
(934,277,o),
(951,356,o),
(958,397,c),
(852,392,o),
(744,387,o),
(658,387,cs),
(577,387,o),
(545,389,o),
(521,393,c),
(649,509,o),
(1041,897,o),
(1143,1005,c),
(1153,1025,o),
(1175,1093,o),
(1194,1166,cs),
(1209,1225,o),
(1224,1288,o),
(1227,1330,c),
(1196,1334,o),
(1100,1336,o),
(1048,1336,cs),
(835,1336,o),
(467,1306,o),
(353,1294,c),
(338,1256,o),
(320,1198,o),
(303,1135,cs),
(288,1080,o),
(274,1011,o),
(267,969,c),
(400,977,o),
(637,991,o),
(699,991,c),
(628,912,o),
(242,546,o),
(59,388,c),
(34,297,o),
(-14,99,o),
(-29,22,c),
(315,-3,o),
(602,-14,o),
(838,-14,c)
);
}
);
width = 1044;
}
);
unicode = 90;
},
{
glyphname = Z.ss02;
kernLeft = Z;
kernRight = Z;
lastChange = "2023-07-07 17:05:32 +0000";
layers = (
{
anchors = (
{
name = bottom;
pos = (340,0);
},
{
name = center;
pos = (522,646);
},
{
name = top;
pos = (752,1291);
}
);
layerId = "63DB0068-8B02-4205-807F-6F2453D24B26";
shapes = (
{
closed = 1;
nodes = (
(813,79,o),
(877,255,o),
(915,397,c),
(813,387,o),
(650,373,o),
(522,373,c),
(688,591,o),
(1081,1093,o),
(1197,1213,c),
(1127,1251,o),
(732,1294,o),
(229,1294,c),
(211,1227,o),
(173,998,o),
(175,939,c),
(293,957,o),
(512,961,o),
(596,961,c),
(525,882,o),
(103,365,o),
(-80,96,c),
(45,36,o),
(418,0,o),
(765,-14,c)
);
}
);
width = 1044;
},
{
anchors = (
{
name = bottom;
pos = (337,0);
},
{
name = center;
pos = (582,646);
},
{
name = top;
pos = (744,1291);
}
);
layerId = "82219AB4-7C60-4B3A-9196-329BE868CB10";
shapes = (
{
closed = 1;
nodes = (
(784,12,o),
(800,42,o),
(807,69,c),
(586,69,o),
(342,76,o),
(98,96,c),
(278,337,o),
(997,1091,o),
(1151,1250,c),
(1092,1269,o),
(617,1294,o),
(354,1294,c),
(345,1261,o),
(339,1220,o),
(339,1209,c),
(597,1209,o),
(912,1201,o),
(985,1191,c),
(816,1032,o),
(127,288,o),
(-52,44,c),
(80,0,o),
(575,-14,o),
(769,-14,c)
);
}
);
width = 1044;
}
);
},
{
glyphname = B_B;
kernLeft = H;
kernRight = B;
lastChange = "2020-07-22 15:23:01 +0000";
layers = (
{
anchors = (
{
name = caret_1;
pos = (1026,0);
}
);
layerId = "82219AB4-7C60-4B3A-9196-329BE868CB10";
shapes = (
{
closed = 1;
nodes = (
(1781,-18,o),
(2077,123,o),
(2077,447,cs),
(2077,566,o),
(2007,631,o),
(1912,642,c),
(2055,675,o),
(2183,860,o),
(2183,1018,cs),
(2183,1190,o),
(2051,1246,o),
(1822,1246,cs),
(1738,1246,o),
(1618,1241,o),
(1578,1239,c),
(1534,1119,o),
(1225,228,o),
(1157,21,c),
(1239,-5,o),
(1344,-18,o),
(1436,-18,cs)
);
},
{
closed = 1;
nodes = (
(1388,60,o),
(1294,72,o),
(1270,76,c),
(1432,567,l),
(1472,572,o),
(1622,590,o),
(1776,590,cs),
(1922,590,o),
(1988,538,o),
(1988,433,cs),
(1988,180,o),
(1779,60,o),
(1480,60,cs)
);
},
{
closed = 1;
nodes = (
(1628,1167,l),
(1670,1167,o),
(1756,1167,o),
(1847,1167,cs),
(2009,1167,o),
(2103,1123,o),
(2103,992,cs),
(2103,869,o),
(2017,758,o),
(1896,701,cs),
(1812,661,o),
(1612,646,o),
(1459,646,c)
);
},
{
ref = B;
}
);
width = 2240;
},
{
anchors = (
{
name = caret_1;
pos = (979,0);
}
);
layerId = "63DB0068-8B02-4205-807F-6F2453D24B26";
shapes = (
{
closed = 1;
nodes = (
(1930,4,o),
(2205,153,o),
(2205,482,cs),
(2205,637,o),
(2093,735,o),
(1994,735,c),
(2163,751,o),
(2301,865,o),
(2301,1044,cs),
(2301,1206,o),
(2163,1282,o),
(1954,1282,cs),
(1772,1282,o),
(1572,1286,o),
(1485,1288,c),
(1439,1150,o),
(1108,145,o),
(1078,49,c),
(1169,24,o),
(1409,4,o),
(1574,4,cs)
);
},
{
closed = 1;
nodes = (
(1654,346,o),
(1594,346,o),
(1562,346,c),
(1624,558,l),
(1674,565,o),
(1737,568,o),
(1776,568,cs),
(1846,568,o),
(1864,537,o),
(1864,502,cs),
(1864,402,o),
(1803,346,o),
(1691,346,cs)
);
},
{
closed = 1;
nodes = (
(1771,1041,l),
(1801,1045,o),
(1834,1045,o),
(1863,1045,cs),
(1928,1045,o),
(1984,1030,o),
(1984,986,cs),
(1984,951,o),
(1955,923,o),
(1919,908,cs),
(1900,900,o),
(1826,886,o),
(1728,886,c)
);
},
{
ref = B;
}
);
width = 2283;
}
);
metricLeft = B;
metricRight = B;
},
{
glyphname = C_C;
kernLeft = O;
kernRight = C;
lastChange = "2020-07-22 15:23:08 +0000";
layers = (
{
anchors = (
{
name = caret_1;
pos = (1108,0);
}
);
layerId = "82219AB4-7C60-4B3A-9196-329BE868CB10";
shapes = (
{
closed = 1;
nodes = (
(1003,204,o),
(961,227,o),
(940,238,c),
(828,148,o),
(676,88,o),
(532,88,cs),
(294,88,o),
(195,208,o),
(195,422,cs),
(195,801,o),
(436,1157,o),
(825,1157,cs),
(1021,1157,o),
(1097,1076,o),
(1134,1027,c),
(1160,1049,o),
(1187,1084,o),
(1201,1103,c),
(1133,1196,o),
(983,1249,o),
(849,1249,cs),
(418,1249,o),
(99,869,o),
(99,421,cs),
(99,166,o),
(229,0,o),
(518,0,cs),
(706,0,o),
(876,72,o),
(1017,190,c)
);
},
{
alignment = -1;
pos = (1081,0);
ref = C;
}
);
width = 2218;
},
{
anchors = (
{
name = caret_1;
pos = (1147,0);
}
);
layerId = "63DB0068-8B02-4205-807F-6F2453D24B26";
shapes = (
{
closed = 1;
nodes = (
(1003,218,o),
(939,354,o),
(878,448,c),
(821,403,o),
(746,376,o),
(671,376,cs),
(564,376,o),
(520,438,o),
(520,546,cs),
(520,741,o),
(653,946,o),
(824,946,cs),
(925,946,o),
(972,891,o),
(990,867,c),
(1039,915,o),
(1197,1123,o),
(1233,1173,c),
(1160,1259,o),
(1021,1294,o),
(860,1294,cs),
(370,1294,o),
(38,981,o),
(38,485,cs),
(38,120,o),
(254,-10,o),
(611,-10,cs),
(755,-10,o),
(970,39,o),
(1049,103,c)
);
},
{
alignment = -1;
pos = (1073,0);
ref = C;
}
);
width = 2210;
}
);
metricLeft = C;
metricRight = C;
},
{
glyphname = D_D;
kernLeft = H;
kernRight = O;
lastChange = "2020-07-22 15:23:13 +0000";
layers = (
{
anchors = (
{
name = caret_1;
pos = (1042,0);
}
);
layerId = "82219AB4-7C60-4B3A-9196-329BE868CB10";
shapes = (
{
closed = 1;
nodes = (
(1844,-45,o),
(2124,332,o),
(2124,961,cs),
(2124,1166,o),
(2037,1364,o),
(1796,1364,cs),
(1735,1364,o),
(1569,1349,o),
(1529,1339,c),
(1522,1307,o),
(1300,190,o),
(1261,-65,c)
);
},
{
closed = 1;
nodes = (
(1630,1276,o),
(1761,1287,o),
(1800,1287,cs),
(1979,1287,o),
(2040,1101,o),
(2040,937,cs),
(2040,434,o),
(1830,69,o),
(1367,27,c),
(1432,424,o),
(1510,874,o),
(1593,1271,c)
);
},
{
alignment = -1;
ref = D;
}
);
width = 2231;
},
{
anchors = (
{
name = caret_1;
pos = (1078,0);
}
);
layerId = "63DB0068-8B02-4205-807F-6F2453D24B26";
shapes = (
{
closed = 1;
nodes = (
(1956,-50,o),
(2305,148,o),
(2305,875,cs),
(2305,1155,o),
(2171,1362,o),
(1840,1362,cs),
(1738,1362,o),
(1601,1355,o),
(1450,1338,c),
(1424,1209,o),
(1226,171,o),
(1199,-50,c)
);
},
{
closed = 1;
nodes = (
(1746,1029,o),
(1785,1037,o),
(1819,1037,cs),
(1912,1037,o),
(1946,936,o),
(1946,830,cs),
(1946,614,o),
(1858,382,o),
(1669,357,c),
(1693,581,o),
(1714,802,o),
(1732,1026,c)
);
},
{
alignment = -1;
ref = D;
}
);
width = 2295;
}
);
metricLeft = D;
metricRight = D;
},
{
glyphname = E_E;
kernLeft = H;
kernRight = E;
lastChange = "2020-07-22 15:23:20 +0000";
layers = (
{
anchors = (
{
name = bottom;
pos = (389,0);
},
{
name = caret_1;
pos = (844,0);
},
{
name = ogonek;
pos = (633,12);
},
{
name = top;
pos = (670,1327);
},
{
name = topleft;
pos = (212,1284);
}
);
layerId = "82219AB4-7C60-4B3A-9196-329BE868CB10";
shapes = (
{
closed = 1;
nodes = (
(1616,7,o),
(1632,42,o),
(1641,68,c),
(1594,72,o),
(1480,80,o),
(1382,80,cs),
(1295,80,o),
(1114,80,o),
(1074,80,c),
(1075,88,o),
(1079,106,o),
(1085,126,cs),
(1124,256,o),
(1227,604,o),
(1246,674,c),
(1260,674,o),
(1297,675,o),
(1382,675,cs),
(1476,675,o),
(1743,672,o),
(1830,663,c),
(1832,665,o),
(1836,677,o),
(1840,689,cs),
(1845,705,o),
(1847,718,o),
(1847,728,c),
(1721,739,o),
(1410,748,o),
(1267,748,c),
(1287,827,o),
(1377,1127,o),
(1389,1151,c),
(1508,1166,o),
(1802,1181,o),
(2006,1181,c),
(2022,1204,o),
(2033,1231,o),
(2039,1248,c),
(2027,1250,o),
(1959,1254,o),
(1864,1254,cs),
(1745,1254,o),
(1566,1246,o),
(1317,1210,c),
(1267,1084,o),
(1057,393,o),
(955,10,c),
(1248,7,o),
(1458,0,o),
(1603,-7,c)
);
},
{
closed = 1;
nodes = (
(755,27,o),
(767,58,o),
(776,86,c),
(701,88,o),
(516,86,o),
(358,78,cs),
(305,76,o),
(218,70,o),
(177,66,c),
(209,214,o),
(299,632,o),
(311,687,c),
(397,694,o),
(816,716,o),
(866,719,c),
(874,797,l),
(782,792,o),
(401,761,o),
(327,755,c),
(346,841,o),
(407,1111,o),
(431,1200,c),
(1032,1278,l),
(1040,1305,o),
(1044,1320,o),
(1052,1353,c),
(997,1350,o),
(706,1316,o),
(357,1251,c),
(336,1178,o),
(280,942,o),
(201,571,cs),
(161,387,o),
(120,184,o),
(85,-13,c),
(149,-8,o),
(231,-3,o),
(293,0,cs),
(453,8,o),
(591,10,o),
(746,9,c)
);
}
);
width = 1949;
},
{
anchors = (
{
name = bottom;
pos = (357,-25);
},
{
name = caret_1;
pos = (816,0);
},
{
name = ogonek;
pos = (619,-17);
},
{
name = top;
pos = (661,1306);
},
{
name = topleft;
pos = (203,1261);
}
);
layerId = "63DB0068-8B02-4205-807F-6F2453D24B26";
shapes = (
{
closed = 1;
nodes = (
(1665,66,o),
(1725,263,o),
(1753,368,c),
(1730,378,o),
(1675,394,o),
(1548,400,cs),
(1504,402,o),
(1429,403,o),
(1397,403,c),
(1401,421,o),
(1406,438,o),
(1411,454,cs),
(1416,471,o),
(1422,487,o),
(1430,501,c),
(1468,508,o),
(1604,515,o),
(1670,515,cs),
(1713,515,o),
(1754,513,o),
(1775,511,c),
(1802,581,o),
(1830,659,o),
(1851,739,cs),
(1859,769,o),
(1866,799,o),
(1872,829,c),
(1744,844,o),
(1640,851,o),
(1526,851,c),
(1530,874,o),
(1540,906,o),
(1548,923,c),
(1652,930,o),
(1796,938,o),
(1918,938,c),
(1943,999,o),
(1991,1155,o),
(2017,1250,c),
(1988,1253,o),
(1889,1261,o),
(1735,1261,cs),
(1605,1261,o),
(1434,1251,o),
(1231,1219,c),
(1203,1131,o),
(1031,581,o),
(880,17,c),
(1226,12,o),
(1547,0,o),
(1643,-5,c)
);
},
{
closed = 1;
nodes = (
(726,8,o),
(810,256,o),
(842,390,c),
(794,393,o),
(716,396,o),
(634,394,cs),
(546,391,o),
(455,388,o),
(445,388,c),
(450,410,o),
(471,488,o),
(480,516,c),
(515,517,o),
(752,510,o),
(795,509,c),
(882,852,l),
(796,847,o),
(643,839,o),
(564,837,c),
(568,856,o),
(588,943,o),
(596,961,c),
(976,1004,l),
(1013,1119,o),
(1045,1223,o),
(1070,1328,c),
(1015,1326,o),
(679,1313,o),
(271,1224,c),
(244,1125,o),
(186,915,o),
(121,637,cs),
(77,449,o),
(30,230,o),
(-17,-6,c),
(103,-10,o),
(224,-15,o),
(345,-18,cs),
(465,-21,o),
(585,-25,o),
(705,-29,c)
);
}
);
width = 1903;
}
);
metricLeft = E;
metricRight = E;
},
{
glyphname = F_F;
kernLeft = H;
kernRight = F;
lastChange = "2020-07-22 15:23:26 +0000";
layers = (
{
anchors = (
{
name = caret_1;
pos = (765,0);
}
);
layerId = "82219AB4-7C60-4B3A-9196-329BE868CB10";
shapes = (
{
closed = 1;
nodes = (
(1060,93,o),
(1127,300,o),
(1182,520,cs),
(1188,544,o),
(1194,567,o),
(1201,591,c),
(1371,591,o),
(1607,544,o),
(1668,528,c),
(1673,546,o),
(1682,589,o),
(1683,595,c),
(1674,600,o),
(1518,641,o),
(1220,667,c),
(1262,824,o),
(1303,989,o),
(1334,1146,c),
(1500,1141,o),
(1857,1085,o),
(1879,1081,c),
(1885,1102,o),
(1895,1146,o),
(1898,1171,c),
(1699,1200,o),
(1480,1227,o),
(1262,1227,c),
(1205,973,o),
(1153,750,o),
(1091,519,cs),
(1048,358,o),
(1001,193,o),
(942,15,c),
(1028,-5,l)
);
},
{
alignment = -1;
ref = F;
}
);
width = 1848;
},
{
anchors = (
{
name = caret_1;
pos = (707,0);
}
);
layerId = "63DB0068-8B02-4205-807F-6F2453D24B26";
shapes = (
{
closed = 1;
nodes = (
(1252,66,o),
(1319,263,o),
(1353,393,cs),
(1359,416,o),
(1364,436,o),
(1368,454,c),
(1469,454,o),
(1634,419,o),
(1689,403,c),
(1742,535,o),
(1782,659,o),
(1809,759,c),
(1731,783,o),
(1515,797,o),
(1460,797,c),
(1474,842,o),
(1488,887,o),
(1501,932,c),
(1618,932,o),
(1863,915,o),
(1905,911,c),
(1915,932,o),
(1971,1067,o),
(2019,1246,c),
(1888,1258,o),
(1450,1274,o),
(1214,1274,c),
(1183,1096,o),
(1140,910,o),
(1090,723,cs),
(1026,482,o),
(949,240,o),
(869,9,c),
(1217,-7,l)
);
},
{
alignment = -1;
ref = F;
}
);
width = 1868;
}
);
metricLeft = F;
metricRight = F;
},
{
glyphname = G_G;
kernLeft = O;
kernRight = G;
lastChange = "2020-07-22 15:23:31 +0000";
layers = (
{
anchors = (
{
name = caret_1;
pos = (1266,0);
}
);
layerId = "82219AB4-7C60-4B3A-9196-329BE868CB10";
shapes = (
{
closed = 1;
nodes = (
(919,-52,o),
(1105,110,o),
(1202,469,cs),
(1223,547,o),
(1240,642,o),
(1252,727,c),
(1195,730,o),
(1135,731,o),
(1074,731,cs),
(941,731,o),
(807,725,o),
(696,716,c),
(692,701,o),
(680,653,o),
(676,629,c),
(743,635,o),
(838,637,o),
(927,637,cs),
(1022,637,o),
(1110,635,o),
(1148,633,c),
(1146,610,o),
(1139,577,o),
(1131,548,cs),
(1035,200,o),
(935,33,o),
(575,33,cs),
(297,33,o),
(198,186,o),
(198,434,cs),
(198,896,o),
(476,1212,o),
(927,1212,cs),
(1041,1212,o),
(1147,1182,o),
(1215,1068,c),
(1234,1083,o),
(1266,1119,o),
(1278,1136,c),
(1251,1209,o),
(1104,1288,o),
(903,1288,cs),
(422,1288,o),
(107,919,o),
(107,420,cs),
(107,131,o),
(234,-52,o),
(557,-52,cs)
);
},
{
alignment = -1;
pos = (1266,0);
ref = G;
}
);
width = 2541;
},
{
anchors = (
{
name = caret_1;
pos = (1279,0);
}
);
layerId = "63DB0068-8B02-4205-807F-6F2453D24B26";
shapes = (
{
closed = 1;
nodes = (
(941,-36,o),
(1129,124,o),
(1253,520,cs),
(1279,603,o),
(1301,704,o),
(1301,760,c),
(1276,763,o),
(1229,766,o),
(1129,766,cs),
(1033,766,o),
(860,760,o),
(798,757,c),
(775,701,o),
(715,498,o),
(701,448,c),
(724,448,o),
(765,446,o),
(803,444,cs),
(835,442,o),
(863,440,o),
(879,438,c),
(879,433,o),
(878,425,o),
(875,414,cs),
(862,367,o),
(777,310,o),
(686,310,cs),
(568,310,o),
(530,412,o),
(530,539,cs),
(530,762,o),
(612,922,o),
(821,922,cs),
(902,922,o),
(975,891,o),
(991,874,c),
(1117,968,o),
(1246,1101,o),
(1296,1161,c),
(1220,1256,o),
(1033,1295,o),
(880,1295,cs),
(384,1295,o),
(122,974,o),
(122,470,cs),
(122,170,o),
(259,-36,o),
(605,-36,cs)
);
},
{
alignment = -1;
pos = (1290,0);
ref = G;
}
);
width = 2565;
}
);
metricLeft = G;
metricRight = G;
},
{
glyphname = L_L;
kernLeft = H;
kernRight = L;
lastChange = "2020-07-22 15:24:10 +0000";
layers = (
{
anchors = (
{
name = caret_1;
pos = (905,0);
}
);
layerId = "82219AB4-7C60-4B3A-9196-329BE868CB10";
shapes = (
{
closed = 1;
nodes = (
(357,6,o),
(541,17,o),
(740,48,c),
(755,75,o),
(779,140,o),
(783,152,c),
(710,140,o),
(354,92,o),
(225,92,c),
(246,169,o),
(401,856,o),
(456,1188,c),
(443,1190,o),
(433,1191,o),
(422,1191,cs),
(408,1191,o),
(394,1190,o),
(381,1188,c),
(303,816,o),
(220,507,o),
(84,10,c),
(122,7,o),
(167,6,o),
(219,6,cs)
);
},
{
alignment = -1;
pos = (929,0);
ref = L;
}
);
width = 1890;
},
{
anchors = (
{
name = caret_1;
pos = (840,0);
}
);
layerId = "63DB0068-8B02-4205-807F-6F2453D24B26";
shapes = (
{
closed = 1;
nodes = (
(430,17,o),
(769,31,o),
(806,41,c),
(827,96,o),
(884,271,o),
(914,383,c),
(745,383,o),
(583,377,o),
(462,371,c),
(508,507,o),
(669,1047,o),
(719,1234,c),
(700,1237,o),
(666,1239,o),
(623,1239,cs),
(502,1239,o),
(320,1228,o),
(262,1217,c),
(176,857,o),
(40,296,o),
(-27,26,c),
(8,20,o),
(91,17,o),
(191,17,cs)
);
},
{
alignment = -1;
pos = (941,0);
ref = L;
}
);
width = 1902;
}
);
metricLeft = L;
metricRight = L;
},
{
glyphname = M_M;
kernLeft = M;
kernRight = M;
lastChange = "2020-07-22 15:24:17 +0000";
layers = (
{
anchors = (
{
name = caret_1;
pos = (1265,0);
}
);
layerId = "82219AB4-7C60-4B3A-9196-329BE868CB10";
shapes = (
{
closed = 1;
nodes = (
(113,-9,o),
(160,-7,o),
(198,0,c),
(218,161,o),
(306,664,o),
(389,1029,c),
(399,743,o),
(476,129,o),
(489,29,c),
(526,20,o),
(568,19,o),
(608,19,c),
(673,103,o),
(1108,865,o),
(1220,1103,c),
(1177,799,o),
(1114,375,o),
(1023,42,c),
(1060,37,o),
(1081,37,o),
(1120,37,c),
(1203,345,o),
(1316,1029,o),
(1316,1297,c),
(1280,1297,o),
(1262,1297,o),
(1227,1297,c),
(1193,1218,o),
(853,584,o),
(570,115,c),
(557,282,o),
(466,1192,o),
(460,1210,c),
(448,1210,o),
(366,1200,o),
(347,1195,c),
(296,1043,o),
(150,323,o),
(92,-9,c)
);
},
{
alignment = -1;
pos = (1341,0);
ref = M;
}
);
width = 2720;
},
{
anchors = (
{
name = caret_1;
pos = (1331,0);
}
);
layerId = "63DB0068-8B02-4205-807F-6F2453D24B26";
shapes = (
{
closed = 1;
nodes = (
(44,-27,o),
(303,-3,o),
(353,3,c),
(357,23,o),
(418,344,o),
(455,583,c),
(454,426,o),
(454,99,o),
(454,21,c),
(561,25,o),
(684,30,o),
(776,43,c),
(840,153,o),
(968,428,o),
(1039,582,c),
(992,408,o),
(914,146,o),
(873,24,c),
(995,28,o),
(1157,39,o),
(1279,48,c),
(1385,445,o),
(1525,1063,o),
(1546,1254,c),
(1457,1254,o),
(1200,1254,o),
(1111,1254,c),
(1011,1087,o),
(907,912,o),
(778,691,c),
(762,877,o),
(733,1093,o),
(698,1203,c),
(634,1203,o),
(380,1199,o),
(266,1196,c),
(216,1034,o),
(27,333,o),
(-71,-34,c)
);
},
{
alignment = -1;
pos = (1417,0);
ref = M;
}
);
width = 2909;
}
);
metricLeft = M;
metricRight = M;
},
{
glyphname = M_M.ss02;
kernLeft = M;
kernRight = M;
lastChange = "2023-07-10 13:07:53 +0000";
layers = (
{
layerId = "82219AB4-7C60-4B3A-9196-329BE868CB10";
shapes = (
{
pos = (50,0);
ref = M.ss02;
},
{
closed = 1;
nodes = (
(1398,28,o),
(1444,31,o),
(1465,33,c),
(1601,502,o),
(1758,899,o),
(1810,1044,c),
(1855,882,o),
(1967,408,o),
(1992,311,c),
(2052,389,o),
(2453,884,o),
(2557,993,c),
(2548,768,o),
(2510,521,o),
(2406,45,c),
(2432,47,o),
(2472,53,o),
(2501,60,c),
(2636,625,o),
(2659,1081,o),
(2644,1232,c),
(2490,1070,o),
(2146,676,o),
(2035,490,c),
(2022,645,o),
(1877,1222,o),
(1828,1312,c),
(1775,1237,o),
(1474,418,o),
(1370,28,c)
);
}
);
width = 2804;
},
{
layerId = "63DB0068-8B02-4205-807F-6F2453D24B26";
shapes = (
{
pos = (5,0);
ref = M.ss02;
},
{
closed = 1;
nodes = (
(1462,37,o),
(1792,90,o),
(1846,112,c),
(1864,179,o),
(1897,473,o),
(1938,627,c),
(1967,591,o),
(2077,336,o),
(2096,274,c),
(2175,344,o),
(2310,472,o),
(2400,591,c),
(2380,468,o),
(2289,208,o),
(2267,124,c),
(2337,119,o),
(2563,114,o),
(2729,114,c),
(2860,756,o),
(2786,1118,o),
(2749,1214,c),
(2640,1156,o),
(2399,963,o),
(2296,850,c),
(2260,980,o),
(2064,1243,o),
(1974,1311,c),
(1876,1200,o),
(1572,687,o),
(1398,37,c)
);
}
);
width = 2923;
}
);
metricLeft = M;
metricRight = M;
},
{
glyphname = N_N;
kernLeft = H;
kernRight = H;
lastChange = "2020-07-22 15:24:23 +0000";
layers = (
{
anchors = (
{
name = caret_1;
pos = (1212,0);
}
);
layerId = "82219AB4-7C60-4B3A-9196-329BE868CB10";
shapes = (
{
closed = 1;
nodes = (
(1411,-3,o),
(1452,0,o),
(1491,10,c),
(1561,272,o),
(1753,1099,o),
(1753,1108,c),
(1807,959,o),
(2049,182,o),
(2088,47,c),
(2112,43,o),
(2143,39,o),
(2184,39,c),
(2212,84,o),
(2273,279,o),
(2333,501,cs),
(2393,724,o),
(2451,975,o),
(2471,1130,c),
(2449,1140,o),
(2420,1149,o),
(2377,1149,c),
(2151,188,l),
(2079,458,o),
(1946,861,o),
(1812,1217,c),
(1773,1217,o),
(1709,1207,o),
(1678,1200,c),
(1662,1134,o),
(1475,364,o),
(1377,-3,c)
);
},
{
alignment = -1;
ref = N;
}
);
width = 2531;
},
{
anchors = (
{
name = caret_1;
pos = (1117,0);
}
);
layerId = "63DB0068-8B02-4205-807F-6F2453D24B26";
shapes = (
{
closed = 1;
nodes = (
(1336,-3,o),
(1496,0,o),
(1639,10,c),
(1679,152,o),
(1771,497,o),
(1788,618,c),
(1890,299,o),
(1936,119,o),
(1957,-2,c),
(2035,-2,o),
(2315,10,o),
(2330,14,c),
(2366,72,o),
(2469,386,o),
(2549,685,cs),
(2593,849,o),
(2629,1008,o),
(2645,1118,c),
(2587,1140,o),
(2343,1159,o),
(2273,1159,c),
(2154,586,l),
(2119,756,o),
(2039,1010,o),
(1935,1203,c),
(1866,1203,o),
(1623,1185,o),
(1552,1179,c),
(1329,374,o),
(1253,161,o),
(1194,-3,c)
);
},
{
alignment = -1;
ref = N;
}
);
width = 2570;
}
);
metricLeft = N;
metricRight = N;
},
{
glyphname = N_N.ss02;
kernLeft = H;
kernRight = H;
lastChange = "2023-07-10 13:09:02 +0000";
layers = (
{
anchors = (
{
name = caret_1;
pos = (1256,0);
}
);
layerId = "82219AB4-7C60-4B3A-9196-329BE868CB10";
shapes = (
{
alignment = -1;
pos = (104,0);
ref = N.ss02;
},
{
closed = 1;
nodes = (
(1436,-3,o),
(1466,0,o),
(1505,10,c),
(1575,272,o),
(1722,973,o),
(1722,982,c),
(1802,856,o),
(2043,102,o),
(2079,-43,c),
(2143,60,o),
(2404,822,o),
(2487,1130,c),
(2464,1140,o),
(2425,1147,o),
(2393,1149,c),
(2109,196,l),
(2039,453,o),
(1862,1070,o),
(1686,1170,c),
(1670,1101,o),
(1501,364,o),
(1402,-3,c)
);
}
);
width = 2517;
},
{
anchors = (
{
name = caret_1;
pos = (1146,0);
}
);
layerId = "63DB0068-8B02-4205-807F-6F2453D24B26";
shapes = (
{
alignment = -1;
pos = (29,0);
ref = N.ss02;
},
{
closed = 1;
nodes = (
(1261,-113,o),
(1570,-100,o),
(1645,-80,c),
(1683,62,o),
(1773,413,o),
(1792,503,c),
(1842,380,o),
(2124,-53,o),
(2174,-112,c),
(2298,62,o),
(2623,971,o),
(2642,1108,c),
(2584,1130,o),
(2263,1149,o),
(2220,1149,c),
(2118,752,l),
(2045,872,o),
(1753,1136,o),
(1665,1169,c),
(1485,833,o),
(1227,51,o),
(1175,-113,c)
);
}
);
width = 2552;
}
);
metricLeft = N;
metricRight = N;
},
{
glyphname = O_O;
kernLeft = O;
kernRight = O;
lastChange = "2020-07-22 15:24:29 +0000";
layers = (
{
anchors = (
{
name = caret_1;
pos = (1338,0);
}
);
layerId = "82219AB4-7C60-4B3A-9196-329BE868CB10";
shapes = (
{
closed = 1;
nodes = (
(1036,-50,o),
(1339,273,o),
(1339,771,cs),
(1339,1029,o),
(1217,1245,o),
(930,1245,cs),
(433,1245,o),
(159,960,o),
(159,461,cs),
(159,183,o),
(304,-50,o),
(619,-50,cs)
);
},
{
closed = 1;
nodes = (
(370,29,o),
(253,237,o),
(253,470,cs),
(253,891,o),
(489,1164,o),
(913,1164,cs),
(1153,1164,o),
(1240,990,o),
(1240,773,cs),
(1240,309,o),
(1004,29,o),
(618,29,cs)
);
},
{
alignment = -1;
pos = (1332,0);
ref = O;
}
);
width = 2686;
},
{
anchors = (
{
name = caret_1;
pos = (1300,0);
}
);
layerId = "63DB0068-8B02-4205-807F-6F2453D24B26";
shapes = (
{
closed = 1;
nodes = (
(1043,-32,o),
(1321,239,o),
(1321,763,cs),
(1321,1110,o),
(1128,1244,o),
(821,1244,cs),
(346,1244,o),
(47,916,o),
(47,429,cs),
(47,153,o),
(165,-32,o),
(513,-32,cs)
);
},
{
closed = 1;
nodes = (
(507,331,o),
(453,411,o),
(453,526,cs),
(453,734,o),
(573,936,o),
(773,936,cs),
(910,936,o),
(962,872,o),
(962,762,cs),
(962,526,o),
(853,331,o),
(627,331,cs)
);
},
{
alignment = -1;
pos = (1307,0);
ref = O;
}
);
width = 2661;
}
);
metricLeft = O;
metricRight = O;
},
{
glyphname = P_P;
kernLeft = H;
kernRight = P;
lastChange = "2020-07-22 15:24:32 +0000";
layers = (
{
anchors = (
{
name = caret_1;
pos = (849,0);
}
);
layerId = "82219AB4-7C60-4B3A-9196-329BE868CB10";
shapes = (
{
closed = 1;
nodes = (
(1077,-5,o),
(1124,-4,o),
(1141,-4,c),
(1195,211,o),
(1248,450,o),
(1270,561,c),
(1634,561,o),
(1956,653,o),
(1956,998,cs),
(1956,1135,o),
(1864,1190,o),
(1700,1190,cs),
(1569,1190,o),
(1422,1165,o),
(1311,1141,c),
(1172,559,o),
(1061,59,o),
(1052,-8,c)
);
},
{
closed = 1;
nodes = (
(1290,665,o),
(1373,1030,o),
(1385,1077,c),
(1436,1086,o),
(1595,1113,o),
(1699,1113,cs),
(1823,1113,o),
(1867,1050,o),
(1867,978,cs),
(1867,699,o),
(1559,629,o),
(1284,629,c)
);
},
{
alignment = -1;
ref = P;
}
);
width = 1930;
},
{
anchors = (
{
name = caret_1;
pos = (905,0);
}
);
layerId = "63DB0068-8B02-4205-807F-6F2453D24B26";
shapes = (
{
closed = 1;
nodes = (
(1110,-28,o),
(1264,-11,o),
(1407,23,c),
(1420,72,o),
(1483,388,o),
(1492,448,c),
(1840,448,o),
(2089,588,o),
(2089,910,cs),
(2089,1100,o),
(1964,1189,o),
(1744,1189,cs),
(1608,1189,o),
(1402,1157,o),
(1236,1125,c),
(1217,1049,o),
(992,-11,o),
(990,-37,c)
);
},
{
closed = 1;
nodes = (
(1555,784,o),
(1569,894,o),
(1570,908,c),
(1625,918,o),
(1659,923,o),
(1715,923,cs),
(1743,923,o),
(1770,910,o),
(1770,864,cs),
(1770,780,o),
(1655,745,o),
(1547,742,c)
);
},
{
alignment = -1;
ref = P;
}
);
width = 2013;
}
);
metricLeft = P;
metricRight = P;
},
{
glyphname = R_R;
kernLeft = H;
kernRight = R;
lastChange = "2020-07-22 15:24:38 +0000";
layers = (
{
anchors = (
{
name = caret_1;
pos = (969,0);
}
);
layerId = "82219AB4-7C60-4B3A-9196-329BE868CB10";
shapes = (
{
closed = 1;
nodes = (
(1767,-8,o),
(1826,-2,o),
(1849,10,c),
(1849,227,o),
(1847,573,o),
(1842,672,c),
(2007,724,o),
(2131,881,o),
(2131,1063,cs),
(2131,1279,o),
(1921,1313,o),
(1585,1313,cs),
(1565,1313,o),
(1546,1313,o),
(1526,1312,c),
(1376,841,o),
(1230,348,o),
(1133,20,c),
(1162,12,o),
(1208,5,o),
(1230,5,c),
(1253,89,o),
(1397,587,o),
(1408,623,c),
(1454,623,o),
(1692,633,o),
(1765,660,c),
(1765,559,o),
(1753,159,o),
(1747,-8,c)
);
},
{
closed = 1;
nodes = (
(1481,693,o),
(1449,693,o),
(1429,693,c),
(1443,741,o),
(1565,1173,o),
(1579,1239,c),
(1607,1239,o),
(1716,1236,o),
(1758,1233,cs),
(1900,1223,o),
(2056,1208,o),
(2056,1055,cs),
(2056,800,o),
(1777,693,o),
(1502,693,cs)
);
},
{
alignment = -1;
ref = R;
}
);
width = 2161;
},
{
anchors = (
{
name = caret_1;
pos = (1006,0);
}
);
layerId = "63DB0068-8B02-4205-807F-6F2453D24B26";
shapes = (
{
closed = 1;
nodes = (
(1646,-14,o),
(1935,5,o),
(2033,30,c),
(2033,112,o),
(2017,486,o),
(1993,632,c),
(2192,711,o),
(2322,853,o),
(2322,1064,cs),
(2322,1265,o),
(2120,1312,o),
(1883,1323,cs),
(1736,1330,o),
(1473,1333,o),
(1426,1333,c),
(1305,881,o),
(1176,464,o),
(1034,66,c),
(1120,44,o),
(1338,20,o),
(1409,15,c),
(1449,127,o),
(1542,426,o),
(1577,555,c),
(1598,556,o),
(1649,563,o),
(1669,567,c),
(1669,461,o),
(1641,145,o),
(1625,-14,c)
);
},
{
closed = 1;
nodes = (
(1685,848,o),
(1666,849,o),
(1647,851,c),
(1657,899,o),
(1675,978,o),
(1691,1035,c),
(1703,1036,o),
(1721,1036,o),
(1742,1036,cs),
(1857,1036,o),
(1942,1029,o),
(1942,971,cs),
(1942,870,o),
(1823,848,o),
(1711,848,cs)
);
},
{
alignment = -1;
ref = R;
}
);
width = 2208;
}
);
metricLeft = R;
metricRight = R;
},
{
glyphname = S_S;
kernLeft = S;
kernRight = S;
lastChange = "2020-07-22 15:24:44 +0000";
layers = (
{
anchors = (
{
name = caret_1;
pos = (1088,0);
}
);
layerId = "82219AB4-7C60-4B3A-9196-329BE868CB10";
shapes = (
{
closed = 1;
nodes = (
(799,10,o),
(1033,169,o),
(1033,447,cs),
(1033,624,o),
(862,734,o),
(630,799,cs),
(513,832,o),
(393,888,o),
(393,1010,cs),
(393,1174,o),
(538,1238,o),
(723,1238,cs),
(983,1238,o),
(1099,1142,o),
(1129,1117,c),
(1141,1132,o),
(1168,1176,o),
(1175,1191,c),
(1145,1216,o),
(983,1309,o),
(747,1309,cs),
(497,1309,o),
(303,1220,o),
(303,985,cs),
(303,855,o),
(420,766,o),
(614,715,cs),
(810,664,o),
(941,568,o),
(941,431,cs),
(941,223,o),
(734,91,o),
(496,91,cs),
(260,91,o),
(153,176,o),
(87,296,c),
(58,279,o),
(20,253,o),
(3,240,c),
(45,153,o),
(151,10,o),
(486,10,cs)
);
},
{
alignment = -1;
pos = (1083,0);
ref = S;
}
);
width = 2235;
},
{
anchors = (
{
name = caret_1;
pos = (1048,0);
}
);
layerId = "63DB0068-8B02-4205-807F-6F2453D24B26";
shapes = (
{
closed = 1;
nodes = (
(821,8,o),
(1101,144,o),
(1101,465,cs),
(1101,678,o),
(956,775,o),
(690,870,cs),
(608,899,o),
(588,926,o),
(588,949,cs),
(588,993,o),
(645,1019,o),
(699,1019,cs),
(798,1019,o),
(888,968,o),
(956,913,c),
(997,954,o),
(1142,1112,o),
(1180,1156,c),
(1136,1221,o),
(945,1318,o),
(746,1318,cs),
(449,1318,o),
(200,1178,o),
(200,897,cs),
(200,761,o),
(294,644,o),
(494,575,cs),
(659,518,o),
(710,464,o),
(710,416,cs),
(710,347,o),
(632,316,o),
(534,316,cs),
(447,316,o),
(342,369,o),
(251,468,c),
(211,434,o),
(29,276,o),
(-33,212,c),
(109,59,o),
(305,8,o),
(483,8,cs)
);
},
{
alignment = -1;
pos = (1092,0);
ref = S;
}
);
width = 2244;
}
);
metricLeft = S;
metricRight = S;
},
{
glyphname = T_T;
kernLeft = T;
kernRight = T;
lastChange = "2020-07-22 15:24:47 +0000";
layers = (
{
anchors = (
{
name = caret_1;
pos = (905,0);
}
);
layerId = "82219AB4-7C60-4B3A-9196-329BE868CB10";
shapes = (
{
closed = 1;
nodes = (
(1259,1218,o),
(1452,1223,o),
(1570,1223,c),
(1517,1045,o),
(1355,443,o),
(1242,20,c),
(1260,20,o),
(1326,21,o),
(1344,24,c),
(1352,86,o),
(1607,1047,o),
(1653,1219,c),
(1787,1219,o),
(2067,1195,o),
(2090,1193,c),
(2098,1217,o),
(2107,1253,o),
(2107,1269,c),
(1991,1285,o),
(1650,1299,o),
(1222,1299,c),
(1216,1272,o),
(1209,1240,o),
(1205,1216,c)
);
},
{
alignment = -1;
ref = T;
}
);
width = 1951;
},
{
anchors = (
{
name = caret_1;
pos = (905,0);
}
);
layerId = "63DB0068-8B02-4205-807F-6F2453D24B26";
shapes = (
{
closed = 1;
nodes = (
(1173,908,o),
(1303,905,o),
(1352,905,c),
(1278,699,o),
(1112,198,o),
(1060,15,c),
(1127,3,o),
(1371,-6,o),
(1474,-6,c),
(1492,61,o),
(1678,717,o),
(1728,888,c),
(1767,888,o),
(1927,868,o),
(1955,857,c),
(1989,912,o),
(2054,1059,o),
(2111,1220,c),
(2011,1242,o),
(1520,1257,o),
(1232,1257,c),
(1222,1230,o),
(1141,992,o),
(1121,915,c)
);
},
{
alignment = -1;
ref = T;
}
);
width = 1977;
}
);
metricLeft = T;
metricRight = T;
},
{
glyphname = a;
kernLeft = a;
kernRight = a;
lastChange = "2020-06-18 18:47:30 +0000";
layers = (
{
anchors = (
{
name = bottom;
pos = (476,0);
},
{
name = ogonek;
pos = (1046,10);
},
{
name = top;
pos = (750,1063);
}
);
layerId = "82219AB4-7C60-4B3A-9196-329BE868CB10";
shapes = (
{
closed = 1;
nodes = (
(606,-24,o),
(813,75,o),
(881,145,c),
(881,46,o),
(914,0,o),
(1001,0,cs),
(1086,0,o),
(1186,73,o),
(1230,236,c),
(1145,249,l),
(1118,149,o),
(1069,92,o),
(1019,92,cs),
(989,92,o),
(973,100,o),
(973,141,cs),
(973,234,o),
(1015,379,o),
(1054,513,cs),
(1076,590,o),
(1089,662,o),
(1089,719,cs),
(1089,939,o),
(935,1055,o),
(707,1055,cs),
(491,1055,o),
(306,956,o),
(187,822,c),
(251,767,l),
(350,881,o),
(495,975,o),
(689,975,cs),
(867,975,o),
(1009,904,o),
(1009,742,cs),
(1009,688,o),
(1006,658,o),
(996,611,c),
(966,621,o),
(797,665,o),
(636,665,cs),
(336,665,o),
(44,542,o),
(44,259,cs),
(44,66,o),
(183,-24,o),
(415,-24,cs)
);
},
{
closed = 1;
nodes = (
(237,55,o),
(132,112,o),
(132,273,cs),
(132,486,o),
(380,586,o),
(612,586,cs),
(796,586,o),
(930,545,o),
(973,530,c),
(948,448,o),
(925,372,o),
(892,250,c),
(767,135,o),
(596,55,o),
(432,55,cs)
);
}
);
width = 1295;
},
{
anchors = (
{
name = bottom;
pos = (475,0);
},
{
name = ogonek;
pos = (1064,0);
},
{
name = top;
pos = (748,1063);
}
);
layerId = "63DB0068-8B02-4205-807F-6F2453D24B26";
shapes = (
{
closed = 1;
nodes = (
(600,-15,o),
(762,80,o),
(806,179,c),
(806,53,o),
(871,-11,o),
(990,-11,cs),
(1101,-11,o),
(1176,27,o),
(1204,55,c),
(1159,318,l),
(1140,305,o),
(1120,297,o),
(1089,297,cs),
(1066,297,o),
(1054,306,o),
(1054,342,cs),
(1054,391,o),
(1066,450,o),
(1082,511,cs),
(1103,591,o),
(1121,679,o),
(1121,754,cs),
(1121,995,o),
(961,1076,o),
(688,1076,cs),
(474,1076,o),
(257,992,o),
(132,869,c),
(379,677,l),
(420,725,o),
(537,775,o),
(624,775,cs),
(705,775,o),
(744,754,o),
(769,718,cs),
(784,696,o),
(785,644,o),
(785,629,c),
(760,652,o),
(666,675,o),
(583,675,cs),
(293,675,o),
(1,577,o),
(1,275,cs),
(1,63,o),
(154,-15,o),
(381,-15,cs)
);
},
{
closed = 1;
nodes = (
(432,272,o),
(401,294,o),
(401,340,cs),
(401,399,o),
(514,423,o),
(596,423,cs),
(654,423,o),
(727,413,o),
(748,402,c),
(744,387,o),
(738,350,o),
(738,335,c),
(706,304,o),
(597,272,o),
(525,272,cs)
);
}
);
width = 1295;
}
);
unicode = 97;
},
{
glyphname = a.ss01;
kernLeft = a;
kernRight = n;
lastChange = "2020-06-18 18:47:49 +0000";
layers = (
{
anchors = (
{
name = bottom;
pos = (457.585,0);
},
{
name = ogonek;
pos = (936,19);
},
{
name = top;
pos = (742.415,1063);
}
);
layerId = "82219AB4-7C60-4B3A-9196-329BE868CB10";
shapes = (
{
closed = 1;
nodes = (
(684,-9,o),
(854,144,o),
(871,173,c),
(869,157,o),
(846,48,o),
(837,9,c),
(871,9,o),
(907,14,o),
(936,19,c),
(945,83,o),
(1080,712,o),
(1163,1021,c),
(1147,1025,o),
(1115,1029,o),
(1084,1029,c),
(1075,993,o),
(1063,949,o),
(1059,935,c),
(1018,960,o),
(875,1035,o),
(712,1035,cs),
(353,1035,o),
(86,729,o),
(86,353,cs),
(86,140,o),
(184,-9,o),
(413,-9,cs)
);
},
{
closed = 1;
nodes = (
(258,69,o),
(175,187,o),
(175,360,cs),
(175,684,o),
(390,956,o),
(711,956,cs),
(879,956,o),
(994,878,o),
(1036,849,c),
(1018,780,o),
(917,379,o),
(904,309,c),
(878,276,o),
(713,69,o),
(454,69,cs)
);
}
);
width = 1200;
},
{
anchors = (
{
name = bottom;
pos = (457.585,0);
},
{
name = ogonek;
pos = (1029,17);
},
{
name = top;
pos = (742.415,1063);
}
);
layerId = "63DB0068-8B02-4205-807F-6F2453D24B26";
shapes = (
{
closed = 1;
nodes = (
(550,-10,o),
(644,42,o),
(682,99,c),
(678,77,o),
(669,19,o),
(666,-3,c),
(782,-3,o),
(958,10,o),
(1029,17,c),
(1036,46,o),
(1235,906,o),
(1253,1036,c),
(1196,1041,o),
(994,1044,o),
(927,1044,c),
(917,1024,o),
(896,978,o),
(879,918,c),
(877,934,o),
(811,1007,o),
(657,1007,cs),
(295,1007,o),
(63,713,o),
(63,344,cs),
(63,141,o),
(163,-10,o),
(409,-10,cs)
);
},
{
closed = 1;
nodes = (
(474,359,o),
(428,389,o),
(428,458,cs),
(428,578,o),
(512,673,o),
(640,673,cs),
(697,673,o),
(756,658,o),
(789,638,c),
(774,579,o),
(754,493,o),
(743,436,c),
(673,366,o),
(598,359,o),
(534,359,cs)
);
}
);
width = 1200;
}
);
},
{
glyphname = aogonek;
lastChange = "2020-07-03 19:58:07 +0000";
layers = (
{
layerId = "82219AB4-7C60-4B3A-9196-329BE868CB10";
shapes = (
{
closed = 1;
nodes = (
(1094,-393,o),
(1045,-413,o),
(951,-413,cs),
(861,-413,o),
(804,-382,o),
(804,-280,cs),
(804,-167,o),
(934,-33,o),
(1046,10,c),
(981,55,l),
(842,-4,o),
(718,-144,o),
(718,-287,cs),
(718,-416,o),
(798,-493,o),
(935,-493,cs),
(1039,-493,o),
(1111,-471,o),
(1167,-447,c),
(1167,-360,l)
);
},
{
ref = a;
}
);
width = 1295;
},
{
layerId = "63DB0068-8B02-4205-807F-6F2453D24B26";
shapes = (
{
closed = 1;
nodes = (
(1139,-282,o),
(1094,-291,o),
(1051,-291,cs),
(998,-291,o),
(944,-267,o),
(944,-195,cs),
(944,-115,o),
(1019,-31,o),
(1064,0,c),
(928,58,l),
(863,39,o),
(681,-112,o),
(681,-284,cs),
(681,-451,o),
(825,-536,o),
(983,-536,cs),
(1087,-536,o),
(1149,-523,o),
(1178,-511,c),
(1178,-254,l)
);
},
{
ref = a;
}
);
width = 1295;
}
);
unicode = 261;
},
{
glyphname = aogonek.ss01;
lastChange = "2020-07-21 16:05:02 +0000";
layers = (
{
layerId = "82219AB4-7C60-4B3A-9196-329BE868CB10";
shapes = (
{
closed = 1;
nodes = (
(984,-384,o),
(935,-404,o),
(841,-404,cs),
(751,-404,o),
(694,-373,o),
(694,-271,cs),
(694,-158,o),
(824,-24,o),
(936,19,c),
(871,64,l),
(732,5,o),
(608,-135,o),
(608,-278,cs),
(608,-407,o),
(688,-484,o),
(825,-484,cs),
(929,-484,o),
(1001,-462,o),
(1057,-438,c),
(1057,-351,l)
);
},
{
ref = a.ss01;
}
);
width = 1200;
},
{
layerId = "63DB0068-8B02-4205-807F-6F2453D24B26";
shapes = (
{
closed = 1;
nodes = (
(974,-265,o),
(929,-274,o),
(886,-274,cs),
(833,-274,o),
(779,-250,o),
(779,-178,cs),
(779,-98,o),
(854,-14,o),
(899,17,c),
(763,75,l),
(698,56,o),
(516,-95,o),
(516,-267,cs),
(516,-434,o),
(660,-519,o),
(818,-519,cs),
(922,-519,o),
(984,-506,o),
(1013,-494,c),
(1013,-237,l)
);
},
{
ref = a.ss01;
}
);
width = 1200;
}
);
},
{
glyphname = ae;
kernLeft = a;
kernRight = e;
lastChange = "2020-06-29 16:07:46 +0000";
layers = (
{
anchors = (
{
name = bottom;
pos = (711,0);
},
{
name = top;
pos = (1007,1063);
}
);
layerId = "82219AB4-7C60-4B3A-9196-329BE868CB10";
shapes = (
{
closed = 1;
nodes = (
(582,22,o),
(838,170,o),
(879,368,cs),
(920,566,o),
(945,702,o),
(945,800,cs),
(945,991,o),
(816,1105,o),
(626,1105,cs),
(394,1105,o),
(229,978,o),
(139,865,c),
(194,806,l),
(276,928,o),
(422,1027,o),
(603,1027,cs),
(786,1027,o),
(854,924,o),
(854,758,cs),
(854,724,o),
(851,687,o),
(846,648,c),
(817,658,o),
(604,692,o),
(506,692,cs),
(248,692,o),
(11,536,o),
(11,284,cs),
(11,99,o),
(169,22,o),
(354,22,cs)
);
},
{
closed = 1;
nodes = (
(210,94,o),
(102,149,o),
(102,295,cs),
(102,489,o),
(277,617,o),
(471,617,cs),
(613,617,o),
(791,587,o),
(834,575,c),
(826,518,o),
(812,434,o),
(799,383,cs),
(768,261,o),
(573,94,o),
(345,94,cs)
);
},
{
alignment = -1;
pos = (746,0);
ref = e;
}
);
width = 1762;
},
{
anchors = (
{
name = bottom;
pos = (775,0);
},
{
name = top;
pos = (1069,1063);
}
);
layerId = "63DB0068-8B02-4205-807F-6F2453D24B26";
shapes = (
{
closed = 1;
nodes = (
(765,-18,o),
(1048,190,o),
(1122,462,cs),
(1144,543,o),
(1159,624,o),
(1159,704,cs),
(1159,970,o),
(1008,1115,o),
(732,1115,cs),
(568,1115,o),
(315,1039,o),
(199,952,c),
(413,727,l),
(471,768,o),
(591,798,o),
(670,798,cs),
(753,798,o),
(811,767,o),
(811,694,cs),
(811,681,o),
(809,667,o),
(805,653,c),
(780,677,o),
(663,684,o),
(610,684,cs),
(334,684,o),
(51,599,o),
(51,318,cs),
(51,98,o),
(222,-18,o),
(468,-18,cs)
);
},
{
closed = 1;
nodes = (
(459,272,o),
(407,274,o),
(407,318,cs),
(407,405,o),
(559,428,o),
(652,428,cs),
(691,428,o),
(727,422,o),
(754,408,c),
(753,391,o),
(748,368,o),
(741,343,cs),
(733,313,o),
(643,272,o),
(511,272,cs)
);
},
{
alignment = -1;
pos = (768,0);
ref = e;
}
);
width = 1867;
}
);
unicode = 230;
},
{
glyphname = b;
kernLeft = h;
kernRight = o;
lastChange = "2020-06-17 15:15:09 +0000";
layers = (
{
anchors = (
{
name = bottom;
pos = (438,0);
},
{
name = top;
pos = (831,1470);
}
);
layerId = "82219AB4-7C60-4B3A-9196-329BE868CB10";
shapes = (
{
closed = 1;
nodes = (
(129,-22,o),
(193,-20,o),
(208,-19,c),
(214,12,o),
(229,74,o),
(239,113,c),
(273,76,o),
(366,6,o),
(532,6,cs),
(882,6,o),
(1056,295,o),
(1056,558,cs),
(1056,791,o),
(990,923,o),
(757,923,cs),
(557,923,o),
(399,774,o),
(374,744,c),
(427,991,o),
(487,1268,o),
(526,1432,c),
(505,1432,o),
(461,1430,o),
(442,1427,c),
(385,1215,o),
(138,142,o),
(107,-22,c)
);
},
{
closed = 1;
nodes = (
(274,258,o),
(339,573,o),
(347,616,c),
(427,699,o),
(588,844,o),
(741,844,cs),
(923,844,o),
(962,743,o),
(962,546,cs),
(962,295,o),
(804,88,o),
(548,88,cs),
(373,88,o),
(286,183,o),
(265,219,c)
);
}
);
width = 1200;
},
{
anchors = (
{
name = bottom;
pos = (457.585,0);
},
{
name = top;
pos = (851.47,1470);
}
);
layerId = "63DB0068-8B02-4205-807F-6F2453D24B26";
shapes = (
{
closed = 1;
nodes = (
(80,-15,o),
(242,-19,o),
(368,-19,c),
(370,-2,o),
(387,75,o),
(396,114,c),
(413,73,o),
(516,0,o),
(653,0,cs),
(962,0,o),
(1163,262,o),
(1163,591,cs),
(1163,815,o),
(1043,918,o),
(854,918,cs),
(734,918,o),
(631,861,o),
(540,786,c),
(593,1052,o),
(664,1326,o),
(697,1441,c),
(484,1409,o),
(329,1380,o),
(310,1376,c),
(253,1164,o),
(13,162,o),
(-19,-2,c)
);
},
{
closed = 1;
nodes = (
(460,403,o),
(477,479,o),
(482,501,c),
(520,539,o),
(593,603,o),
(711,603,cs),
(781,603,o),
(808,565,o),
(808,513,cs),
(808,405,o),
(737,342,o),
(616,342,cs),
(558,342,o),
(482,361,o),
(455,378,c)
);
}
);
width = 1200;
}
);
unicode = 98;
},
{
glyphname = c;
kernLeft = o;
kernRight = c;
lastChange = "2020-01-13 21:19:07 +0000";
layers = (
{
anchors = (
{
name = bottom;
pos = (399,0);
},
{
name = top;
pos = (645,1063);
}
);
layerId = "82219AB4-7C60-4B3A-9196-329BE868CB10";
shapes = (
{
closed = 1;
nodes = (
(783,246,l),
(766,216,o),
(640,73,o),
(434,73,cs),
(244,73,o),
(172,195,o),
(172,368,cs),
(172,695,o),
(367,1023,o),
(677,1023,cs),
(905,1023,o),
(932,861,o),
(936,821,c),
(1008,880,l),
(991,980,o),
(879,1094,o),
(695,1094,cs),
(325,1094,o),
(82,757,o),
(82,370,cs),
(82,154,o),
(186,-4,o),
(415,-4,cs),
(616,-4,o),
(782,113,o),
(844,203,c)
);
}
);
width = 1026;
},
{
anchors = (
{
name = bottom;
pos = (403,0);
},
{
name = top;
pos = (655.415,1063);
}
);
layerId = "63DB0068-8B02-4205-807F-6F2453D24B26";
shapes = (
{
closed = 1;
nodes = (
(740,501,l),
(720,479,o),
(625,393,o),
(523,393,cs),
(441,393,o),
(416,445,o),
(416,513,cs),
(416,666,o),
(498,786,o),
(654,786,cs),
(746,786,o),
(765,727,o),
(767,711,c),
(1076,855,l),
(1028,1011,o),
(874,1096,o),
(686,1096,cs),
(311,1096,o),
(35,814,o),
(35,428,cs),
(35,174,o),
(154,-12,o),
(425,-12,cs),
(669,-12,o),
(859,105,o),
(936,215,c)
);
}
);
width = 1026;
}
);
unicode = 99;
},
{
glyphname = ccedilla;
kernLeft = o;
kernRight = c;
lastChange = "2020-07-08 20:02:44 +0000";
layers = (
{
layerId = "82219AB4-7C60-4B3A-9196-329BE868CB10";
shapes = (
{
closed = 1;
nodes = (
(540,-462,o),
(693,-400,o),
(693,-227,cs),
(693,-134,o),
(628,-87,o),
(532,-87,cs),
(484,-87,o),
(419,-106,o),
(400,-119,c),
(441,39,l),
(369,43,l),
(302,-212,l),
(345,-194,o),
(447,-159,o),
(505,-159,cs),
(577,-159,o),
(603,-189,o),
(603,-242,cs),
(603,-362,o),
(493,-392,o),
(347,-392,cs),
(296,-392,o),
(222,-374,o),
(184,-364,c),
(157,-437,l),
(176,-444,o),
(239,-462,o),
(343,-462,cs)
);
},
{
ref = c;
}
);
width = 1026;
},
{
layerId = "63DB0068-8B02-4205-807F-6F2453D24B26";
shapes = (
{
closed = 1;
nodes = (
(531,-537,o),
(784,-453,o),
(784,-231,cs),
(784,-124,o),
(720,-77,o),
(624,-77,cs),
(554,-77,o),
(495,-105,o),
(467,-139,c),
(512,39,l),
(292,27,l),
(201,-257,l),
(238,-244,o),
(322,-229,o),
(399,-229,cs),
(464,-229,o),
(515,-239,o),
(515,-272,cs),
(515,-315,o),
(446,-337,o),
(324,-337,cs),
(291,-337,o),
(209,-325,o),
(181,-312,c),
(92,-515,l),
(112,-520,o),
(192,-537,o),
(297,-537,cs)
);
},
{
ref = c;
}
);
width = 1026;
}
);
unicode = 231;
},
{
glyphname = d;
kernLeft = o;
kernRight = l;
lastChange = "2020-07-21 15:53:24 +0000";
layers = (
{
anchors = (
{
name = bottom;
pos = (455.585,0);
},
{
name = center;
pos = (1086,1222);
},
{
name = top;
pos = (849.47,1470);
},
{
name = topright;
pos = (1218,998);
}
);
layerId = "82219AB4-7C60-4B3A-9196-329BE868CB10";
shapes = (
{
closed = 1;
nodes = (
(799,2,o),
(847,1,o),
(874,1,c),
(996,456,o),
(1125,923,o),
(1291,1397,c),
(1273,1398,o),
(1237,1400,o),
(1208,1400,c),
(1176,1313,o),
(1051,944,o),
(1020,838,c),
(984,872,o),
(873,959,o),
(662,959,cs),
(317,959,o),
(76,732,o),
(76,381,cs),
(76,141,o),
(205,8,o),
(414,8,cs),
(700,8,o),
(833,184,o),
(845,203,c),
(837,174,o),
(802,44,o),
(791,3,c)
);
},
{
closed = 1;
nodes = (
(273,85,o),
(162,183,o),
(162,393,cs),
(162,697,o),
(353,878,o),
(659,878,cs),
(842,878,o),
(956,790,o),
(994,749,c),
(975,680,o),
(896,413,o),
(874,341,c),
(848,303,o),
(686,85,o),
(439,85,cs)
);
}
);
width = 1195;
},
{
anchors = (
{
name = bottom;
pos = (426,0);
},
{
name = center;
pos = (1054,1177);
},
{
name = top;
pos = (819,1470);
},
{
name = topright;
pos = (1277,1023);
}
);
layerId = "63DB0068-8B02-4205-807F-6F2453D24B26";
shapes = (
{
closed = 1;
nodes = (
(708,-5,o),
(901,-8,o),
(957,-8,c),
(1093,516,o),
(1216,963,o),
(1371,1418,c),
(1285,1443,o),
(1157,1454,o),
(1064,1454,c),
(1034,1379,o),
(919,1060,o),
(863,851,c),
(843,908,o),
(727,959,o),
(598,959,cs),
(266,959,o),
(31,714,o),
(31,379,cs),
(31,175,o),
(184,-3,o),
(367,-3,cs),
(541,-3,o),
(609,66,o),
(655,120,c),
(645,84,o),
(632,27,o),
(629,3,c)
);
},
{
closed = 1;
nodes = (
(447,361,o),
(401,399,o),
(401,471,cs),
(401,573,o),
(490,645,o),
(590,645,cs),
(655,645,o),
(737,615,o),
(768,574,c),
(758,542,o),
(743,487,o),
(730,439,c),
(663,378,o),
(581,361,o),
(513,361,cs)
);
}
);
width = 1195;
}
);
unicode = 100;
},
{
glyphname = dcroat;
kernLeft = o;
kernRight = l;
lastChange = "2020-06-18 20:04:41 +0000";
layers = (
{
layerId = "82219AB4-7C60-4B3A-9196-329BE868CB10";
shapes = (
{
closed = 1;
nodes = (
(1359,1152,o),
(1360,1169,o),
(1360,1188,c),
(1296,1200,o),
(908,1229,o),
(766,1229,c),
(762,1222,o),
(754,1194,o),
(748,1170,c),
(916,1170,o),
(1189,1153,o),
(1355,1138,c)
);
},
{
ref = d;
}
);
width = 1195;
},
{
layerId = "63DB0068-8B02-4205-807F-6F2453D24B26";
shapes = (
{
closed = 1;
nodes = (
(1357,1133,o),
(1377,1188,o),
(1393,1245,c),
(1249,1273,o),
(874,1300,o),
(739,1300,c),
(728,1270,o),
(697,1184,o),
(675,1099,c),
(791,1099,o),
(1133,1089,o),
(1333,1073,c)
);
},
{
ref = d;
}
);
width = 1195;
}
);
unicode = 273;
},
{
glyphname = eth;
kernLeft = h;
kernRight = b;
lastChange = "2020-06-18 20:06:06 +0000";
layers = (
{
layerId = "82219AB4-7C60-4B3A-9196-329BE868CB10";
shapes = (
{
closed = 1;
nodes = (
(786,-17,o),
(1032,326,o),
(1032,687,cs),
(1032,891,o),
(920,1026,o),
(716,1118,c),
(753,1169,o),
(828,1280,o),
(857,1330,c),
(767,1366,l),
(743,1309,o),
(670,1195,o),
(638,1154,c),
(606,1166,o),
(432,1229,o),
(378,1244,c),
(323,1179,l),
(378,1162,o),
(520,1117,o),
(583,1084,c),
(558,1056,o),
(449,938,o),
(430,923,c),
(445,912,o),
(477,896,o),
(499,887,c),
(550,923,o),
(625,1003,o),
(660,1046,c),
(795,998,o),
(946,874,o),
(946,730,c),
(926,790,o),
(811,846,o),
(671,846,cs),
(342,846,o),
(94,601,o),
(94,278,cs),
(94,88,o),
(221,-17,o),
(446,-17,cs)
);
},
{
closed = 1;
nodes = (
(284,53,o),
(190,130,o),
(190,300,cs),
(190,576,o),
(405,774,o),
(680,774,cs),
(825,774,o),
(917,687,o),
(917,554,cs),
(917,302,o),
(694,53,o),
(439,53,cs)
);
}
);
width = 1200;
},
{
layerId = "63DB0068-8B02-4205-807F-6F2453D24B26";
shapes = (
{
closed = 1;
nodes = (
(888,-17,o),
(1142,297,o),
(1142,724,cs),
(1142,950,o),
(1054,1088,o),
(858,1188,c),
(894,1229,o),
(920,1271,o),
(949,1321,c),
(702,1412,l),
(672,1366,o),
(649,1333,o),
(617,1292,c),
(586,1304,o),
(505,1325,o),
(448,1330,c),
(231,1075,l),
(292,1063,o),
(352,1048,o),
(395,1032,c),
(370,1005,o),
(340,977,o),
(303,949,c),
(349,926,o),
(446,877,o),
(516,836,c),
(560,871,o),
(608,910,o),
(650,950,c),
(676,938,o),
(748,874,o),
(775,826,c),
(761,832,o),
(727,839,o),
(695,839,cs),
(364,839,o),
(55,651,o),
(55,321,cs),
(55,88,o),
(222,-17,o),
(479,-17,cs)
);
},
{
closed = 1;
nodes = (
(482,297,o),
(400,329,o),
(400,396,cs),
(400,503,o),
(519,563,o),
(640,563,cs),
(724,563,o),
(763,529,o),
(763,469,cs),
(763,354,o),
(651,297,o),
(545,297,cs)
);
}
);
width = 1200;
}
);
unicode = 240;
},
{
glyphname = e;
kernLeft = o;
kernRight = e;
lastChange = "2020-07-16 19:45:19 +0000";
layers = (
{
anchors = (
{
name = bottom;
pos = (424,10);
},
{
name = ogonek;
pos = (612,53);
},
{
name = top;
pos = (728,1063);
}
);
layerId = "82219AB4-7C60-4B3A-9196-329BE868CB10";
shapes = (
{
closed = 1;
nodes = (
(953,284,o),
(922,319,o),
(908,333,c),
(898,319,o),
(728,101,o),
(459,101,cs),
(278,101,o),
(165,229,o),
(165,381,cs),
(165,423,o),
(169,468,o),
(176,498,c),
(258,509,o),
(485,523,o),
(629,528,cs),
(781,533,o),
(966,535,o),
(985,535,c),
(1006,615,o),
(1017,679,o),
(1017,746,cs),
(1017,942,o),
(917,1070,o),
(714,1070,cs),
(363,1070,o),
(85,799,o),
(85,419,cs),
(85,165,o),
(222,27,o),
(453,27,cs),
(731,27,o),
(904,207,o),
(956,266,c)
);
},
{
closed = 1;
nodes = (
(237,849,o),
(483,984,o),
(702,984,cs),
(880,984,o),
(934,869,o),
(934,751,cs),
(934,704,o),
(928,651,o),
(918,615,c),
(907,615,o),
(779,612,o),
(658,609,cs),
(451,604,o),
(255,589,o),
(188,578,c)
);
}
);
width = 1092;
},
{
anchors = (
{
name = bottom;
pos = (403,10);
},
{
name = ogonek;
pos = (678,18);
},
{
name = top;
pos = (737,1063);
}
);
layerId = "63DB0068-8B02-4205-807F-6F2453D24B26";
shapes = (
{
closed = 1;
nodes = (
(950,253,o),
(811,429,o),
(797,442,c),
(698,368,o),
(635,349,o),
(560,349,cs),
(482,349,o),
(417,375,o),
(417,440,cs),
(417,461,o),
(420,472,o),
(425,482,c),
(476,491,o),
(570,502,o),
(673,502,cs),
(718,502,o),
(1014,497,o),
(1056,495,c),
(1096,562,o),
(1118,654,o),
(1118,736,cs),
(1118,945,o),
(974,1063,o),
(727,1063,cs),
(336,1063,o),
(30,792,o),
(30,363,cs),
(30,116,o),
(205,-16,o),
(467,-16,cs),
(708,-16,o),
(865,50,o),
(978,152,c)
);
},
{
closed = 1;
nodes = (
(516,748,o),
(581,831,o),
(680,831,cs),
(749,831,o),
(792,793,o),
(794,744,cs),
(794,734,o),
(794,724,o),
(791,714,c),
(774,715,o),
(728,717,o),
(682,717,cs),
(600,717,o),
(538,710,o),
(499,704,c)
);
}
);
width = 1123;
}
);
unicode = 101;
},
{
glyphname = ecedillabreve;
lastChange = "2020-07-08 20:02:37 +0000";
layers = (
{
layerId = "82219AB4-7C60-4B3A-9196-329BE868CB10";
shapes = (
{
closed = 1;
nodes = (
(565,-452,o),
(718,-390,o),
(718,-217,cs),
(718,-124,o),
(653,-77,o),
(557,-77,cs),
(509,-77,o),
(444,-96,o),
(425,-109,c),
(466,49,l),
(394,53,l),
(327,-202,l),
(370,-184,o),
(472,-149,o),
(530,-149,cs),
(602,-149,o),
(628,-179,o),
(628,-232,cs),
(628,-352,o),
(518,-382,o),
(372,-382,cs),
(321,-382,o),
(247,-364,o),
(209,-354,c),
(182,-427,l),
(201,-434,o),
(264,-452,o),
(368,-452,cs)
);
},
{
ref = e;
},
{
pos = (145,10);
ref = brevecomb;
}
);
width = 1092;
},
{
layerId = "63DB0068-8B02-4205-807F-6F2453D24B26";
shapes = (
{
closed = 1;
nodes = (
(541,-537,o),
(794,-453,o),
(794,-231,cs),
(794,-124,o),
(730,-77,o),
(634,-77,cs),
(564,-77,o),
(505,-105,o),
(477,-139,c),
(522,39,l),
(302,27,l),
(211,-257,l),
(248,-244,o),
(332,-229,o),
(409,-229,cs),
(474,-229,o),
(525,-239,o),
(525,-272,cs),
(525,-315,o),
(456,-337,o),
(334,-337,cs),
(301,-337,o),
(219,-325,o),
(191,-312,c),
(102,-515,l),
(122,-520,o),
(202,-537,o),
(307,-537,cs)
);
},
{
ref = e;
},
{
pos = (118,10);
ref = brevecomb;
}
);
width = 1123;
}
);
unicode = 7709;
},
{
glyphname = eogonek;
kernLeft = o;
kernRight = e;
lastChange = "2020-07-21 16:08:27 +0000";
layers = (
{
layerId = "82219AB4-7C60-4B3A-9196-329BE868CB10";
shapes = (
{
closed = 1;
nodes = (
(780,-310,o),
(731,-330,o),
(637,-330,cs),
(547,-330,o),
(490,-299,o),
(490,-197,cs),
(490,-84,o),
(620,50,o),
(732,93,c),
(667,138,l),
(528,79,o),
(404,-61,o),
(404,-204,cs),
(404,-333,o),
(484,-410,o),
(621,-410,cs),
(725,-410,o),
(797,-388,o),
(853,-364,c),
(853,-277,l)
);
},
{
ref = e;
}
);
width = 1092;
},
{
layerId = "63DB0068-8B02-4205-807F-6F2453D24B26";
shapes = (
{
closed = 1;
nodes = (
(753,-264,o),
(708,-273,o),
(665,-273,cs),
(612,-273,o),
(558,-249,o),
(558,-177,cs),
(558,-97,o),
(633,-13,o),
(678,18,c),
(542,76,l),
(477,57,o),
(295,-94,o),
(295,-266,cs),
(295,-433,o),
(439,-518,o),
(597,-518,cs),
(701,-518,o),
(763,-505,o),
(792,-493,c),
(792,-236,l)
);
},
{
ref = e;
}
);
width = 1123;
}
);
unicode = 281;
},
{
glyphname = schwa;
kernLeft = o;
kernRight = o;
lastChange = "2020-02-19 21:15:26 +0000";
layers = (
{
anchors = (
{
name = bottom;
pos = (373.585,0);
},
{
name = ogonek;
pos = (445,43);
},
{
name = top;
pos = (658.415,1063);
}
);
layerId = "82219AB4-7C60-4B3A-9196-329BE868CB10";
shapes = (
{
closed = 1;
nodes = (
(177,803,o),
(212,768,o),
(226,754,c),
(236,768,o),
(402,986,o),
(671,986,cs),
(845,986,o),
(936,886,o),
(936,726,cs),
(936,685,o),
(929,639,o),
(918,590,c),
(770,584,o),
(632,577,o),
(476,570,cs),
(333,564,o),
(163,559,o),
(144,559,c),
(127,493,o),
(112,408,o),
(112,341,cs),
(112,145,o),
(214,17,o),
(417,17,cs),
(770,17,o),
(1017,360,o),
(1017,730,cs),
(1017,932,o),
(911,1060,o),
(683,1060,cs),
(415,1060,o),
(216,880,o),
(174,821,c)
);
},
{
closed = 1;
nodes = (
(823,238,o),
(647,103,o),
(428,103,cs),
(245,103,o),
(196,235,o),
(196,355,cs),
(196,398,o),
(203,441,o),
(212,475,c),
(223,475,o),
(316,485,o),
(428,489,cs),
(632,497,o),
(779,503,o),
(902,509,c)
);
}
);
width = 1032;
},
{
anchors = (
{
name = bottom;
pos = (373.585,0);
},
{
name = ogonek;
pos = (439,20);
},
{
name = top;
pos = (658.415,1063);
}
);
layerId = "63DB0068-8B02-4205-807F-6F2453D24B26";
shapes = (
{
closed = 1;
nodes = (
(160,786,o),
(247,646,o),
(261,633,c),
(369,707,o),
(493,721,o),
(543,721,cs),
(621,721,o),
(679,676,o),
(679,610,cs),
(679,596,o),
(679,581,o),
(674,565,c),
(624,558,o),
(527,545,o),
(423,542,cs),
(331,539,o),
(89,532,o),
(56,532,c),
(16,456,o),
(-5,375,o),
(-5,282,cs),
(-5,79,o),
(134,-16,o),
(363,-16,cs),
(759,-16,o),
(1030,284,o),
(1030,681,cs),
(1030,918,o),
(866,1063,o),
(663,1063,cs),
(485,1063,o),
(265,999,o),
(142,897,c)
);
},
{
closed = 1;
nodes = (
(589,329,o),
(519,226,o),
(420,226,cs),
(351,226,o),
(306,264,o),
(306,313,cs),
(306,323,o),
(306,333,o),
(309,343,c),
(324,343,o),
(374,347,o),
(421,351,cs),
(505,358,o),
(567,367,o),
(606,373,c)
);
}
);
width = 1032;
}
);
unicode = 601;
},
{
glyphname = f;
kernLeft = f;
kernRight = f;
lastChange = "2020-07-16 19:17:22 +0000";
layers = (
{
anchors = (
{
name = bottom;
pos = (305.585,0);
},
{
name = top;
pos = (699.47,1470);
}
);
layerId = "82219AB4-7C60-4B3A-9196-329BE868CB10";
shapes = (
{
closed = 1;
nodes = (
(232,3,o),
(283,12,o),
(314,19,c),
(314,115,o),
(340,472,o),
(354,583,c),
(486,600,o),
(673,614,o),
(692,614,c),
(699,639,o),
(705,672,o),
(706,691,c),
(633,691,o),
(435,670,o),
(363,660,c),
(374,728,o),
(394,840,o),
(413,912,cs),
(465,1108,o),
(562,1293,o),
(750,1293,cs),
(933,1293,o),
(958,1081,o),
(962,1046,c),
(982,1058,o),
(1030,1092,o),
(1045,1106,c),
(1039,1167,o),
(967,1368,o),
(758,1368,cs),
(539,1368,o),
(394,1170,o),
(329,923,cs),
(307,839,o),
(288,737,o),
(275,646,c),
(246,641,o),
(82,603,o),
(54,593,c),
(54,578,o),
(54,534,o),
(53,520,c),
(98,535,o),
(197,559,o),
(263,571,c),
(238,368,o),
(216,21,o),
(215,2,c)
);
}
);
width = 896;
},
{
anchors = (
{
name = bottom;
pos = (305.585,0);
},
{
name = top;
pos = (699.47,1470);
}
);
layerId = "63DB0068-8B02-4205-807F-6F2453D24B26";
shapes = (
{
closed = 1;
nodes = (
(212,-15,o),
(413,-12,o),
(515,4,c),
(519,55,o),
(549,400,o),
(557,475,c),
(607,479,o),
(731,482,o),
(750,482,c),
(776,576,o),
(808,709,o),
(821,796,c),
(784,802,o),
(663,809,o),
(603,809,c),
(603,827,o),
(605,849,o),
(610,868,cs),
(626,930,o),
(669,972,o),
(734,972,cs),
(770,972,o),
(811,945,o),
(834,898,c),
(878,944,o),
(1028,1115,o),
(1107,1213,c),
(1085,1265,o),
(1010,1357,o),
(779,1357,cs),
(486,1357,o),
(295,1133,o),
(231,898,cs),
(218,850,o),
(209,801,o),
(203,752,c),
(176,747,o),
(110,730,o),
(83,721,c),
(54,623,o),
(31,463,o),
(31,385,c),
(76,400,o),
(129,414,o),
(147,417,c),
(131,313,o),
(86,3,o),
(84,-15,c)
);
}
);
width = 896;
}
);
unicode = 102;
},
{
glyphname = g;
kernLeft = g.ss01;
kernRight = g.ss01;
lastChange = "2023-07-07 16:47:42 +0000";
layers = (
{
anchors = (
{
name = bottom;
pos = (331.572,-530);
},
{
name = top;
pos = (758.415,1063);
}
);
layerId = "82219AB4-7C60-4B3A-9196-329BE868CB10";
shapes = (
{
closed = 1;
nodes = (
(861,205,o),
(1094,424,o),
(1094,743,cs),
(1094,807,o),
(1080,863,o),
(1053,910,c),
(1117,964,o),
(1222,1049,o),
(1245,1067,c),
(1233,1078,o),
(1197,1115,o),
(1187,1132,c),
(1140,1094,o),
(1067,1029,o),
(1009,965,c),
(949,1023,o),
(859,1056,o),
(741,1056,cs),
(439,1056,o),
(192,827,o),
(192,531,cs),
(192,465,o),
(207,399,o),
(243,343,c),
(152,319,o),
(76,254,o),
(76,164,cs),
(76,123,o),
(96,78,o),
(135,47,c),
(-8,1,o),
(-125,-103,o),
(-125,-251,cs),
(-125,-420,o),
(59,-499,o),
(313,-499,cs),
(626,-499,o),
(883,-404,o),
(883,-128,cs),
(883,5,o),
(762,72,o),
(577,72,cs),
(485,72,o),
(393,72,o),
(301,72,cs),
(213,72,o),
(166,123,o),
(166,176,cs),
(166,227,o),
(211,268,o),
(284,293,c),
(340,240,o),
(425,205,o),
(548,205,cs)
);
},
{
closed = 1;
nodes = (
(132,-429,o),
(-32,-376,o),
(-32,-232,cs),
(-32,-84,o),
(137,2,o),
(279,2,cs),
(572,2,ls),
(675,2,o),
(791,-25,o),
(791,-148,cs),
(791,-360,o),
(563,-429,o),
(330,-429,cs)
);
},
{
closed = 1;
nodes = (
(370,282,o),
(281,394,o),
(281,540,cs),
(281,802,o),
(481,974,o),
(748,974,cs),
(924,974,o),
(1011,868,o),
(1011,723,cs),
(1011,463,o),
(816,282,o),
(542,282,cs)
);
}
);
width = 1231;
},
{
anchors = (
{
name = bottom;
pos = (331.572,-530);
},
{
name = top;
pos = (758.415,1063);
}
);
layerId = "63DB0068-8B02-4205-807F-6F2453D24B26";
shapes = (
{
closed = 1;
nodes = (
(939,274,o),
(1183,436,o),
(1183,737,cs),
(1183,771,o),
(1179,802,o),
(1171,831,c),
(1220,891,o),
(1290,930,o),
(1355,956,c),
(1324,1017,o),
(1271,1143,o),
(1251,1193,c),
(1169,1163,o),
(1061,1085,o),
(1002,1015,c),
(937,1042,o),
(852,1056,o),
(747,1056,cs),
(416,1056,o),
(129,922,o),
(129,606,cs),
(129,540,o),
(144,476,o),
(184,422,c),
(113,386,o),
(48,308,o),
(48,233,cs),
(48,191,o),
(71,155,o),
(132,124,c),
(-21,58,o),
(-132,-53,o),
(-132,-210,cs),
(-132,-430,o),
(71,-499,o),
(377,-499,cs),
(723,-499,o),
(1024,-373,o),
(1024,-46,cs),
(1024,123,o),
(914,207,o),
(724,207,cs),
(582,207,o),
(523,203,o),
(442,197,c),
(383,197,o),
(356,219,o),
(356,245,cs),
(356,262,o),
(369,282,o),
(394,298,c),
(457,283,o),
(534,274,o),
(626,274,cs)
);
},
{
closed = 1;
nodes = (
(320,-264,o),
(259,-230,o),
(259,-179,cs),
(259,-110,o),
(308,-77,o),
(388,-77,cs),
(537,-77,ls),
(596,-77,o),
(643,-95,o),
(643,-141,cs),
(643,-224,o),
(538,-264,o),
(431,-264,cs)
);
},
{
closed = 1;
nodes = (
(589,566,o),
(532,593,o),
(532,657,cs),
(532,750,o),
(631,774,o),
(710,774,cs),
(773,774,o),
(825,737,o),
(825,675,cs),
(825,591,o),
(748,566,o),
(664,566,cs)
);
}
);
width = 1231;
}
);
unicode = 103;
},
{
glyphname = g.ss01;
kernLeft = g;
kernRight = g;
lastChange = "2020-07-08 20:49:20 +0000";
layers = (
{
anchors = (
{
name = bottom;
pos = (342.572,-530);
},
{
name = top;
pos = (726,1063);
}
);
layerId = "82219AB4-7C60-4B3A-9196-329BE868CB10";
shapes = (
{
closed = 1;
nodes = (
(-1,-418,o),
(174,-471,o),
(355,-471,cs),
(699,-471,o),
(893,-268,o),
(994,103,cs),
(1019,195,o),
(1060,477,o),
(1079,614,cs),
(1097,745,o),
(1136,912,o),
(1188,1088,c),
(1180,1091,o),
(1164,1093,o),
(1149,1093,cs),
(1131,1093,o),
(1115,1092,o),
(1108,1091,c),
(1097,1065,o),
(1076,999,o),
(1066,961,c),
(1026,1019,o),
(908,1062,o),
(768,1062,cs),
(416,1062,o),
(154,814,o),
(154,454,cs),
(154,232,o),
(263,60,o),
(517,60,cs),
(739,60,o),
(890,156,o),
(929,193,c),
(927,172,o),
(922,146,o),
(907,91,cs),
(827,-201,o),
(653,-397,o),
(372,-397,cs),
(196,-397,o),
(31,-324,o),
(-24,-282,c),
(-38,-296,o),
(-72,-352,o),
(-78,-373,c)
);
},
{
closed = 1;
nodes = (
(330,135,o),
(242,283,o),
(242,468,cs),
(242,769,o),
(448,980,o),
(747,980,cs),
(887,980,o),
(1005,942,o),
(1042,861,c),
(1010,742,o),
(966,466,o),
(941,273,c),
(872,222,o),
(724,135,o),
(536,135,cs)
);
}
);
width = 1253;
},
{
anchors = (
{
name = bottom;
pos = (323,-530);
},
{
name = top;
pos = (677,1063);
}
);
layerId = "63DB0068-8B02-4205-807F-6F2453D24B26";
shapes = (
{
closed = 1;
nodes = (
(-6,-399,o),
(246,-479,o),
(470,-479,cs),
(766,-479,o),
(985,-347,o),
(1065,-48,cs),
(1096,69,o),
(1136,288,o),
(1177,518,cs),
(1213,720,o),
(1262,930,o),
(1319,1089,c),
(1261,1103,o),
(1189,1109,o),
(1103,1109,cs),
(1052,1109,o),
(975,1107,o),
(949,1103,c),
(930,1056,o),
(912,997,o),
(904,969,c),
(850,1013,o),
(735,1039,o),
(647,1039,cs),
(291,1039,o),
(30,828,o),
(30,465,cs),
(30,166,o),
(228,60,o),
(487,60,cs),
(551,60,o),
(628,61,o),
(714,99,c),
(711,79,o),
(707,60,o),
(702,43,cs),
(667,-76,o),
(594,-119,o),
(507,-119,cs),
(387,-119,o),
(245,-54,o),
(149,19,c),
(105,-19,o),
(-110,-266,o),
(-121,-286,c)
);
},
{
closed = 1;
nodes = (
(467,408,o),
(394,433,o),
(394,531,cs),
(394,651,o),
(497,711,o),
(636,711,cs),
(706,711,o),
(773,686,o),
(819,661,c),
(806,614,o),
(791,509,o),
(786,470,c),
(724,441,o),
(631,408,o),
(549,408,cs)
);
}
);
width = 1253;
}
);
},
{
glyphname = h;
kernLeft = h;
kernRight = n;
lastChange = "2020-07-16 19:17:42 +0000";
layers = (
{
anchors = (
{
name = bottom;
pos = (380,0);
},
{
name = center;
pos = (512,1265);
},
{
name = top;
pos = (451,1398);
}
);
layerId = "82219AB4-7C60-4B3A-9196-329BE868CB10";
shapes = (
{
closed = 1;
nodes = (
(151,60,o),
(241,349,o),
(304,585,c),
(345,658,o),
(529,827,o),
(726,827,cs),
(837,827,o),
(888,771,o),
(888,670,cs),
(888,506,o),
(765,189,o),
(677,-11,c),
(687,-13,o),
(706,-15,o),
(725,-15,cs),
(744,-15,o),
(763,-15,o),
(777,-14,c),
(868,216,o),
(976,508,o),
(976,669,cs),
(976,824,o),
(908,909,o),
(752,909,cs),
(587,909,o),
(414,812,o),
(337,716,c),
(410,988,o),
(482,1292,o),
(492,1443,c),
(476,1441,o),
(436,1431,o),
(415,1424,c),
(376,1234,o),
(317,981,o),
(251,733,cs),
(170,427,o),
(78,134,o),
(17,-26,c),
(25,-27,o),
(44,-29,o),
(62,-29,cs),
(80,-29,o),
(99,-29,o),
(113,-29,c)
);
}
);
width = 1123;
},
{
anchors = (
{
name = bottom;
pos = (419.585,0);
},
{
name = center;
pos = (523,1189);
},
{
name = top;
pos = (439,1412);
}
);
layerId = "63DB0068-8B02-4205-807F-6F2453D24B26";
shapes = (
{
closed = 1;
nodes = (
(339,97,o),
(406,295,o),
(461,492,c),
(514,540,o),
(582,580,o),
(645,580,cs),
(688,580,o),
(709,548,o),
(709,508,cs),
(709,434,o),
(584,124,o),
(534,9,c),
(586,-2,o),
(650,-8,o),
(716,-8,cs),
(776,-8,o),
(838,-3,o),
(898,7,c),
(981,189,o),
(1113,548,o),
(1113,709,cs),
(1113,844,o),
(1041,913,o),
(877,913,cs),
(768,913,o),
(635,870,o),
(549,802,c),
(612,1072,o),
(646,1292,o),
(655,1443,c),
(583,1443,o),
(303,1405,o),
(281,1398,c),
(235,1174,o),
(170,861,o),
(95,583,cs),
(28,334,o),
(-47,111,o),
(-89,3,c),
(-58,-11,o),
(20,-16,o),
(107,-16,cs),
(180,-16,o),
(254,-12,o),
(293,-5,c)
);
}
);
width = 1123;
}
);
unicode = 104;
},
{
glyphname = hbar;
kernLeft = h;
kernRight = n;
lastChange = "2020-06-29 18:08:01 +0000";
layers = (
{
layerId = "82219AB4-7C60-4B3A-9196-329BE868CB10";
shapes = (
{
closed = 1;
nodes = (
(800,1194,o),
(807,1222,o),
(807,1229,c),
(665,1229,o),
(261,1200,o),
(191,1188,c),
(184,1179,o),
(174,1152,o),
(170,1138,c),
(344,1153,o),
(625,1170,o),
(793,1170,c)
);
},
{
ref = h;
}
);
width = 1123;
},
{
layerId = "63DB0068-8B02-4205-807F-6F2453D24B26";
shapes = (
{
closed = 1;
nodes = (
(826,1184,o),
(841,1270,o),
(846,1300,c),
(711,1300,o),
(322,1273,o),
(164,1245,c),
(148,1188,o),
(140,1133,o),
(132,1073,c),
(340,1089,o),
(688,1099,o),
(804,1099,c)
);
},
{
ref = h;
}
);
width = 1123;
}
);
unicode = 295;
},
{
glyphname = i;
kernLeft = i;
kernRight = i;
lastChange = "2020-06-17 15:22:51 +0000";
layers = (
{
anchors = (
{
name = bottom;
pos = (154,0);
}
);
layerId = "82219AB4-7C60-4B3A-9196-329BE868CB10";
shapes = (
{
closed = 1;
nodes = (
(217,93,o),
(340,523,o),
(407,776,cs),
(426,848,o),
(442,910,o),
(449,938,c),
(435,938,o),
(386,935,o),
(371,933,c),
(312,730,o),
(124,85,o),
(86,-2,c),
(96,-4,o),
(112,-6,o),
(135,-6,cs),
(148,-6,o),
(164,-5,o),
(183,-3,c)
);
},
{
closed = 1;
nodes = (
(539,1121,o),
(581,1182,o),
(581,1249,cs),
(581,1286,o),
(562,1316,o),
(523,1316,cs),
(455,1316,o),
(410,1253,o),
(410,1186,cs),
(410,1151,o),
(430,1121,o),
(476,1121,cs)
);
}
);
width = 610;
},
{
anchors = (
{
name = bottom;
pos = (166,0);
}
);
layerId = "63DB0068-8B02-4205-807F-6F2453D24B26";
shapes = (
{
closed = 1;
nodes = (
(374,83,o),
(473,387,o),
(537,627,cs),
(571,754,o),
(595,874,o),
(598,922,c),
(508,922,o),
(319,912,o),
(231,904,c),
(170,696,o),
(-29,92,o),
(-67,5,c),
(-5,-3,o),
(60,-6,o),
(121,-6,cs),
(210,-6,o),
(303,1,o),
(328,3,c)
);
},
{
closed = 1;
nodes = (
(612,1022,o),
(741,1148,o),
(741,1292,cs),
(741,1390,o),
(660,1463,o),
(551,1463,cs),
(395,1463,o),
(252,1346,o),
(252,1187,cs),
(252,1084,o),
(345,1022,o),
(464,1022,cs)
);
}
);
width = 610;
}
);
unicode = 105;
},
{
glyphname = idotless;
kernLeft = idotless;
kernRight = idotless;
lastChange = "2020-07-08 20:50:42 +0000";
layers = (
{
anchors = (
{
name = bottom;
pos = (129,0);
},
{
name = ogonek;
pos = (168,-2);
},
{
name = top;
pos = (424,990);
}
);
layerId = "82219AB4-7C60-4B3A-9196-329BE868CB10";
shapes = (
{
closed = 1;
nodes = (
(216,121,o),
(407,812,o),
(442,942,c),
(412,942,o),
(383,940,o),
(364,932,c),
(303,728,o),
(99,85,o),
(59,2,c),
(74,-1,o),
(150,-2,o),
(168,-2,c)
);
}
);
width = 581;
},
{
anchors = (
{
name = bottom;
pos = (99,0);
},
{
name = ogonek;
pos = (297,-3);
},
{
name = top;
pos = (435,975);
}
);
layerId = "63DB0068-8B02-4205-807F-6F2453D24B26";
shapes = (
{
closed = 1;
nodes = (
(364,120,o),
(572,779,o),
(588,920,c),
(509,920,o),
(326,920,o),
(235,896,c),
(167,689,o),
(-47,110,o),
(-91,21,c),
(54,7,o),
(195,-3,o),
(297,-3,c)
);
}
);
width = 581;
}
);
unicode = 305;
},
{
glyphname = iogonek;
kernLeft = idotless;
kernRight = idotless;
lastChange = "2020-07-21 16:07:01 +0000";
layers = (
{
layerId = "82219AB4-7C60-4B3A-9196-329BE868CB10";
shapes = (
{
closed = 1;
nodes = (
(216,-405,o),
(167,-425,o),
(73,-425,cs),
(-17,-425,o),
(-74,-394,o),
(-74,-292,cs),
(-74,-179,o),
(56,-45,o),
(168,-2,c),
(103,43,l),
(-36,-16,o),
(-160,-156,o),
(-160,-299,cs),
(-160,-428,o),
(-80,-505,o),
(57,-505,cs),
(161,-505,o),
(233,-483,o),
(289,-459,c),
(289,-372,l)
);
},
{
ref = idotless;
},
{
pos = (68,-73);
ref = dotaccentcomb;
}
);
width = 581;
},
{
layerId = "63DB0068-8B02-4205-807F-6F2453D24B26";
shapes = (
{
closed = 1;
nodes = (
(292,-278,o),
(247,-287,o),
(204,-287,cs),
(151,-287,o),
(97,-263,o),
(97,-191,cs),
(97,-112,o),
(172,-28,o),
(217,4,c),
(81,62,l),
(16,43,o),
(-166,-108,o),
(-166,-280,cs),
(-166,-447,o),
(-22,-532,o),
(136,-532,cs),
(240,-532,o),
(302,-519,o),
(331,-507,c),
(331,-250,l)
);
},
{
ref = idotless;
},
{
pos = (92,-88);
ref = dotaccentcomb;
}
);
width = 581;
}
);
unicode = 303;
},
{
glyphname = j;
kernLeft = j;
kernRight = j;
lastChange = "2020-07-16 19:16:53 +0000";
layers = (
{
layerId = "82219AB4-7C60-4B3A-9196-329BE868CB10";
shapes = (
{
closed = 1;
nodes = (
(231,-170,o),
(317,154,cs),
(385,409,o),
(444,731,o),
(462,1000,c),
(380,992,l),
(348,710,o),
(300,419,o),
(236,178,cs),
(168,-77,o),
(62,-377,o),
(-129,-377,cs),
(-281,-377,o),
(-342,-219,o),
(-355,-102,c),
(-382,-116,o),
(-426,-144,o),
(-448,-162,c),
(-416,-337,o),
(-308,-453,o),
(-133,-453,cs),
(133,-453,o)
);
},
{
closed = 1;
nodes = (
(425,1340,o),
(383,1298,o),
(383,1243,cs),
(383,1208,o),
(413,1185,o),
(449,1185,cs),
(507,1185,o),
(548,1231,o),
(548,1277,cs),
(548,1309,o),
(524,1340,o),
(483,1340,cs)
);
}
);
width = 610;
},
{
layerId = "63DB0068-8B02-4205-807F-6F2453D24B26";
shapes = (
{
closed = 1;
nodes = (
(439,-281,o),
(567,235,cs),
(628,481,o),
(647,790,o),
(647,863,c),
(223,844,l),
(223,681,o),
(175,388,o),
(121,184,cs),
(81,34,o),
(20,-177,o),
(-74,-177,cs),
(-135,-177,o),
(-164,-125,o),
(-164,-54,c),
(-268,-82,o),
(-432,-147,o),
(-556,-219,c),
(-556,-398,o),
(-369,-522,o),
(-138,-522,cs),
(230,-522,o)
);
},
{
closed = 1;
nodes = (
(339,1437,o),
(192,1301,o),
(192,1145,cs),
(192,1041,o),
(280,955,o),
(411,955,cs),
(564,955,o),
(730,1082,o),
(730,1237,cs),
(730,1338,o),
(648,1437,o),
(502,1437,cs)
);
}
);
width = 717;
}
);
unicode = 106;
},
{
glyphname = jdotless;
kernLeft = j;
kernRight = j;
lastChange = "2020-07-08 20:51:17 +0000";
layers = (
{
anchors = (
{
name = bottom;
pos = (-52,-530);
},
{
name = top;
pos = (414,982);
}
);
layerId = "82219AB4-7C60-4B3A-9196-329BE868CB10";
shapes = (
{
closed = 1;
nodes = (
(101,-537,o),
(209,-254,o),
(295,70,cs),
(363,325,o),
(422,648,o),
(440,917,c),
(431,917,o),
(413,916,o),
(400,915,cs),
(386,914,o),
(368,911,o),
(358,908,c),
(326,626,o),
(278,335,o),
(214,94,cs),
(146,-161,o),
(40,-461,o),
(-151,-461,cs),
(-303,-461,o),
(-364,-303,o),
(-377,-186,c),
(-404,-200,o),
(-448,-228,o),
(-470,-246,c),
(-448,-421,o),
(-330,-537,o),
(-155,-537,cs)
);
}
);
width = 611;
},
{
anchors = (
{
name = bottom;
pos = (82,-530);
},
{
name = top;
pos = (486,958);
}
);
layerId = "63DB0068-8B02-4205-807F-6F2453D24B26";
shapes = (
{
closed = 1;
nodes = (
(413,-532,o),
(675,85,o),
(675,717,cs),
(675,769,o),
(671,815,o),
(664,853,c),
(621,858,o),
(574,861,o),
(525,861,cs),
(436,861,o),
(340,852,o),
(260,834,c),
(242,595,o),
(212,317,o),
(158,114,cs),
(118,-36,o),
(56,-187,o),
(-38,-187,cs),
(-99,-187,o),
(-127,-135,o),
(-128,-64,c),
(-232,-92,o),
(-436,-157,o),
(-559,-229,c),
(-571,-436,o),
(-379,-532,o),
(-111,-532,cs)
);
}
);
width = 772;
}
);
metricLeft = j;
metricRight = j;
unicode = 567;
},
{
glyphname = k;
kernLeft = h;
kernRight = k;
lastChange = "2020-06-17 15:25:13 +0000";
layers = (
{
anchors = (
{
name = bottom;
pos = (456,0);
},
{
name = top;
pos = (849,1470);
}
);
layerId = "82219AB4-7C60-4B3A-9196-329BE868CB10";
shapes = (
{
closed = 1;
nodes = (
(868,-27,o),
(915,-7,o),
(924,-2,c),
(844,222,o),
(643,597,o),
(599,651,c),
(723,732,o),
(1064,896,o),
(1152,932,c),
(1146,942,o),
(1118,979,o),
(1104,995,c),
(968,935,o),
(494,705,o),
(330,562,c),
(385,748,o),
(510,1177,o),
(587,1446,c),
(581,1447,o),
(566,1448,o),
(550,1448,cs),
(533,1448,o),
(516,1448,o),
(508,1448,c),
(417,1170,o),
(100,104,o),
(60,-31,c),
(75,-34,o),
(91,-36,o),
(105,-36,cs),
(122,-36,o),
(137,-34,o),
(146,-32,c),
(165,24,o),
(263,330,o),
(297,446,c),
(323,470,o),
(483,574,o),
(535,607,c),
(601,505,o),
(795,116,o),
(849,-34,c)
);
}
);
width = 1156;
},
{
anchors = (
{
name = bottom;
pos = (435.585,0);
},
{
name = top;
pos = (829.47,1470);
}
);
layerId = "63DB0068-8B02-4205-807F-6F2453D24B26";
shapes = (
{
closed = 1;
nodes = (
(740,-40,o),
(1006,53,o),
(1064,84,c),
(999,279,o),
(887,439,o),
(807,499,c),
(883,545,o),
(1090,667,o),
(1226,744,c),
(1202,819,o),
(1116,988,o),
(1060,1034,c),
(887,942,o),
(663,820,o),
(535,700,c),
(578,818,o),
(681,1160,o),
(757,1428,c),
(697,1448,o),
(624,1456,o),
(545,1456,cs),
(492,1456,o),
(436,1452,o),
(379,1447,c),
(324,1275,o),
(1,246,o),
(-81,-19,c),
(-32,-25,o),
(39,-31,o),
(121,-31,cs),
(179,-31,o),
(243,-28,o),
(308,-21,c),
(328,36,o),
(360,131,o),
(393,246,c),
(405,253,o),
(471,291,o),
(496,304,c),
(575,268,o),
(656,27,o),
(667,-57,c)
);
}
);
width = 1156;
}
);
unicode = 107;
},
{
glyphname = kgreenlandic;
kernLeft = h;
kernRight = k;
lastChange = "2020-02-20 16:12:45 +0000";
layers = (
{
anchors = (
{
name = bottom;
pos = (435.585,0);
},
{
name = top;
pos = (725,1063);
}
);
layerId = "82219AB4-7C60-4B3A-9196-329BE868CB10";
shapes = (
{
closed = 1;
nodes = (
(848,-27,o),
(895,-7,o),
(904,-2,c),
(824,222,o),
(623,597,o),
(579,651,c),
(703,732,o),
(1044,896,o),
(1132,932,c),
(1126,942,o),
(1098,979,o),
(1084,995,c),
(948,935,o),
(470,692,o),
(310,562,c),
(365,748,o),
(417,939,o),
(456,1074,c),
(450,1074,o),
(432,1075,o),
(416,1075,cs),
(399,1075,o),
(382,1076,o),
(374,1076,c),
(328,940,o),
(78,79,o),
(40,-31,c),
(55,-34,o),
(71,-36,o),
(85,-36,cs),
(102,-36,o),
(117,-34,o),
(126,-32,c),
(145,24,o),
(243,330,o),
(277,446,c),
(300,467,o),
(468,573,o),
(515,607,c),
(589,505,o),
(775,116,o),
(829,-34,c)
);
}
);
width = 1156;
},
{
anchors = (
{
name = bottom;
pos = (435.585,0);
},
{
name = top;
pos = (715,1063);
}
);
layerId = "63DB0068-8B02-4205-807F-6F2453D24B26";
shapes = (
{
closed = 1;
nodes = (
(740,-40,o),
(1006,53,o),
(1064,84,c),
(999,279,o),
(887,439,o),
(807,499,c),
(883,545,o),
(1090,667,o),
(1226,744,c),
(1202,819,o),
(1116,988,o),
(1060,1034,c),
(887,942,o),
(663,820,o),
(535,700,c),
(578,818,o),
(630,987,o),
(647,1073,c),
(587,1093,o),
(514,1101,o),
(435,1101,cs),
(382,1101,o),
(326,1097,o),
(269,1092,c),
(223,920,o),
(-47,91,o),
(-81,-19,c),
(-32,-25,o),
(39,-31,o),
(121,-31,cs),
(179,-31,o),
(243,-28,o),
(308,-21,c),
(328,36,o),
(360,131,o),
(393,246,c),
(405,253,o),
(471,291,o),
(496,304,c),
(575,268,o),
(656,27,o),
(667,-57,c)
);
}
);
width = 1156;
}
);
unicode = 312;
},
{
glyphname = l;
kernLeft = l;
kernRight = l;
lastChange = "2020-07-21 15:54:08 +0000";
layers = (
{
anchors = (
{
name = bottom;
pos = (165.585,0);
},
{
name = center;
pos = (362.528,735);
},
{
name = top;
pos = (559.47,1470);
},
{
name = topright;
pos = (480,1027);
}
);
layerId = "82219AB4-7C60-4B3A-9196-329BE868CB10";
shapes = (
{
closed = 1;
nodes = (
(453,92,o),
(424,129,o),
(412,139,c),
(375,88,o),
(330,51,o),
(269,51,cs),
(203,51,o),
(181,100,o),
(181,171,cs),
(181,375,o),
(455,1205,o),
(529,1426,c),
(517,1429,o),
(500,1431,o),
(481,1431,cs),
(470,1431,o),
(454,1430,o),
(443,1429,c),
(351,1149,o),
(98,378,o),
(98,149,cs),
(98,38,o),
(141,-32,o),
(264,-32,cs),
(359,-32,o),
(420,33,o),
(457,82,c)
);
}
);
width = 645;
},
{
anchors = (
{
name = bottom;
pos = (165.585,0);
},
{
name = center;
pos = (362.528,735);
},
{
name = top;
pos = (559.47,1470);
},
{
name = topright;
pos = (633,1038);
}
);
layerId = "63DB0068-8B02-4205-807F-6F2453D24B26";
shapes = (
{
closed = 1;
nodes = (
(562,65,o),
(528,308,o),
(520,347,c),
(495,320,o),
(465,303,o),
(424,303,cs),
(392,303,o),
(381,325,o),
(381,362,cs),
(381,474,o),
(494,818,o),
(702,1426,c),
(626,1432,o),
(568,1435,o),
(506,1435,cs),
(460,1435,o),
(401,1433,o),
(341,1429,c),
(227,1093,o),
(-6,403,o),
(-6,169,cs),
(-6,34,o),
(85,-43,o),
(256,-43,cs),
(391,-43,o),
(513,-1,o),
(566,35,c)
);
}
);
width = 645;
}
);
unicode = 108;
},
{
glyphname = l.ss01;
kernLeft = h;
kernRight = l.ss01;
lastChange = "2020-07-08 19:54:51 +0000";
layers = (
{
anchors = (
{
name = bottom;
pos = (140,0);
},
{
name = center;
pos = (337,735);
},
{
name = top;
pos = (533,1470);
},
{
name = topright;
pos = (537,1063);
}
);
layerId = "82219AB4-7C60-4B3A-9196-329BE868CB10";
shapes = (
{
closed = 1;
nodes = (
(515,1459,o),
(505,1459,o),
(496,1459,cs),
(482,1459,o),
(468,1458,o),
(455,1456,c),
(429,1265,o),
(308,682,o),
(195,263,cs),
(164,148,o),
(134,45,o),
(107,-34,c),
(112,-35,o),
(120,-35,o),
(129,-35,cs),
(160,-35,o),
(204,-31,o),
(211,-29,c),
(274,203,o),
(345,496,o),
(404,763,cs),
(474,1082,o),
(526,1364,o),
(526,1458,c)
);
}
);
width = 564;
},
{
anchors = (
{
name = bottom;
pos = (139.585,0);
},
{
name = center;
pos = (336.528,735);
},
{
name = top;
pos = (533.47,1470);
},
{
name = topright;
pos = (664,1063);
}
);
layerId = "63DB0068-8B02-4205-807F-6F2453D24B26";
shapes = (
{
closed = 1;
nodes = (
(613,1462,o),
(585,1462,o),
(533,1462,cs),
(433,1462,o),
(328,1440,o),
(313,1436,c),
(288,1274,o),
(189,852,o),
(90,478,cs),
(39,286,o),
(-14,106,o),
(-53,-19,c),
(-27,-21,o),
(9,-22,o),
(48,-22,cs),
(158,-22,o),
(302,-14,o),
(388,10,c),
(446,229,o),
(512,510,o),
(565,769,cs),
(629,1083,o),
(678,1364,o),
(678,1458,c)
);
}
);
width = 564;
}
);
},
{
glyphname = ldot;
kernLeft = l;
kernRight = l;
lastChange = "2020-06-17 20:29:16 +0000";
layers = (
{
layerId = "82219AB4-7C60-4B3A-9196-329BE868CB10";
shapes = (
{
closed = 1;
nodes = (
(676,759,o),
(732,797,o),
(732,854,cs),
(732,891,o),
(715,931,o),
(664,931,cs),
(599,931,o),
(553,886,o),
(553,826,cs),
(553,791,o),
(575,759,o),
(628,759,cs)
);
},
{
ref = l;
}
);
width = 741;
},
{
layerId = "63DB0068-8B02-4205-807F-6F2453D24B26";
shapes = (
{
closed = 1;
nodes = (
(780,687,o),
(857,758,o),
(857,843,cs),
(857,923,o),
(800,997,o),
(706,997,cs),
(615,997,o),
(538,929,o),
(538,843,cs),
(538,758,o),
(583,687,o),
(695,687,cs)
);
},
{
ref = l;
}
);
width = 741;
}
);
metricLeft = l;
unicode = 320;
},
{
glyphname = ldot.ss01;
lastChange = "2020-06-17 20:31:47 +0000";
layers = (
{
layerId = "82219AB4-7C60-4B3A-9196-329BE868CB10";
shapes = (
{
closed = 1;
nodes = (
(648,756,o),
(690,793,o),
(690,843,cs),
(690,888,o),
(660,928,o),
(609,928,cs),
(557,928,o),
(513,894,o),
(513,843,cs),
(513,793,o),
(537,756,o),
(600,756,cs)
);
},
{
pos = (-37,0);
ref = l.ss01;
}
);
width = 586;
},
{
layerId = "63DB0068-8B02-4205-807F-6F2453D24B26";
shapes = (
{
closed = 1;
nodes = (
(855,687,o),
(932,758,o),
(932,843,cs),
(932,923,o),
(875,997,o),
(782,997,cs),
(692,997,o),
(615,929,o),
(615,843,cs),
(615,758,o),
(659,687,o),
(771,687,cs)
);
},
{
pos = (-11,0);
ref = l.ss01;
}
);
width = 812;
}
);
metricLeft = l;
},
{
glyphname = lslash;
kernLeft = h;
kernRight = l;
lastChange = "2020-07-03 20:06:00 +0000";
layers = (
{
layerId = "82219AB4-7C60-4B3A-9196-329BE868CB10";
shapes = (
{
closed = 1;
nodes = (
(568,853,c),
(398,699,o),
(133,489,o),
(-79,369,c),
(-71,354,o),
(-51,330,o),
(-36,313,c),
(191,432,o),
(432,612,o),
(617,788,c),
(612,814,o),
(593,834,o)
);
},
{
ref = l;
}
);
width = 564;
},
{
layerId = "63DB0068-8B02-4205-807F-6F2453D24B26";
shapes = (
{
closed = 1;
nodes = (
(665,932,c),
(488,829,o),
(113,658,o),
(-147,581,c),
(-147,568,o),
(-92,417,o),
(-84,400,c),
(191,472,o),
(470,607,o),
(730,738,c),
(723,763,o),
(679,908,o)
);
},
{
ref = l;
}
);
width = 564;
}
);
unicode = 322;
},
{
glyphname = m;
kernLeft = n;
kernRight = n;
lastChange = "2020-06-17 15:27:21 +0000";
layers = (
{
anchors = (
{
name = bottom;
pos = (786.585,0);
},
{
name = top;
pos = (1071.415,1063);
}
);
layerId = "82219AB4-7C60-4B3A-9196-329BE868CB10";
shapes = (
{
closed = 1;
nodes = (
(86,-10,c),
(100,-14,o),
(115,-16,o),
(133,-16,cs),
(145,-16,o),
(165,-14,o),
(174,-13,c),
(179,40,o),
(209,258,o),
(283,578,c),
(302,678,o),
(543,945,o),
(738,945,cs),
(865,945,o),
(909,883,o),
(909,742,cs),
(909,564,o),
(835,252,o),
(756,-7,c),
(769,-11,o),
(791,-13,o),
(806,-13,cs),
(819,-13,o),
(837,-11,o),
(852,-9,c),
(867,56,o),
(885,128,o),
(902,194,cs),
(997,562,o),
(1150,963,o),
(1462,963,cs),
(1574,963,o),
(1625,895,o),
(1625,761,cs),
(1625,565,o),
(1512,247,o),
(1405,-24,c),
(1421,-26,o),
(1439,-27,o),
(1451,-27,cs),
(1467,-27,o),
(1482,-25,o),
(1497,-21,c),
(1590,212,o),
(1713,578,o),
(1713,788,cs),
(1713,941,o),
(1646,1047,o),
(1484,1047,cs),
(1210,1047,o),
(1049,819,o),
(962,581,c),
(979,644,o),
(991,713,o),
(991,778,cs),
(991,913,o),
(930,1030,o),
(769,1030,cs),
(513,1030,o),
(370,838,o),
(329,774,c),
(336,806,o),
(376,988,o),
(387,1027,c),
(368,1026,o),
(321,1017,o),
(302,1009,c),
(219,699,o),
(127,256,o)
);
}
);
width = 1858;
},
{
anchors = (
{
name = bottom;
pos = (786.585,0);
},
{
name = top;
pos = (1071.415,1063);
}
);
layerId = "63DB0068-8B02-4205-807F-6F2453D24B26";
shapes = (
{
closed = 1;
nodes = (
(-36,-7,c),
(9,-12,o),
(128,-17,o),
(235,-17,cs),
(277,-17,o),
(348,-15,o),
(365,-14,c),
(369,9,o),
(425,274,o),
(498,593,c),
(546,668,o),
(635,717,o),
(711,717,cs),
(766,717,o),
(789,680,o),
(789,612,cs),
(789,504,o),
(717,234,o),
(652,-7,c),
(680,-11,o),
(760,-13,o),
(839,-13,cs),
(905,-13,o),
(970,-11,o),
(1002,-9,c),
(1028,81,o),
(1053,166,o),
(1078,244,cs),
(1165,517,o),
(1249,706,o),
(1390,706,cs),
(1436,706,o),
(1456,676,o),
(1456,621,cs),
(1456,489,o),
(1344,208,o),
(1254,-5,c),
(1318,-11,o),
(1384,-13,o),
(1451,-13,cs),
(1513,-13,o),
(1580,-11,o),
(1641,-8,c),
(1735,292,o),
(1822,573,o),
(1822,760,cs),
(1822,950,o),
(1725,1044,o),
(1505,1044,cs),
(1330,1044,o),
(1165,925,o),
(1083,812,c),
(1083,835,o),
(1083,860,o),
(1078,883,cs),
(1060,965,o),
(1002,1039,o),
(876,1039,cs),
(705,1039,o),
(586,931,o),
(560,885,c),
(567,913,o),
(584,981,o),
(596,1027,c),
(514,1027,o),
(288,1003,o),
(204,983,c),
(159,815,o),
(3,191,o)
);
}
);
width = 1858;
}
);
unicode = 109;
},
{
glyphname = n;
kernLeft = n;
kernRight = n;
lastChange = "2020-06-17 15:28:55 +0000";
layers = (
{
anchors = (
{
name = bottom;
pos = (522.585,0);
},
{
name = top;
pos = (807.415,1063);
}
);
layerId = "82219AB4-7C60-4B3A-9196-329BE868CB10";
shapes = (
{
closed = 1;
nodes = (
(205,93,o),
(312,396,o),
(420,754,c),
(515,827,o),
(729,970,o),
(968,970,cs),
(1097,970,o),
(1149,908,o),
(1149,800,cs),
(1149,628,o),
(1019,276,o),
(907,-3,c),
(923,-7,o),
(936,-9,o),
(954,-9,cs),
(975,-9,o),
(994,-6,o),
(1005,-3,c),
(1112,289,o),
(1243,651,o),
(1243,832,cs),
(1243,977,o),
(1171,1060,o),
(967,1060,cs),
(792,1060,o),
(559,954,o),
(448,868,c),
(461,906,o),
(489,1019,o),
(492,1043,c),
(484,1045,o),
(469,1045,o),
(458,1045,cs),
(434,1045,o),
(414,1042,o),
(399,1039,c),
(238,439,o),
(155,214,o),
(68,-10,c),
(87,-12,o),
(106,-14,o),
(125,-14,cs),
(137,-14,o),
(150,-13,o),
(162,-12,c)
);
}
);
width = 1330;
},
{
anchors = (
{
name = bottom;
pos = (522.585,0);
},
{
name = top;
pos = (807.415,1063);
}
);
layerId = "63DB0068-8B02-4205-807F-6F2453D24B26";
shapes = (
{
closed = 1;
nodes = (
(395,99,o),
(470,303,o),
(551,605,c),
(624,659,o),
(727,708,o),
(805,708,cs),
(886,708,o),
(915,669,o),
(915,604,cs),
(915,470,o),
(773,125,o),
(707,-3,c),
(739,-6,o),
(824,-8,o),
(909,-8,cs),
(987,-8,o),
(1065,-6,o),
(1100,-3,c),
(1195,238,o),
(1318,621,o),
(1318,810,cs),
(1318,978,o),
(1238,1060,o),
(1035,1060,cs),
(873,1060,o),
(689,957,o),
(634,885,c),
(649,935,o),
(672,1017,o),
(676,1034,c),
(634,1041,o),
(575,1044,o),
(513,1044,cs),
(427,1044,o),
(333,1039,o),
(268,1031,c),
(152,599,o),
(45,219,o),
(-38,-3,c),
(-11,-6,o),
(85,-10,o),
(144,-12,cs),
(220,-14,o),
(299,-14,o),
(350,-14,c)
);
}
);
width = 1330;
}
);
unicode = 110;
},
{
glyphname = eng;
kernLeft = n;
kernRight = j;
lastChange = "2020-06-18 19:26:01 +0000";
layers = (
{
layerId = "82219AB4-7C60-4B3A-9196-329BE868CB10";
shapes = (
{
closed = 1;
nodes = (
(487,-349,o),
(597,-349,cs),
(819,-349,o),
(962,-157,o),
(1009,10,c),
(913,10,l),
(841,-136,o),
(767,-267,o),
(621,-267,cs),
(493,-267,o),
(455,-220,o),
(437,-157,c),
(417,-168,o),
(363,-207,o),
(345,-220,c),
(371,-309,o)
);
},
{
alignment = -1;
ref = n;
}
);
width = 1330;
},
{
layerId = "63DB0068-8B02-4205-807F-6F2453D24B26";
shapes = (
{
closed = 1;
nodes = (
(344,-419,o),
(569,-419,cs),
(822,-419,o),
(1009,-238,o),
(1106,12,c),
(719,19,l),
(677,-61,o),
(642,-99,o),
(597,-99,cs),
(556,-99,o),
(535,-75,o),
(528,-30,c),
(453,-79,o),
(250,-220,o),
(229,-240,c),
(268,-321,o)
);
},
{
alignment = -1;
ref = n;
}
);
width = 1330;
}
);
unicode = 331;
},
{
glyphname = o;
kernLeft = o;
kernRight = o;
lastChange = "2020-06-18 18:50:21 +0000";
layers = (
{
anchors = (
{
name = bottom;
pos = (433,0);
},
{
name = center;
pos = (575,532);
},
{
name = ogonek;
pos = (678,0);
},
{
name = top;
pos = (717,1063);
},
{
name = topright;
pos = (997,941);
}
);
layerId = "82219AB4-7C60-4B3A-9196-329BE868CB10";
shapes = (
{
closed = 1;
nodes = (
(858,-39,o),
(1081,305,o),
(1081,691,cs),
(1081,933,o),
(968,1077,o),
(725,1077,cs),
(328,1077,o),
(83,732,o),
(83,340,cs),
(83,119,o),
(208,-39,o),
(471,-39,cs)
);
},
{
closed = 1;
nodes = (
(273,32,o),
(171,163,o),
(171,346,cs),
(171,669,o),
(379,1002,o),
(710,1002,cs),
(909,1002,o),
(999,878,o),
(999,682,cs),
(999,356,o),
(795,32,o),
(476,32,cs)
);
}
);
width = 1172;
},
{
anchors = (
{
name = bottom;
pos = (434,0);
},
{
name = center;
pos = (576,532);
},
{
name = ogonek;
pos = (620,0);
},
{
name = top;
pos = (718,1063);
},
{
name = topright;
pos = (973,941);
}
);
layerId = "63DB0068-8B02-4205-807F-6F2453D24B26";
shapes = (
{
closed = 1;
nodes = (
(878,-17,o),
(1119,243,o),
(1119,648,cs),
(1119,897,o),
(1001,1058,o),
(711,1058,cs),
(313,1058,o),
(38,788,o),
(38,375,cs),
(38,126,o),
(186,-17,o),
(487,-17,cs)
);
},
{
closed = 1;
nodes = (
(462,342,o),
(425,404,o),
(425,490,cs),
(425,634,o),
(508,773,o),
(646,773,cs),
(735,773,o),
(768,699,o),
(768,614,cs),
(768,467,o),
(692,342,o),
(541,342,cs)
);
}
);
width = 1170;
}
);
unicode = 111;
},
{
glyphname = ohorn;
kernLeft = o;
kernRight = o;
lastChange = "2020-06-29 16:07:58 +0000";
layers = (
{
anchors = (
{
name = bottom;
pos = (428,0);
},
{
name = top;
pos = (712,1063);
}
);
layerId = "82219AB4-7C60-4B3A-9196-329BE868CB10";
shapes = (
{
closed = 1;
nodes = (
(858,-39,o),
(1081,305,o),
(1081,691,cs),
(1081,933,o),
(968,1077,o),
(725,1077,cs),
(328,1077,o),
(83,732,o),
(83,340,cs),
(83,119,o),
(208,-39,o),
(471,-39,cs)
);
},
{
closed = 1;
nodes = (
(273,32,o),
(171,163,o),
(171,346,cs),
(171,669,o),
(379,1002,o),
(710,1002,cs),
(909,1002,o),
(999,878,o),
(999,682,cs),
(999,356,o),
(795,32,o),
(476,32,cs)
);
},
{
closed = 1;
nodes = (
(1100,909,o),
(1305,1003,o),
(1360,1205,c),
(1345,1214,o),
(1301,1221,o),
(1270,1221,c),
(1237,1098,o),
(1134,981,o),
(945,981,c),
(948,909,l)
);
}
);
width = 1240;
},
{
anchors = (
{
name = bottom;
pos = (429,0);
},
{
name = top;
pos = (713,1063);
}
);
layerId = "63DB0068-8B02-4205-807F-6F2453D24B26";
shapes = (
{
closed = 1;
nodes = (
(878,-17,o),
(1119,243,o),
(1119,648,cs),
(1119,897,o),
(1001,1058,o),
(711,1058,cs),
(313,1058,o),
(38,788,o),
(38,375,cs),
(38,126,o),
(186,-17,o),
(487,-17,cs)
);
},
{
closed = 1;
nodes = (
(462,342,o),
(425,404,o),
(425,490,cs),
(425,634,o),
(508,773,o),
(646,773,cs),
(735,773,o),
(768,699,o),
(768,614,cs),
(768,467,o),
(692,342,o),
(541,342,cs)
);
},
{
closed = 1;
nodes = (
(1031,817,o),
(1275,910,o),
(1347,1180,c),
(1329,1208,o),
(1210,1238,o),
(1091,1238,c),
(1054,1100,o),
(990,1011,o),
(849,1011,c),
(849,817,l)
);
}
);
width = 1183;
}
);
metricLeft = o;
metricRight = "=o-40";
unicode = 417;
},
{
glyphname = oogonek;
kernLeft = o;
kernRight = o;
lastChange = "2020-07-21 16:05:24 +0000";
layers = (
{
layerId = "82219AB4-7C60-4B3A-9196-329BE868CB10";
shapes = (
{
closed = 1;
nodes = (
(817,-358,o),
(768,-378,o),
(674,-378,cs),
(584,-378,o),
(527,-347,o),
(527,-245,cs),
(527,-132,o),
(667,-8,o),
(769,45,c),
(704,90,l),
(575,21,o),
(441,-109,o),
(441,-252,cs),
(441,-381,o),
(521,-458,o),
(658,-458,cs),
(762,-458,o),
(834,-436,o),
(890,-412,c),
(890,-325,l)
);
},
{
ref = o;
}
);
width = 1172;
},
{
layerId = "63DB0068-8B02-4205-807F-6F2453D24B26";
shapes = (
{
closed = 1;
nodes = (
(831,-247,o),
(786,-256,o),
(743,-256,cs),
(690,-256,o),
(636,-232,o),
(636,-160,cs),
(636,-80,o),
(711,4,o),
(756,35,c),
(620,93,l),
(555,74,o),
(373,-77,o),
(373,-249,cs),
(373,-416,o),
(517,-501,o),
(675,-501,cs),
(779,-501,o),
(841,-488,o),
(870,-476,c),
(870,-219,l)
);
},
{
ref = o;
}
);
width = 1170;
}
);
unicode = 491;
},
{
glyphname = oslash;
kernLeft = o;
kernRight = o;
lastChange = "2020-06-17 21:29:45 +0000";
layers = (
{
anchors = (
{
name = top;
pos = (737.415,1063);
}
);
layerId = "82219AB4-7C60-4B3A-9196-329BE868CB10";
shapes = (
{
closed = 1;
nodes = (
(1112,1082,o),
(1076,1103,o),
(1046,1109,c),
(777,680,o),
(363,236,o),
(62,-76,c),
(76,-82,o),
(114,-105,o),
(134,-109,c),
(370,131,o),
(790,578,o),
(1127,1070,c)
);
},
{
ref = o;
}
);
width = 1180;
},
{
anchors = (
{
name = top;
pos = (737.415,1063);
}
);
layerId = "63DB0068-8B02-4205-807F-6F2453D24B26";
shapes = (
{
closed = 1;
nodes = (
(1161,1085,o),
(1105,1117,o),
(1057,1144,c),
(836,862,o),
(205,259,o),
(-61,17,c),
(-39,-26,o),
(10,-70,o),
(41,-90,c),
(281,95,o),
(883,637,o),
(1186,1063,c)
);
},
{
ref = o;
}
);
width = 1170;
}
);
unicode = 248;
},
{
glyphname = oe;
kernLeft = o;
kernRight = e;
lastChange = "2020-06-18 14:37:28 +0000";
layers = (
{
anchors = (
{
name = bottom;
pos = (902,0);
},
{
name = top;
pos = (1196,1063);
}
);
layerId = "82219AB4-7C60-4B3A-9196-329BE868CB10";
shapes = (
{
closed = 1;
nodes = (
(858,-39,o),
(1081,305,o),
(1081,691,cs),
(1081,933,o),
(968,1077,o),
(725,1077,cs),
(328,1077,o),
(83,732,o),
(83,340,cs),
(83,119,o),
(208,-39,o),
(471,-39,cs)
);
},
{
closed = 1;
nodes = (
(273,32,o),
(171,163,o),
(171,346,cs),
(171,669,o),
(379,1002,o),
(710,1002,cs),
(909,1002,o),
(999,878,o),
(999,682,cs),
(999,356,o),
(795,32,o),
(476,32,cs)
);
},
{
closed = 1;
nodes = (
(1815,284,o),
(1784,319,o),
(1770,333,c),
(1760,319,o),
(1590,101,o),
(1321,101,cs),
(1140,101,o),
(1067,245,o),
(1067,381,cs),
(1067,423,o),
(1068,464,o),
(1074,497,c),
(1156,508,o),
(1347,523,o),
(1491,528,cs),
(1643,533,o),
(1828,535,o),
(1847,535,c),
(1868,615,o),
(1879,679,o),
(1879,746,cs),
(1879,942,o),
(1779,1070,o),
(1576,1070,cs),
(1225,1070,o),
(987,779,o),
(987,409,cs),
(987,175,o),
(1084,27,o),
(1315,27,cs),
(1593,27,o),
(1766,207,o),
(1818,266,c)
);
},
{
closed = 1;
nodes = (
(1139,849,o),
(1345,984,o),
(1564,984,cs),
(1742,984,o),
(1796,869,o),
(1796,751,cs),
(1796,704,o),
(1790,651,o),
(1780,615,c),
(1769,615,o),
(1641,612,o),
(1520,609,cs),
(1313,604,o),
(1157,589,o),
(1090,578,c)
);
}
);
width = 1954;
},
{
anchors = (
{
name = bottom;
pos = (828,0);
},
{
name = top;
pos = (1062,1063);
}
);
layerId = "63DB0068-8B02-4205-807F-6F2453D24B26";
shapes = (
{
closed = 1;
nodes = (
(878,-17,o),
(1119,243,o),
(1119,648,cs),
(1119,897,o),
(1001,1058,o),
(711,1058,cs),
(313,1058,o),
(38,788,o),
(38,375,cs),
(38,126,o),
(186,-17,o),
(487,-17,cs)
);
},
{
closed = 1;
nodes = (
(462,342,o),
(425,404,o),
(425,490,cs),
(425,634,o),
(508,773,o),
(646,773,cs),
(735,773,o),
(768,699,o),
(768,614,cs),
(768,467,o),
(692,342,o),
(541,342,cs)
);
},
{
closed = 1;
nodes = (
(1633,261,o),
(1504,429,o),
(1490,442,c),
(1381,368,o),
(1293,349,o),
(1243,349,cs),
(1165,349,o),
(1104,381,o),
(1104,447,cs),
(1104,461,o),
(1104,476,o),
(1109,492,c),
(1140,497,o),
(1264,502,o),
(1357,505,cs),
(1422,507,o),
(1686,515,o),
(1719,515,c),
(1759,598,o),
(1789,677,o),
(1789,767,cs),
(1789,957,o),
(1644,1063,o),
(1410,1063,cs),
(1007,1063,o),
(745,791,o),
(745,379,cs),
(745,144,o),
(892,-16,o),
(1170,-16,cs),
(1348,-16,o),
(1528,48,o),
(1651,150,c)
);
},
{
closed = 1;
nodes = (
(1199,748,o),
(1274,831,o),
(1373,831,cs),
(1442,831,o),
(1477,791,o),
(1477,744,cs),
(1477,724,o),
(1476,719,o),
(1474,714,c),
(1457,716,o),
(1411,717,o),
(1365,717,cs),
(1283,717,o),
(1211,708,o),
(1182,704,c)
);
}
);
width = 1795;
}
);
metricLeft = o;
metricRight = e;
unicode = 339;
},
{
glyphname = p;
kernLeft = p;
kernRight = o;
lastChange = "2020-06-18 14:36:31 +0000";
layers = (
{
anchors = (
{
name = bottom;
pos = (457.585,0);
},
{
name = top;
pos = (742.415,1063);
}
);
layerId = "82219AB4-7C60-4B3A-9196-329BE868CB10";
shapes = (
{
closed = 1;
nodes = (
(-127,-429,o),
(-76,-427,o),
(-43,-420,c),
(13,-293,o),
(179,176,o),
(201,242,c),
(237,193,o),
(386,104,o),
(556,104,cs),
(906,104,o),
(1125,402,o),
(1125,764,cs),
(1125,970,o),
(1024,1085,o),
(815,1085,cs),
(639,1085,o),
(474,993,o),
(409,935,c),
(424,983,o),
(448,1064,o),
(453,1088,c),
(425,1088,o),
(383,1084,o),
(359,1079,c),
(259,707,o),
(46,32,o),
(-144,-429,c)
);
},
{
closed = 1;
nodes = (
(376,188,o),
(261,286,o),
(225,323,c),
(243,379,o),
(359,771,o),
(374,823,c),
(420,868,o),
(608,1007,o),
(801,1007,cs),
(964,1007,o),
(1033,921,o),
(1033,752,cs),
(1033,450,o),
(879,188,o),
(562,188,cs)
);
}
);
width = 1199;
},
{
anchors = (
{
name = bottom;
pos = (457.585,0);
},
{
name = top;
pos = (742.415,1063);
}
);
layerId = "63DB0068-8B02-4205-807F-6F2453D24B26";
shapes = (
{
closed = 1;
nodes = (
(-148,-455,o),
(21,-448,o),
(160,-422,c),
(201,-306,o),
(320,67,o),
(343,154,c),
(363,109,o),
(487,53,o),
(601,53,cs),
(971,53,o),
(1211,337,o),
(1211,692,cs),
(1211,911,o),
(1127,1068,o),
(899,1068,cs),
(712,1068,o),
(604,960,o),
(560,912,c),
(573,960,o),
(584,1018,o),
(592,1068,c),
(467,1068,o),
(323,1055,o),
(211,1022,c),
(173,880,o),
(-41,118,o),
(-226,-455,c)
);
},
{
closed = 1;
nodes = (
(511,439,o),
(477,485,o),
(455,519,c),
(464,545,o),
(488,629,o),
(496,659,c),
(544,704,o),
(611,750,o),
(716,750,cs),
(813,750,o),
(836,705,o),
(836,634,cs),
(836,504,o),
(750,439,o),
(623,439,cs)
);
}
);
width = 1229;
}
);
unicode = 112;
},
{
glyphname = thorn;
kernLeft = h;
kernRight = o;
lastChange = "2020-06-17 20:38:04 +0000";
layers = (
{
anchors = (
{
name = bottom;
pos = (458,0);
},
{
name = top;
pos = (419,1376);
}
);
layerId = "82219AB4-7C60-4B3A-9196-329BE868CB10";
shapes = (
{
closed = 1;
nodes = (
(44,-340,o),
(135,36,o),
(141,96,c),
(180,40,o),
(353,1,o),
(473,1,cs),
(788,1,o),
(1051,320,o),
(1051,656,cs),
(1051,860,o),
(947,1018,o),
(746,1018,cs),
(538,1018,o),
(345,857,o),
(320,832,c),
(372,1040,o),
(447,1349,o),
(449,1376,c),
(369,1369,l),
(293,1085,o),
(-22,-229,o),
(-53,-391,c),
(30,-395,l)
);
},
{
closed = 1;
nodes = (
(288,84,o),
(208,145,o),
(168,205,c),
(178,244,o),
(282,687,o),
(290,730,c),
(349,786,o),
(547,921,o),
(716,921,cs),
(881,921,o),
(969,815,o),
(969,653,cs),
(969,367,o),
(754,84,o),
(473,84,cs)
);
}
);
width = 1200;
},
{
anchors = (
{
name = bottom;
pos = (458,0);
},
{
name = top;
pos = (465,1350);
}
);
layerId = "63DB0068-8B02-4205-807F-6F2453D24B26";
shapes = (
{
closed = 1;
nodes = (
(294,-248,o),
(370,28,o),
(388,96,c),
(427,65,o),
(525,43,o),
(624,43,cs),
(942,43,o),
(1187,305,o),
(1187,636,cs),
(1187,847,o),
(1077,1008,o),
(856,1008,cs),
(761,1008,o),
(683,989,o),
(567,917,c),
(610,1090,o),
(665,1312,o),
(675,1397,c),
(283,1330,l),
(188,976,o),
(-102,-214,o),
(-138,-379,c),
(253,-395,l)
);
},
{
closed = 1;
nodes = (
(572,409,o),
(505,433,o),
(466,449,c),
(478,490,o),
(491,541,o),
(499,586,c),
(536,619,o),
(632,665,o),
(723,665,cs),
(802,665,o),
(842,641,o),
(842,588,cs),
(842,490,o),
(748,409,o),
(637,409,cs)
);
}
);
width = 1200;
}
);
unicode = 254;
},
{
glyphname = q;
kernLeft = o;
kernRight = q;
lastChange = "2020-06-17 15:29:54 +0000";
layers = (
{
anchors = (
{
name = bottom;
pos = (461.585,0);
},
{
name = top;
pos = (746.415,1063);
}
);
layerId = "82219AB4-7C60-4B3A-9196-329BE868CB10";
shapes = (
{
closed = 1;
nodes = (
(775,-344,o),
(811,-127,o),
(872,99,cs),
(952,396,o),
(1085,773,o),
(1206,1072,c),
(1196,1077,o),
(1151,1089,o),
(1133,1091,c),
(1123,1074,o),
(1094,1000,o),
(1085,976,c),
(1045,1017,o),
(929,1086,o),
(765,1086,cs),
(377,1086,o),
(150,782,o),
(150,383,cs),
(150,184,o),
(238,49,o),
(453,49,cs),
(632,49,o),
(763,137,o),
(811,188,c),
(754,-24,o),
(689,-299,o),
(667,-446,c),
(698,-450,o),
(742,-453,o),
(759,-453,c)
);
},
{
closed = 1;
nodes = (
(295,126,o),
(240,241,o),
(240,395,cs),
(240,730,o),
(430,1010,o),
(741,1010,cs),
(914,1010,o),
(1034,919,o),
(1052,901,c),
(1010,798,o),
(870,393,o),
(839,296,c),
(790,243,o),
(628,126,o),
(457,126,cs)
);
}
);
width = 1207;
},
{
anchors = (
{
name = bottom;
pos = (461.585,0);
},
{
name = top;
pos = (746.415,1063);
}
);
layerId = "63DB0068-8B02-4205-807F-6F2453D24B26";
shapes = (
{
closed = 1;
nodes = (
(892,-342,o),
(933,-97,o),
(995,136,cs),
(1072,426,o),
(1187,782,o),
(1292,1043,c),
(1173,1075,o),
(1069,1089,o),
(954,1089,c),
(944,1067,o),
(909,987,o),
(897,942,c),
(820,1032,o),
(726,1084,o),
(576,1084,cs),
(236,1084,o),
(54,789,o),
(54,407,cs),
(54,172,o),
(154,-3,o),
(396,-3,cs),
(519,-3,o),
(603,42,o),
(634,79,c),
(583,-111,o),
(547,-270,o),
(520,-445,c),
(600,-453,o),
(716,-462,o),
(874,-462,c)
);
},
{
closed = 1;
nodes = (
(466,390,o),
(425,433,o),
(425,505,cs),
(425,615,o),
(498,722,o),
(612,722,cs),
(699,722,o),
(768,661,o),
(793,638,c),
(771,571,o),
(748,499,o),
(728,431,c),
(690,413,o),
(615,390,o),
(546,390,cs)
);
}
);
width = 1207;
}
);
unicode = 113;
},
{
glyphname = r;
kernLeft = n;
kernRight = r;
lastChange = "2020-07-16 19:18:26 +0000";
layers = (
{
anchors = (
{
name = bottom;
pos = (284.585,0);
},
{
name = top;
pos = (569.415,1063);
}
);
layerId = "82219AB4-7C60-4B3A-9196-329BE868CB10";
shapes = (
{
closed = 1;
nodes = (
(294,918,o),
(294,1003,o),
(294,1054,c),
(276,1053,o),
(226,1040,o),
(213,1034,c),
(213,658,o),
(152,343,o),
(61,2,c),
(85,-1,o),
(137,-2,o),
(157,-2,c),
(193,134,o),
(273,555,o),
(286,773,c),
(388,889,o),
(575,987,o),
(719,987,cs),
(805,987,o),
(850,967,o),
(880,952,c),
(921,1036,l),
(885,1054,o),
(802,1067,o),
(728,1067,cs),
(581,1067,o),
(397,987,o),
(292,877,c)
);
}
);
width = 853;
},
{
anchors = (
{
name = bottom;
pos = (295,0);
},
{
name = top;
pos = (579,1063);
}
);
layerId = "63DB0068-8B02-4205-807F-6F2453D24B26";
shapes = (
{
closed = 1;
nodes = (
(502,941,o),
(504,1029,o),
(504,1074,c),
(474,1072,o),
(293,1043,o),
(161,1009,c),
(154,832,o),
(39,261,o),
(-29,-8,c),
(113,-8,o),
(273,-4,o),
(396,12,c),
(418,96,o),
(465,441,o),
(480,578,c),
(547,641,o),
(617,677,o),
(694,677,cs),
(745,677,o),
(786,659,o),
(811,648,c),
(994,1044,l),
(975,1062,o),
(902,1078,o),
(842,1078,cs),
(694,1078,o),
(558,985,o),
(500,902,c)
);
}
);
width = 853;
}
);
unicode = 114;
},
{
glyphname = s;
kernLeft = s;
kernRight = s;
lastChange = "2020-06-17 21:34:13 +0000";
layers = (
{
anchors = (
{
name = bottom;
pos = (340,-60);
},
{
name = top;
pos = (657,1098);
}
);
layerId = "82219AB4-7C60-4B3A-9196-329BE868CB10";
shapes = (
{
closed = 1;
nodes = (
(626,-84,o),
(857,39,o),
(857,293,cs),
(857,439,o),
(769,536,o),
(541,614,cs),
(403,661,o),
(313,726,o),
(313,822,cs),
(313,972,o),
(514,1029,o),
(661,1029,cs),
(787,1029,o),
(878,986,o),
(941,949,c),
(954,964,o),
(978,998,o),
(995,1027,c),
(953,1061,o),
(846,1114,o),
(675,1114,cs),
(475,1114,o),
(223,1023,o),
(223,816,cs),
(223,657,o),
(335,599,o),
(527,529,cs),
(684,472,o),
(767,407,o),
(767,283,cs),
(767,93,o),
(568,-5,o),
(370,-5,cs),
(198,-5,o),
(63,99,o),
(16,210,c),
(-1,195,o),
(-41,159,o),
(-67,135,c),
(15,-2,o),
(208,-84,o),
(364,-84,cs)
);
}
);
width = 995;
},
{
anchors = (
{
name = bottom;
pos = (337,-70);
},
{
name = top;
pos = (641,1124);
}
);
layerId = "63DB0068-8B02-4205-807F-6F2453D24B26";
shapes = (
{
closed = 1;
nodes = (
(643,-77,o),
(908,79,o),
(908,348,cs),
(908,524,o),
(760,631,o),
(663,680,cs),
(574,725,o),
(535,749,o),
(535,783,cs),
(535,832,o),
(597,844,o),
(644,844,cs),
(712,844,o),
(791,788,o),
(826,738,c),
(930,831,o),
(1038,967,o),
(1063,1010,c),
(982,1081,o),
(826,1127,o),
(669,1127,cs),
(414,1127,o),
(177,1005,o),
(177,751,cs),
(177,606,o),
(265,506,o),
(380,446,cs),
(461,404,o),
(535,363,o),
(535,316,cs),
(535,268,o),
(491,250,o),
(445,250,cs),
(364,250,o),
(266,330,o),
(185,405,c),
(110,345,o),
(-59,126,o),
(-88,70,c),
(-60,34,o),
(93,-77,o),
(362,-77,cs)
);
}
);
width = 988;
}
);
unicode = 115;
},
{
glyphname = scedilla;
kernLeft = s;
kernRight = s;
lastChange = "2020-07-03 19:54:28 +0000";
layers = (
{
layerId = "82219AB4-7C60-4B3A-9196-329BE868CB10";
shapes = (
{
closed = 1;
nodes = (
(481,-522,o),
(634,-460,o),
(634,-287,cs),
(634,-194,o),
(569,-147,o),
(473,-147,cs),
(425,-147,o),
(360,-166,o),
(341,-179,c),
(382,-21,l),
(310,-17,l),
(243,-272,l),
(286,-254,o),
(388,-219,o),
(446,-219,cs),
(518,-219,o),
(544,-249,o),
(544,-302,cs),
(544,-422,o),
(434,-452,o),
(288,-452,cs),
(237,-452,o),
(163,-434,o),
(125,-424,c),
(98,-497,l),
(117,-504,o),
(180,-522,o),
(284,-522,cs)
);
},
{
ref = s;
}
);
width = 995;
},
{
layerId = "63DB0068-8B02-4205-807F-6F2453D24B26";
shapes = (
{
closed = 1;
nodes = (
(463,-567,o),
(722,-478,o),
(722,-252,cs),
(722,-151,o),
(660,-107,o),
(567,-107,cs),
(497,-107,o),
(437,-135,o),
(407,-169,c),
(450,-51,l),
(229,-63,l),
(137,-287,l),
(175,-274,o),
(260,-259,o),
(337,-259,cs),
(400,-259,o),
(450,-269,o),
(450,-301,cs),
(450,-344,o),
(381,-367,o),
(258,-367,cs),
(225,-367,o),
(143,-355,o),
(116,-342,c),
(20,-545,l),
(39,-550,o),
(118,-567,o),
(223,-567,cs)
);
},
{
ref = s;
}
);
width = 988;
}
);
unicode = 351;
},
{
glyphname = germandbls;
kernLeft = h;
kernRight = s;
lastChange = "2020-06-17 20:39:58 +0000";
layers = (
{
anchors = (
{
name = bottom;
pos = (430,0);
},
{
name = top;
pos = (707,1368);
}
);
layerId = "82219AB4-7C60-4B3A-9196-329BE868CB10";
shapes = (
{
closed = 1;
nodes = (
(210,5,l),
(221,103,o),
(308,823,o),
(354,993,cs),
(409,1196,o),
(504,1323,o),
(701,1323,cs),
(830,1323,o),
(942,1253,o),
(942,1144,cs),
(942,1053,o),
(866,981,o),
(792,914,cs),
(723,851,o),
(660,792,o),
(660,721,cs),
(660,685,o),
(675,643,o),
(702,616,cs),
(771,547,o),
(856,456,o),
(856,342,cs),
(856,203,o),
(748,86,o),
(600,86,cs),
(504,86,o),
(433,122,o),
(390,171,c),
(321,107,l),
(371,56,o),
(469,2,o),
(570,2,cs),
(771,2,o),
(949,164,o),
(949,358,cs),
(949,483,o),
(858,573,o),
(819,611,cs),
(761,667,o),
(756,702,o),
(756,736,cs),
(756,773,o),
(797,813,o),
(849,861,cs),
(925,932,o),
(1017,1025,o),
(1017,1157,cs),
(1017,1304,o),
(881,1395,o),
(712,1395,cs),
(465,1395,o),
(344,1250,o),
(274,988,cs),
(212,756,o),
(153,229,o),
(127,-5,c)
);
}
);
width = 1144;
},
{
anchors = (
{
name = bottom;
pos = (430,0);
},
{
name = top;
pos = (733,1372);
}
);
layerId = "63DB0068-8B02-4205-807F-6F2453D24B26";
shapes = (
{
closed = 1;
nodes = (
(365,53,l),
(375,141,o),
(458,785,o),
(521,1021,cs),
(546,1114,o),
(632,1114,o),
(669,1114,cs),
(731,1114,o),
(773,1069,o),
(773,1020,cs),
(773,957,o),
(719,912,o),
(663,867,cs),
(601,818,o),
(538,763,o),
(538,679,cs),
(538,628,o),
(566,600,o),
(590,584,cs),
(688,521,o),
(772,456,o),
(772,382,cs),
(772,341,o),
(747,295,o),
(704,295,cs),
(664,295,o),
(629,326,o),
(599,354,c),
(409,65,l),
(434,34,o),
(500,-10,o),
(638,-10,cs),
(874,-10,o),
(1085,216,o),
(1085,450,cs),
(1085,552,o),
(1036,628,o),
(977,669,cs),
(942,693,o),
(909,724,o),
(909,761,cs),
(909,785,o),
(938,812,o),
(981,850,cs),
(1044,905,o),
(1117,990,o),
(1117,1124,cs),
(1117,1293,o),
(969,1415,o),
(759,1415,cs),
(509,1415,o),
(238,1291,o),
(156,988,cs),
(85,726,o),
(6,104,o),
(6,-5,c)
);
}
);
width = 1144;
}
);
unicode = 223;
},
{
glyphname = t;
kernLeft = t;
kernRight = t;
lastChange = "2020-07-21 15:54:46 +0000";
layers = (
{
anchors = (
{
name = bottom;
pos = (494,-33);
},
{
name = center;
pos = (442,532);
},
{
name = top;
pos = (624,1436);
},
{
name = topright;
pos = (685,1186);
}
);
layerId = "82219AB4-7C60-4B3A-9196-329BE868CB10";
shapes = (
{
closed = 1;
nodes = (
(714,244,o),
(660,261,o),
(649,265,c),
(624,191,o),
(554,41,o),
(445,41,cs),
(380,41,o),
(356,93,o),
(356,175,cs),
(356,332,o),
(516,863,o),
(549,969,c),
(607,973,o),
(685,976,o),
(745,976,cs),
(828,976,o),
(925,970,o),
(938,969,c),
(941,979,o),
(950,1021,o),
(950,1031,c),
(935,1032,o),
(813,1037,o),
(710,1037,cs),
(673,1037,o),
(603,1034,o),
(566,1032,c),
(577,1066,o),
(588,1106,o),
(599,1146,cs),
(634,1276,o),
(663,1413,o),
(663,1431,c),
(586,1436,l),
(578,1392,o),
(564,1332,o),
(547,1268,cs),
(525,1187,o),
(499,1099,o),
(473,1024,c),
(375,1017,o),
(247,998,o),
(172,986,c),
(167,968,o),
(159,928,o),
(159,914,c),
(181,920,o),
(294,942,o),
(455,957,c),
(432,882,o),
(273,355,o),
(273,167,cs),
(273,45,o),
(314,-33,o),
(433,-33,cs),
(598,-33,o),
(680,123,o),
(725,241,c)
);
}
);
width = 964;
},
{
anchors = (
{
name = bottom;
pos = (459,-53);
},
{
name = center;
pos = (462,532);
},
{
name = top;
pos = (631,1421);
},
{
name = topright;
pos = (863,1376);
}
);
layerId = "63DB0068-8B02-4205-807F-6F2453D24B26";
shapes = (
{
closed = 1;
nodes = (
(823,92,o),
(739,323,o),
(722,353,c),
(690,323,o),
(648,289,o),
(600,289,cs),
(553,289,o),
(546,314,o),
(546,358,cs),
(546,440,o),
(609,663,o),
(670,832,c),
(711,835,o),
(768,840,o),
(812,844,cs),
(879,850,o),
(968,855,o),
(981,855,c),
(1007,950,o),
(1039,1080,o),
(1050,1162,c),
(1035,1162,o),
(992,1162,o),
(913,1157,cs),
(878,1155,o),
(808,1151,o),
(762,1149,c),
(775,1208,o),
(788,1260,o),
(799,1302,cs),
(817,1369,o),
(832,1421,o),
(836,1434,c),
(465,1397,l),
(460,1372,o),
(448,1318,o),
(438,1273,cs),
(428,1227,o),
(417,1179,o),
(406,1132,c),
(308,1128,o),
(230,1122,o),
(148,1113,c),
(142,1091,o),
(102,923,o),
(90,779,c),
(130,787,o),
(231,800,o),
(321,809,c),
(254,627,o),
(187,345,o),
(187,237,cs),
(187,78,o),
(272,-53,o),
(472,-53,cs),
(662,-53,o),
(773,5,o),
(833,64,c)
);
}
);
width = 964;
}
);
unicode = 116;
},
{
glyphname = t.ss01;
kernLeft = t;
kernRight = t;
lastChange = "2020-07-21 15:54:59 +0000";
layers = (
{
anchors = (
{
name = bottom;
pos = (339.585,0);
},
{
name = center;
pos = (482.134,532);
},
{
name = top;
pos = (672,1388);
},
{
name = topright;
pos = (768,1217);
}
);
layerId = "82219AB4-7C60-4B3A-9196-329BE868CB10";
shapes = (
{
closed = 1;
nodes = (
(1024,999,o),
(1030,1018,o),
(1036,1038,cs),
(1039,1047,o),
(1041,1056,o),
(1043,1065,c),
(1023,1065,o),
(814,1058,o),
(650,1051,c),
(677,1152,o),
(710,1347,o),
(716,1386,c),
(707,1387,o),
(695,1388,o),
(683,1388,cs),
(662,1388,o),
(638,1386,o),
(624,1383,c),
(608,1273,o),
(578,1101,o),
(563,1044,c),
(463,1038,o),
(251,1010,o),
(188,998,c),
(182,976,o),
(178,947,o),
(178,916,c),
(211,923,o),
(358,947,o),
(540,962,c),
(454,591,o),
(376,296,o),
(296,0,c),
(307,-1,o),
(321,-2,o),
(334,-2,cs),
(348,-2,o),
(360,-2,o),
(368,-2,c),
(405,118,o),
(451,277,o),
(494,437,cs),
(530,571,o),
(602,853,o),
(629,968,c),
(780,978,o),
(996,985,o),
(1016,985,c)
);
}
);
width = 964;
},
{
anchors = (
{
name = bottom;
pos = (339.585,0);
},
{
name = center;
pos = (482.134,532);
},
{
name = top;
pos = (688,1436);
},
{
name = topright;
pos = (905,1422);
}
);
layerId = "63DB0068-8B02-4205-807F-6F2453D24B26";
shapes = (
{
closed = 1;
nodes = (
(1033,926,o),
(1051,966,o),
(1069,1040,cs),
(1083,1098,o),
(1092,1152,o),
(1094,1195,c),
(1073,1195,o),
(1008,1193,o),
(824,1186,c),
(859,1335,o),
(865,1383,o),
(865,1422,c),
(844,1426,o),
(784,1436,o),
(688,1436,cs),
(641,1436,o),
(582,1432,o),
(515,1426,c),
(497,1337,o),
(477,1248,o),
(458,1168,c),
(359,1161,o),
(313,1157,o),
(196,1145,c),
(190,1123,o),
(148,959,o),
(135,817,c),
(179,829,o),
(293,843,o),
(386,853,c),
(317,619,o),
(234,320,o),
(148,0,c),
(193,-4,o),
(246,-5,o),
(295,-5,cs),
(368,-5,o),
(440,-4,o),
(521,-2,c),
(548,92,o),
(605,296,o),
(654,479,cs),
(694,629,o),
(726,763,o),
(752,879,c),
(872,886,o),
(985,893,o),
(1017,896,c)
);
}
);
width = 964;
}
);
},
{
glyphname = tbar;
kernLeft = t;
kernRight = t;
lastChange = "2020-06-17 20:42:58 +0000";
layers = (
{
layerId = "82219AB4-7C60-4B3A-9196-329BE868CB10";
shapes = (
{
closed = 1;
nodes = (
(807,614,o),
(812,658,o),
(812,666,c),
(682,660,o),
(195,619,o),
(133,606,c),
(126,595,o),
(118,562,o),
(116,545,c),
(273,559,o),
(649,587,o),
(803,595,c)
);
},
{
ref = t;
}
);
width = 964;
},
{
layerId = "63DB0068-8B02-4205-807F-6F2453D24B26";
shapes = (
{
closed = 1;
nodes = (
(908,568,o),
(932,688,o),
(938,727,c),
(795,727,o),
(234,718,o),
(96,667,c),
(76,593,o),
(63,523,o),
(49,436,c),
(279,453,o),
(755,460,o),
(879,460,c)
);
},
{
ref = t;
}
);
width = 964;
}
);
unicode = 359;
},
{
glyphname = tbar.ss01;
kernLeft = t;
kernRight = t;
lastChange = "2020-06-29 18:02:34 +0000";
layers = (
{
layerId = "82219AB4-7C60-4B3A-9196-329BE868CB10";
shapes = (
{
closed = 1;
nodes = (
(821,614,o),
(826,658,o),
(826,666,c),
(696,660,o),
(209,619,o),
(147,606,c),
(140,595,o),
(132,562,o),
(130,545,c),
(287,559,o),
(663,587,o),
(817,595,c)
);
},
{
pos = (-13,0);
ref = t.ss01;
}
);
width = 1031;
},
{
layerId = "63DB0068-8B02-4205-807F-6F2453D24B26";
shapes = (
{
closed = 1;
nodes = (
(831,568,o),
(849,688,o),
(853,727,c),
(728,727,o),
(235,718,o),
(115,667,c),
(99,593,o),
(90,523,o),
(79,436,c),
(281,453,o),
(699,460,o),
(808,460,c)
);
},
{
pos = (-40,0);
ref = t.ss01;
}
);
width = 899;
}
);
metricLeft = t;
metricRight = t;
},
{
glyphname = tcedilla;
kernLeft = t;
kernRight = t;
lastChange = "2020-07-08 20:02:31 +0000";
layers = (
{
layerId = "82219AB4-7C60-4B3A-9196-329BE868CB10";
shapes = (
{
closed = 1;
nodes = (
(558,-492,o),
(711,-430,o),
(711,-257,cs),
(711,-164,o),
(646,-117,o),
(550,-117,cs),
(502,-117,o),
(437,-136,o),
(418,-149,c),
(459,9,l),
(387,13,l),
(320,-242,l),
(363,-224,o),
(465,-189,o),
(523,-189,cs),
(595,-189,o),
(621,-219,o),
(621,-272,cs),
(621,-392,o),
(511,-422,o),
(365,-422,cs),
(314,-422,o),
(240,-404,o),
(202,-394,c),
(175,-467,l),
(194,-474,o),
(257,-492,o),
(361,-492,cs)
);
},
{
ref = t;
}
);
width = 964;
},
{
layerId = "63DB0068-8B02-4205-807F-6F2453D24B26";
shapes = (
{
closed = 1;
nodes = (
(581,-537,o),
(834,-453,o),
(834,-231,cs),
(834,-124,o),
(770,-77,o),
(674,-77,cs),
(604,-77,o),
(545,-105,o),
(517,-139,c),
(562,39,l),
(342,27,l),
(251,-257,l),
(288,-244,o),
(372,-229,o),
(449,-229,cs),
(514,-229,o),
(565,-239,o),
(565,-272,cs),
(565,-315,o),
(496,-337,o),
(374,-337,cs),
(341,-337,o),
(259,-325,o),
(231,-312,c),
(142,-515,l),
(162,-520,o),
(242,-537,o),
(347,-537,cs)
);
},
{
ref = t;
}
);
width = 964;
}
);
unicode = 355;
},
{
glyphname = tcedilla.ss01;
lastChange = "2020-07-08 20:02:24 +0000";
layers = (
{
layerId = "82219AB4-7C60-4B3A-9196-329BE868CB10";
shapes = (
{
closed = 1;
nodes = (
(481,-462,o),
(634,-400,o),
(634,-227,cs),
(634,-134,o),
(569,-87,o),
(473,-87,cs),
(425,-87,o),
(360,-106,o),
(341,-119,c),
(368,-2,l),
(296,0,l),
(243,-212,l),
(286,-194,o),
(388,-159,o),
(446,-159,cs),
(518,-159,o),
(544,-189,o),
(544,-242,cs),
(544,-362,o),
(434,-392,o),
(288,-392,cs),
(237,-392,o),
(163,-374,o),
(125,-364,c),
(98,-437,l),
(117,-444,o),
(180,-462,o),
(284,-462,cs)
);
},
{
ref = t.ss01;
}
);
width = 964;
},
{
layerId = "63DB0068-8B02-4205-807F-6F2453D24B26";
shapes = (
{
closed = 1;
nodes = (
(471,-537,o),
(724,-453,o),
(724,-231,cs),
(724,-124,o),
(660,-77,o),
(564,-77,cs),
(494,-77,o),
(435,-105,o),
(407,-139,c),
(452,39,l),
(232,27,l),
(141,-257,l),
(178,-244,o),
(262,-229,o),
(339,-229,cs),
(404,-229,o),
(455,-239,o),
(455,-272,cs),
(455,-315,o),
(386,-337,o),
(264,-337,cs),
(231,-337,o),
(149,-325,o),
(121,-312,c),
(32,-515,l),
(52,-520,o),
(132,-537,o),
(237,-537,cs)
);
},
{
ref = t.ss01;
}
);
width = 964;
}
);
},
{
glyphname = u;
kernLeft = u;
kernRight = u;
lastChange = "2020-06-18 18:50:34 +0000";
layers = (
{
anchors = (
{
name = bottom;
pos = (446.585,0);
},
{
name = ogonek;
pos = (652,0);
},
{
name = top;
pos = (731.415,1063);
},
{
name = topright;
pos = (1054,940);
}
);
layerId = "82219AB4-7C60-4B3A-9196-329BE868CB10";
shapes = (
{
closed = 1;
nodes = (
(1004,852,o),
(978,707,o),
(945,584,cs),
(841,196,o),
(668,29,o),
(465,29,cs),
(315,29,o),
(230,116,o),
(230,315,cs),
(230,516,o),
(320,799,o),
(414,1044,c),
(401,1048,o),
(388,1051,o),
(374,1054,cs),
(361,1057,o),
(345,1059,o),
(333,1060,c),
(235,787,o),
(139,509,o),
(139,297,cs),
(139,98,o),
(221,-41,o),
(461,-41,cs),
(781,-41,o),
(941,232,o),
(1026,553,cs),
(1067,707,o),
(1090,871,o),
(1104,1023,c),
(1098,1024,o),
(1076,1024,o),
(1061,1024,cs),
(1045,1024,o),
(1028,1022,o),
(1022,1021,c)
);
}
);
width = 1178;
},
{
anchors = (
{
name = bottom;
pos = (437,0);
},
{
name = ogonek;
pos = (698,0);
},
{
name = top;
pos = (721,1063);
},
{
name = topright;
pos = (1137,902);
}
);
layerId = "63DB0068-8B02-4205-807F-6F2453D24B26";
shapes = (
{
closed = 1;
nodes = (
(813,888,o),
(795,790,o),
(763,676,cs),
(712,495,o),
(642,304,o),
(534,304,cs),
(479,304,o),
(460,352,o),
(460,425,cs),
(460,566,o),
(533,807,o),
(601,995,c),
(557,1009,o),
(465,1018,o),
(381,1018,cs),
(323,1018,o),
(243,1014,o),
(198,1010,c),
(121,779,o),
(55,537,o),
(55,343,cs),
(55,95,o),
(160,-64,o),
(443,-64,cs),
(841,-64,o),
(1047,278,o),
(1159,696,cs),
(1183,787,o),
(1201,880,o),
(1213,973,c),
(1167,981,o),
(1085,987,o),
(1024,987,cs),
(950,987,o),
(859,978,o),
(813,964,c)
);
}
);
width = 1178;
}
);
unicode = 117;
},
{
glyphname = udieresiscaron;
kernLeft = u;
kernRight = u;
lastChange = "2020-07-21 15:32:29 +0000";
layers = (
{
layerId = "82219AB4-7C60-4B3A-9196-329BE868CB10";
shapes = (
{
closed = 1;
nodes = (
(1084,1728,o),
(900,1578,o),
(827,1517,c),
(839,1517,l),
(820,1536,o),
(718,1709,o),
(668,1816,c),
(641,1804,o),
(617,1792,o),
(602,1778,c),
(665,1666,o),
(726,1571,o),
(787,1480,c),
(808,1479,o),
(842,1478,o),
(867,1478,c),
(909,1507,o),
(1029,1592,o),
(1258,1762,c),
(1245,1775,o),
(1217,1795,o),
(1187,1807,c)
);
},
{
ref = u;
},
{
pos = (104,0);
ref = dieresiscomb;
}
);
width = 1178;
},
{
layerId = "63DB0068-8B02-4205-807F-6F2453D24B26";
shapes = (
{
closed = 1;
nodes = (
(936,1769,o),
(849,1701,o),
(834,1692,c),
(847,1692,l),
(825,1713,o),
(783,1780,o),
(752,1854,c),
(684,1838,o),
(583,1783,o),
(537,1749,c),
(591,1672,o),
(637,1613,o),
(688,1561,c),
(738,1556,o),
(848,1553,o),
(910,1553,c),
(963,1577,o),
(1114,1668,o),
(1186,1722,c),
(1175,1734,o),
(1074,1821,o),
(1018,1844,c)
);
},
{
ref = u;
},
{
pos = (81,0);
ref = dieresiscomb;
}
);
width = 1178;
}
);
unicode = 474;
},
{
glyphname = udieresismacron;
kernLeft = u;
kernRight = u;
lastChange = "2020-07-21 15:33:03 +0000";
layers = (
{
layerId = "82219AB4-7C60-4B3A-9196-329BE868CB10";
shapes = (
{
closed = 1;
nodes = (
(1112,1551,o),
(1117,1579,o),
(1117,1586,c),
(993,1586,o),
(640,1557,o),
(579,1545,c),
(572,1536,o),
(565,1509,o),
(561,1495,c),
(713,1510,o),
(960,1527,o),
(1107,1527,c)
);
},
{
ref = u;
},
{
pos = (121,0);
ref = dieresiscomb;
}
);
width = 1178;
},
{
layerId = "63DB0068-8B02-4205-807F-6F2453D24B26";
shapes = (
{
closed = 1;
nodes = (
(1147,1750,o),
(1162,1860,o),
(1167,1899,c),
(1043,1899,o),
(688,1865,o),
(542,1829,c),
(527,1755,o),
(518,1685,o),
(510,1608,c),
(700,1629,o),
(1018,1642,o),
(1124,1642,c)
);
},
{
ref = u;
},
{
pos = (81,0);
ref = dieresiscomb;
}
);
width = 1178;
}
);
unicode = 470;
},
{
glyphname = uhorn;
kernLeft = u;
kernRight = u;
lastChange = "2023-07-07 17:17:22 +0000";
layers = (
{
anchors = (
{
name = bottom;
pos = (447,0);
},
{
name = top;
pos = (731,1063);
}
);
layerId = "82219AB4-7C60-4B3A-9196-329BE868CB10";
shapes = (
{
closed = 1;
nodes = (
(1004,852,o),
(978,707,o),
(945,584,cs),
(841,196,o),
(668,29,o),
(465,29,cs),
(315,29,o),
(230,116,o),
(230,315,cs),
(230,516,o),
(320,799,o),
(414,1044,c),
(401,1048,o),
(388,1051,o),
(374,1054,cs),
(361,1057,o),
(345,1059,o),
(333,1060,c),
(235,787,o),
(139,509,o),
(139,297,cs),
(139,98,o),
(221,-41,o),
(461,-41,cs),
(781,-41,o),
(941,232,o),
(1026,553,cs),
(1067,707,o),
(1090,871,o),
(1104,1023,c),
(1098,1024,o),
(1076,1024,o),
(1061,1024,cs),
(1045,1024,o),
(1028,1022,o),
(1022,1021,c)
);
},
{
closed = 1;
nodes = (
(1222,952,o),
(1362,1030,o),
(1362,1259,c),
(1345,1268,o),
(1299,1275,o),
(1268,1275,c),
(1268,1152,o),
(1250,1024,o),
(1061,1024,c),
(1070,952,l)
);
}
);
width = 1221;
},
{
anchors = (
{
name = bottom;
pos = (447,0);
},
{
name = top;
pos = (731,1063);
}
);
layerId = "63DB0068-8B02-4205-807F-6F2453D24B26";
shapes = (
{
closed = 1;
nodes = (
(813,908,o),
(795,790,o),
(763,676,cs),
(712,495,o),
(642,304,o),
(534,304,cs),
(479,304,o),
(460,352,o),
(460,425,cs),
(460,566,o),
(533,807,o),
(601,995,c),
(557,1009,o),
(465,1018,o),
(381,1018,cs),
(323,1018,o),
(243,1014,o),
(198,1010,c),
(121,779,o),
(55,537,o),
(55,343,cs),
(55,95,o),
(160,-64,o),
(443,-64,cs),
(841,-64,o),
(1047,278,o),
(1159,696,cs),
(1183,787,o),
(1201,880,o),
(1213,973,c),
(1167,981,o),
(1011,987,o),
(950,987,cs),
(876,987,o),
(848,986,o),
(813,984,c)
);
},
{
closed = 1;
nodes = (
(1218,740,o),
(1459,825,o),
(1459,1186,c),
(1434,1214,o),
(1295,1244,o),
(1176,1244,c),
(1176,1057,o),
(1089,987,o),
(950,987,c),
(1036,740,l)
);
}
);
width = 1250;
}
);
metricLeft = u;
metricRight = "=u-120";
unicode = 432;
},
{
glyphname = uogonek;
kernLeft = u;
kernRight = u;
lastChange = "2020-07-08 16:45:51 +0000";
layers = (
{
layerId = "82219AB4-7C60-4B3A-9196-329BE868CB10";
shapes = (
{
closed = 1;
nodes = (
(783,-358,o),
(734,-378,o),
(640,-378,cs),
(550,-378,o),
(493,-347,o),
(493,-245,cs),
(493,-132,o),
(633,-8,o),
(735,45,c),
(670,90,l),
(541,21,o),
(407,-109,o),
(407,-252,cs),
(407,-381,o),
(487,-458,o),
(624,-458,cs),
(728,-458,o),
(800,-436,o),
(856,-412,c),
(856,-325,l)
);
},
{
ref = u;
}
);
width = 1178;
},
{
layerId = "63DB0068-8B02-4205-807F-6F2453D24B26";
shapes = (
{
closed = 1;
nodes = (
(897,-207,o),
(852,-216,o),
(809,-216,cs),
(756,-216,o),
(702,-192,o),
(702,-120,cs),
(702,-40,o),
(777,44,o),
(822,75,c),
(686,133,l),
(621,114,o),
(439,-37,o),
(439,-209,cs),
(439,-376,o),
(583,-461,o),
(741,-461,cs),
(845,-461,o),
(907,-448,o),
(936,-436,c),
(936,-179,l)
);
},
{
ref = u;
}
);
width = 1178;
}
);
unicode = 371;
},
{
glyphname = v;
kernLeft = v;
kernRight = v;
lastChange = "2023-07-07 16:52:56 +0000";
layers = (
{
anchors = (
{
name = bottom;
pos = (361.585,0);
},
{
name = top;
pos = (646.415,1063);
}
);
layerId = "82219AB4-7C60-4B3A-9196-329BE868CB10";
shapes = (
{
closed = 1;
nodes = (
(901,888,o),
(541,314,o),
(370,79,c),
(319,315,o),
(278,793,o),
(278,1092,c),
(253,1087,o),
(222,1080,o),
(193,1068,c),
(204,785,o),
(233,305,o),
(306,-31,c),
(315,-33,o),
(329,-34,o),
(344,-34,cs),
(363,-34,o),
(382,-33,o),
(392,-31,c),
(569,217,o),
(1000,881,o),
(1098,1062,c),
(1092,1067,o),
(1048,1082,o),
(1010,1091,c)
);
}
);
width = 1007;
},
{
anchors = (
{
name = bottom;
pos = (361.585,0);
},
{
name = top;
pos = (646.415,1063);
}
);
layerId = "63DB0068-8B02-4205-807F-6F2453D24B26";
shapes = (
{
closed = 1;
nodes = (
(646,778,o),
(582,651,o),
(496,487,c),
(489,587,o),
(476,915,o),
(476,1092,c),
(386,1067,o),
(172,1017,o),
(129,1012,c),
(142,667,o),
(177,311,o),
(234,36,c),
(274,31,o),
(334,25,o),
(396,25,cs),
(454,25,o),
(513,29,o),
(557,36,c),
(767,337,o),
(969,709,o),
(1109,1005,c),
(1088,1012,o),
(937,1061,o),
(770,1091,c)
);
}
);
width = 1007;
}
);
unicode = 118;
},
{
glyphname = v.ss02;
kernLeft = v;
kernRight = v;
lastChange = "2023-07-07 17:06:08 +0000";
layers = (
{
anchors = (
{
name = bottom;
pos = (400,0);
},
{
name = top;
pos = (617,1063);
}
);
layerId = "63DB0068-8B02-4205-807F-6F2453D24B26";
shapes = (
{
closed = 1;
nodes = (
(655,778,o),
(595,661,o),
(508,496,c),
(502,596,o),
(494,915,o),
(495,1092,c),
(405,1067,o),
(197,996,o),
(128,972,c),
(139,629,o),
(269,104,o),
(379,-35,c),
(598,190,o),
(927,667,o),
(1118,1005,c),
(1098,1012,o),
(956,1061,o),
(789,1091,c)
);
}
);
width = 1007;
},
{
anchors = (
{
name = bottom;
pos = (354,0);
},
{
name = top;
pos = (617,1063);
}
);
layerId = "82219AB4-7C60-4B3A-9196-329BE868CB10";
shapes = (
{
closed = 1;
nodes = (
(904,888,o),
(561,363,o),
(390,129,c),
(350,349,o),
(276,867,o),
(282,1092,c),
(257,1087,o),
(232,1080,o),
(193,1068,c),
(198,930,o),
(269,122,o),
(344,-34,c),
(502,106,o),
(1034,944,o),
(1098,1062,c),
(1092,1067,o),
(1052,1082,o),
(1014,1091,c)
);
}
);
width = 1007;
}
);
},
{
glyphname = w;
kernLeft = w;
kernRight = w;
lastChange = "2023-07-07 16:53:26 +0000";
layers = (
{
anchors = (
{
name = bottom;
pos = (617.585,0);
},
{
name = top;
pos = (902.415,1063);
}
);
layerId = "82219AB4-7C60-4B3A-9196-329BE868CB10";
shapes = (
{
closed = 1;
nodes = (
(466,7,o),
(607,130,o),
(684,310,c),
(689,171,o),
(723,14,o),
(893,14,cs),
(1168,14,o),
(1350,510,o),
(1444,853,cs),
(1461,915,o),
(1475,978,o),
(1488,1039,c),
(1472,1041,o),
(1457,1042,o),
(1442,1042,cs),
(1431,1042,o),
(1420,1042,o),
(1407,1041,c),
(1399,1003,o),
(1379,916,o),
(1368,876,cs),
(1264,489,o),
(1091,91,o),
(894,91,cs),
(804,91,o),
(773,162,o),
(773,274,cs),
(773,435,o),
(841,691,o),
(936,1036,c),
(920,1039,o),
(872,1040,o),
(849,1040,c),
(838,993,o),
(817,904,o),
(804,856,cs),
(690,432,o),
(529,92,o),
(345,92,cs),
(258,92,o),
(223,163,o),
(223,274,cs),
(223,464,o),
(337,815,o),
(432,1056,c),
(413,1058,o),
(363,1058,o),
(344,1058,c),
(243,786,o),
(138,476,o),
(138,261,cs),
(138,108,o),
(191,7,o),
(327,7,cs)
);
}
);
width = 1520;
},
{
anchors = (
{
name = bottom;
pos = (617.585,0);
},
{
name = top;
pos = (902.415,1063);
}
);
layerId = "63DB0068-8B02-4205-807F-6F2453D24B26";
shapes = (
{
closed = 1;
nodes = (
(487,7,o),
(600,104,o),
(666,194,c),
(693,75,o),
(765,15,o),
(908,15,cs),
(1223,15,o),
(1396,243,o),
(1516,685,cs),
(1538,766,o),
(1576,944,o),
(1593,1033,c),
(1555,1036,o),
(1468,1041,o),
(1416,1041,cs),
(1361,1041,o),
(1307,1041,o),
(1252,1041,c),
(1223,923,o),
(1195,812,o),
(1169,715,cs),
(1106,480,o),
(1038,328,o),
(955,328,cs),
(919,328,o),
(903,356,o),
(903,412,cs),
(903,491,o),
(923,570,o),
(1044,1036,c),
(964,1039,o),
(789,1041,o),
(719,1041,c),
(692,925,o),
(661,805,o),
(633,700,cs),
(583,515,o),
(512,373,o),
(442,373,cs),
(411,373,o),
(397,397,o),
(397,442,cs),
(397,550,o),
(489,825,o),
(563,1044,c),
(455,1052,o),
(317,1060,o),
(211,1060,c),
(117,805,o),
(28,544,o),
(28,337,cs),
(28,143,o),
(106,7,o),
(323,7,cs)
);
}
);
width = 1520;
}
);
unicode = 119;
},
{
glyphname = x;
kernLeft = x;
kernRight = x;
lastChange = "2020-06-17 15:34:53 +0000";
layers = (
{
anchors = (
{
name = bottom;
pos = (428.585,0);
},
{
name = top;
pos = (713.415,1063);
}
);
layerId = "82219AB4-7C60-4B3A-9196-329BE868CB10";
shapes = (
{
closed = 1;
nodes = (
(136,72,o),
(471,399,o),
(630,560,c),
(687,452,o),
(800,132,o),
(820,-15,c),
(846,-5,o),
(897,24,o),
(907,34,c),
(878,169,o),
(755,491,o),
(691,610,c),
(856,756,o),
(1066,998,o),
(1162,1120,c),
(1150,1130,o),
(1100,1147,o),
(1083,1152,c),
(989,1021,o),
(816,835,o),
(652,680,c),
(605,789,o),
(384,1056,o),
(306,1142,c),
(276,1125,o),
(249,1105,o),
(228,1085,c),
(322,986,o),
(508,784,o),
(595,619,c),
(433,466,o),
(50,109,o),
(-13,58,c),
(-10,49,o),
(21,18,o),
(42,0,c)
);
}
);
width = 1142;
},
{
anchors = (
{
name = bottom;
pos = (428.585,0);
},
{
name = top;
pos = (713.415,1063);
}
);
layerId = "63DB0068-8B02-4205-807F-6F2453D24B26";
shapes = (
{
closed = 1;
nodes = (
(242,31,o),
(340,112,o),
(526,289,c),
(590,184,o),
(625,94,o),
(669,-21,c),
(771,24,o),
(916,94,o),
(1012,162,c),
(934,333,o),
(888,432,o),
(817,561,c),
(965,684,o),
(1166,884,o),
(1263,995,c),
(1197,1044,o),
(1058,1116,o),
(965,1164,c),
(847,1014,o),
(754,909,o),
(655,805,c),
(626,892,o),
(517,1104,o),
(475,1169,c),
(401,1135,o),
(175,990,o),
(146,961,c),
(190,892,o),
(264,775,o),
(393,568,c),
(251,450,o),
(12,263,o),
(-55,212,c),
(-15,138,o),
(104,11,o),
(150,-36,c)
);
}
);
width = 1142;
}
);
unicode = 120;
},
{
glyphname = y;
kernLeft = y;
kernRight = y;
lastChange = "2020-06-17 15:35:22 +0000";
layers = (
{
anchors = (
{
name = bottom;
pos = (397.585,0);
},
{
name = top;
pos = (682.415,1063);
}
);
layerId = "82219AB4-7C60-4B3A-9196-329BE868CB10";
shapes = (
{
closed = 1;
nodes = (
(458,-529,o),
(662,-277,o),
(768,56,cs),
(850,314,o),
(945,615,o),
(999,815,cs),
(1014,871,o),
(1026,919,o),
(1034,956,c),
(1027,959,o),
(1011,960,o),
(995,960,cs),
(980,960,o),
(965,959,o),
(954,957,c),
(949,937,o),
(857,627,o),
(799,474,cs),
(706,228,o),
(554,123,o),
(392,123,cs),
(267,123,o),
(226,213,o),
(226,337,cs),
(226,506,o),
(313,803,o),
(380,991,c),
(375,993,o),
(363,993,o),
(349,993,cs),
(329,993,o),
(305,992,o),
(293,990,c),
(215,748,o),
(142,498,o),
(142,314,cs),
(142,146,o),
(204,43,o),
(367,43,cs),
(589,43,o),
(694,159,o),
(737,234,c),
(640,-128,o),
(451,-451,o),
(166,-451,cs),
(27,-451,o),
(-95,-371,o),
(-125,-338,c),
(-147,-358,o),
(-185,-399,o),
(-194,-412,c),
(-146,-457,o),
(-16,-529,o),
(153,-529,cs)
);
}
);
width = 1079;
},
{
anchors = (
{
name = bottom;
pos = (397.585,0);
},
{
name = top;
pos = (682.415,1063);
}
);
layerId = "63DB0068-8B02-4205-807F-6F2453D24B26";
shapes = (
{
closed = 1;
nodes = (
(577,-526,o),
(768,-300,o),
(881,56,cs),
(946,260,o),
(1005,461,o),
(1053,640,cs),
(1082,749,o),
(1107,849,o),
(1127,937,c),
(1052,954,o),
(981,962,o),
(904,962,cs),
(868,962,o),
(831,960,o),
(792,957,c),
(789,934,o),
(780,888,o),
(758,806,cs),
(695,570,o),
(612,391,o),
(483,391,cs),
(436,391,o),
(418,431,o),
(418,490,cs),
(418,612,o),
(500,845,o),
(553,957,c),
(523,964,o),
(420,970,o),
(327,970,cs),
(263,970,o),
(205,967,o),
(176,961,c),
(102,730,o),
(37,517,o),
(37,347,cs),
(37,160,o),
(115,36,o),
(331,36,cs),
(432,36,o),
(549,81,o),
(601,167,c),
(555,16,o),
(458,-179,o),
(296,-179,cs),
(163,-179,o),
(36,-106,o),
(-29,-56,c),
(-86,-113,o),
(-227,-292,o),
(-277,-373,c),
(-180,-450,o),
(16,-526,o),
(231,-526,cs)
);
}
);
width = 1079;
}
);
unicode = 121;
},
{
glyphname = z;
kernLeft = z;
kernRight = z;
lastChange = "2020-02-20 16:33:37 +0000";
layers = (
{
anchors = (
{
name = bottom;
pos = (355,0);
},
{
name = center;
pos = (497,532);
},
{
name = top;
pos = (639,1063);
}
);
layerId = "82219AB4-7C60-4B3A-9196-329BE868CB10";
shapes = (
{
closed = 1;
nodes = (
(850,22,o),
(871,82,o),
(876,104,c),
(794,94,o),
(603,89,o),
(427,89,cs),
(260,89,o),
(126,94,o),
(87,103,c),
(215,229,o),
(935,836,o),
(1087,946,c),
(1090,959,o),
(1105,1029,o),
(1105,1036,c),
(975,1042,o),
(854,1044,o),
(746,1044,cs),
(470,1044,o),
(282,1029,o),
(239,1024,c),
(214,944,l),
(239,950,o),
(504,958,o),
(721,958,cs),
(839,958,o),
(937,956,o),
(960,950,c),
(908,908,o),
(125,266,o),
(-23,128,c),
(-58,12,l),
(71,1,o),
(246,-3,o),
(421,-3,cs),
(569,-3,o),
(722,2,o),
(840,7,c)
);
}
);
width = 1074;
},
{
anchors = (
{
name = bottom;
pos = (375,0);
},
{
name = center;
pos = (517,532);
},
{
name = top;
pos = (659,1063);
}
);
layerId = "63DB0068-8B02-4205-807F-6F2453D24B26";
shapes = (
{
closed = 1;
nodes = (
(873,43,o),
(950,305,o),
(958,334,c),
(878,326,o),
(745,315,o),
(637,315,cs),
(606,315,o),
(527,315,o),
(501,316,c),
(586,398,o),
(869,653,o),
(1058,791,c),
(1070,833,o),
(1117,1023,o),
(1117,1045,c),
(1016,1045,o),
(843,1045,o),
(698,1045,cs),
(579,1045,o),
(341,1055,o),
(242,1060,c),
(147,764,l),
(154,763,o),
(174,763,o),
(202,763,cs),
(307,763,o),
(522,767,o),
(579,771,c),
(344,595,o),
(112,386,o),
(11,280,c),
(-77,12,l),
(33,-5,o),
(215,-11,o),
(394,-11,cs),
(574,-11,o),
(752,-5,o),
(855,2,c)
);
}
);
width = 1074;
}
);
unicode = 122;
},
{
glyphname = z.ss02;
kernLeft = z;
kernRight = z;
lastChange = "2023-07-07 17:06:31 +0000";
layers = (
{
anchors = (
{
name = bottom;
pos = (373,-11);
},
{
name = center;
pos = (537,532);
},
{
name = top;
pos = (696,1063);
}
);
layerId = "63DB0068-8B02-4205-807F-6F2453D24B26";
shapes = (
{
closed = 1;
nodes = (
(852,43,o),
(929,305,o),
(937,334,c),
(855,327,o),
(756,321,o),
(701,321,cs),
(640,321,o),
(529,322,o),
(494,326,c),
(579,408,o),
(980,819,o),
(1130,985,c),
(1015,1016,o),
(779,1060,o),
(221,1060,c),
(126,764,l),
(133,763,o),
(153,763,o),
(181,763,cs),
(286,763,o),
(451,767,o),
(508,771,c),
(309,557,o),
(-23,167,o),
(-120,22,c),
(-9,5,o),
(194,-11,o),
(373,-11,cs),
(553,-11,o),
(731,-5,o),
(834,2,c)
);
}
);
width = 1074;
},
{
anchors = (
{
name = bottom;
pos = (371,0);
},
{
name = center;
pos = (537,532);
},
{
name = top;
pos = (705,1063);
}
);
layerId = "82219AB4-7C60-4B3A-9196-329BE868CB10";
shapes = (
{
closed = 1;
nodes = (
(859,22,o),
(879,82,o),
(885,104,c),
(802,95,o),
(632,89,o),
(456,89,cs),
(289,89,o),
(153,93,o),
(115,102,c),
(321,314,o),
(956,867,o),
(1107,977,c),
(1081,1001,o),
(748,1054,o),
(276,1054,c),
(251,974,l),
(360,974,o),
(561,970,o),
(690,960,cs),
(806,951,o),
(887,935,o),
(910,929,c),
(746,802,o),
(156,287,o),
(-81,32,c),
(11,13,o),
(274,-3,o),
(449,-3,cs),
(597,-3,o),
(731,2,o),
(849,7,c)
);
}
);
width = 1074;
}
);
},
